SplineFontDB: 3.0
FontName: Overlock-Bold
FullName: Overlock-Bold
FamilyName: Overlock
Weight: Bold
Copyright: Copyright (c) 2011, Dario Manuel Muhafara (http://www.tipo.net.ar), with Reserved Font Name "Overlock".
Version: 1.001
ItalicAngle: 0
UnderlinePosition: -113
UnderlineWidth: 20
Ascent: 800
Descent: 200
sfntRevision: 0x00010042
LayerCount: 2
Layer: 0 1 "Back"  1
Layer: 1 1 "Fore"  0
XUID: [1021 288 713564382 11187193]
FSType: 0
OS2Version: 2
OS2_WeightWidthSlopeOnly: 0
OS2_UseTypoMetrics: 1
CreationTime: 1324052790
ModificationTime: 1324081826
PfmFamily: 17
TTFWeight: 700
TTFWidth: 5
LineGap: 0
VLineGap: 0
Panose: 2 0 8 6 4 0 0 2 0 4
OS2TypoAscent: 166
OS2TypoAOffset: 1
OS2TypoDescent: -54
OS2TypoDOffset: 1
OS2TypoLinegap: 0
OS2WinAscent: 45
OS2WinAOffset: 1
OS2WinDescent: 1
OS2WinDOffset: 1
HheadAscent: 45
HheadAOffset: 1
HheadDescent: -1
HheadDOffset: 1
OS2SubXSize: 700
OS2SubYSize: 650
OS2SubXOff: 0
OS2SubYOff: 140
OS2SupXSize: 700
OS2SupYSize: 650
OS2SupXOff: 0
OS2SupYOff: 477
OS2StrikeYSize: 50
OS2StrikeYPos: 250
OS2Vendor: 'pyrs'
OS2CodePages: 20000001.00000000
OS2UnicodeRanges: 800000af.5000204a.00000000.00000000
Lookup: 258 0 0 "'kern' Horizontal Kerning in Latin lookup 0"  {"'kern' Horizontal Kerning in Latin lookup 0 subtable"  } ['kern' ('DFLT' <'dflt' > 'latn' <'dflt' > ) ]
MarkAttachClasses: 1
DEI: 91125
TtTable: prep
PUSHW_1
 511
SCANCTRL
PUSHB_1
 4
SCANTYPE
EndTTInstrs
ShortTable: maxp 16
  1
  0
  280
  131
  7
  0
  0
  2
  0
  1
  1
  0
  64
  0
  0
  0
EndShort
LangName: 1033 "" "" "" "DarioManuelMuhafara: Overlock Bold: 2011" "" "Version 1.001" "" "Overlock is a trademark of Dario Manuel Muhafara." "Dario Manuel Muhafara" "Dario Muhafara" "" "www.tipo.net.ar" "www.tipo.net.ar" "This Font Software is licensed under the SIL Open Font License,+AA0A-Version 1.1. This license is available with a FAQ at:+AA0A-http://scripts.sil.org/OFL" "http://scripts.sil.org/OFL" 
GaspTable: 1 65535 15
Encoding: UnicodeBmp
UnicodeInterp: none

StartChar: exclam
Encoding: 33 33 4
Width: 308
GlyphClass: 2
Flags: W
LayerCount: 2
Fore
SplineSet
160 132 m 0,0,1
 190 132 190 132 211 112 c 128,-1,2
 232 92 232 92 232 61 c 0,3,4
 232 31 232 31 210 10.5 c 128,-1,5
 188 -10 188 -10 158 -10 c 0,6,7
 129 -10 129 -10 108 10.5 c 128,-1,8
 87 31 87 31 87 61 c 128,-1,9
 87 91 87 91 109 111.5 c 128,-1,10
 131 132 131 132 160 132 c 0,0,1
216 639 m 1,11,12
 215 601 215 601 207 520.5 c 128,-1,13
 199 440 199 440 199 385 c 0,14,15
 199 273 199 273 214 233 c 1,16,17
 185 220 185 220 162 220 c 0,18,19
 106 220 106 220 105 270 c 0,20,21
 104 301 104 301 103.5 377 c 128,-1,22
 103 453 103 453 102 499.5 c 128,-1,23
 101 546 101 546 97 601 c 128,-1,24
 93 656 93 656 85 686 c 1,25,26
 129 694 129 694 154 694 c 0,27,28
 216 694 216 694 216 639 c 1,11,12
EndSplineSet
EndChar

StartChar: quotedbl
Encoding: 34 34 5
Width: 395
GlyphClass: 2
Flags: W
LayerCount: 2
Fore
SplineSet
240 695 m 0,0,1
 240 714 240 714 258.5 725 c 128,-1,2
 277 736 277 736 304 736 c 0,3,4
 328 736 328 736 344.5 724.5 c 128,-1,5
 361 713 361 713 361 688 c 0,6,7
 361 644 361 644 342 516 c 1,8,9
 332 471 332 471 288 471 c 0,10,11
 272 471 272 471 251 477 c 1,12,13
 254 495 254 495 254 519 c 0,14,15
 254 581 254 581 247 633 c 128,-1,16
 240 685 240 685 240 695 c 0,0,1
42 695 m 0,17,18
 42 714 42 714 60.5 725 c 128,-1,19
 79 736 79 736 106 736 c 0,20,21
 130 736 130 736 146.5 724.5 c 128,-1,22
 163 713 163 713 163 688 c 0,23,24
 163 644 163 644 144 516 c 1,25,26
 134 471 134 471 90 471 c 0,27,28
 74 471 74 471 53 477 c 1,29,30
 56 495 56 495 56 519 c 0,31,32
 56 581 56 581 49 633 c 128,-1,33
 42 685 42 685 42 695 c 0,17,18
EndSplineSet
EndChar

StartChar: numbersign
Encoding: 35 35 6
Width: 535
GlyphClass: 2
Flags: W
LayerCount: 2
Fore
SplineSet
229 457 m 1,0,-1
 344 457 l 1,1,2
 344 461 344 461 351.5 529 c 128,-1,3
 359 597 359 597 360 619 c 1,4,5
 373 623 373 623 389 623 c 0,6,7
 430 623 430 623 430 585 c 0,8,9
 430 568 430 568 409 459 c 1,10,11
 468 460 468 460 539 465 c 1,12,13
 542 452 542 452 542 434 c 0,14,15
 542 383 542 383 492 383 c 0,16,17
 461 383 461 383 396 388 c 1,18,-1
 379 271 l 1,19,20
 453 274 453 274 512 279 c 1,21,22
 514 261 514 261 514 244 c 0,23,24
 514 197 514 197 463 197 c 0,25,26
 424 197 424 197 369 202 c 1,27,28
 361 106 361 106 361 100 c 0,29,30
 361 64 361 64 364 39 c 1,31,32
 343 28 343 28 326 28 c 0,33,34
 291 28 291 28 291 67 c 0,35,36
 291 99 291 99 309 205 c 1,37,-1
 190 205 l 1,38,39
 181 106 181 106 181 104 c 0,40,41
 181 70 181 70 184 39 c 1,42,43
 164 28 164 28 146 28 c 0,44,45
 111 28 111 28 111 67 c 0,46,47
 111 87 111 87 129 203 c 1,48,49
 68 200 68 200 4 181 c 1,50,51
 -3 206 -3 206 -3 225 c 0,52,53
 -3 272 -3 272 76 272 c 2,54,-1
 141 272 l 1,55,-1
 157 389 l 1,56,57
 91 385 91 385 31 367 c 1,58,59
 23 395 23 395 23 412 c 0,60,61
 23 458 23 458 101 458 c 1,62,-1
 165 457 l 1,63,64
 180 617 180 617 180 619 c 1,65,66
 195 623 195 623 211 623 c 0,67,68
 250 623 250 623 250 585 c 0,69,70
 250 558 250 558 229 457 c 1,0,-1
199 270 m 1,71,-1
 320 270 l 1,72,-1
 336 391 l 1,73,-1
 218 391 l 1,74,-1
 199 270 l 1,71,-1
EndSplineSet
EndChar

StartChar: dollar
Encoding: 36 36 7
Width: 535
GlyphClass: 2
Flags: W
LayerCount: 2
Fore
SplineSet
235 -51 m 2,0,-1
 235 -10 l 1,1,2
 155 -8 155 -8 95 21.5 c 128,-1,3
 35 51 35 51 35 91 c 0,4,5
 35 132 35 132 93 159 c 1,6,7
 110 125 110 125 150 100.5 c 128,-1,8
 190 76 190 76 235 70 c 1,9,-1
 235 278 l 1,10,11
 195 290 195 290 167.5 302.5 c 128,-1,12
 140 315 140 315 111 338 c 128,-1,13
 82 361 82 361 67 398 c 128,-1,14
 52 435 52 435 52 486 c 0,15,16
 52 563 52 563 102.5 610 c 128,-1,17
 153 657 153 657 234 669 c 1,18,19
 232 724 232 724 230 736 c 1,20,21
 245 739 245 739 253 739 c 0,22,23
 290 739 290 739 290 712 c 2,24,-1
 290 673 l 1,25,26
 357 671 357 671 415 644.5 c 128,-1,27
 473 618 473 618 473 574 c 0,28,29
 473 522 473 522 405 508 c 1,30,31
 392 540 392 540 360 563.5 c 128,-1,32
 328 587 328 587 290 594 c 1,33,-1
 290 389 l 1,34,35
 327 379 327 379 347.5 372 c 128,-1,36
 368 365 368 365 399 350 c 128,-1,37
 430 335 430 335 446.5 317.5 c 128,-1,38
 463 300 463 300 475.5 271.5 c 128,-1,39
 488 243 488 243 488 206 c 0,40,41
 488 105 488 105 433 53.5 c 128,-1,42
 378 2 378 2 291 -7 c 1,43,44
 293 -60 293 -60 295 -76 c 1,45,-1
 275 -78 l 1,46,47
 235 -78 235 -78 235 -51 c 2,0,-1
396 176 m 0,48,49
 396 211 396 211 369 229.5 c 128,-1,50
 342 248 342 248 290 262 c 1,51,-1
 290 71 l 1,52,53
 337 77 337 77 366.5 103 c 128,-1,54
 396 129 396 129 396 176 c 0,48,49
144 497 m 0,55,56
 144 462 144 462 167.5 441 c 128,-1,57
 191 420 191 420 235 406 c 1,58,-1
 235 594 l 1,59,60
 194 588 194 588 169 563.5 c 128,-1,61
 144 539 144 539 144 497 c 0,55,56
EndSplineSet
EndChar

StartChar: percent
Encoding: 37 37 8
Width: 819
GlyphClass: 2
Flags: W
LayerCount: 2
Fore
SplineSet
622 -10 m 0,0,1
 550 -10 550 -10 508 36 c 128,-1,2
 466 82 466 82 466 160 c 128,-1,3
 466 238 466 238 508 283.5 c 128,-1,4
 550 329 550 329 622 329 c 0,5,6
 693 329 693 329 735 283.5 c 128,-1,7
 777 238 777 238 777 160 c 128,-1,8
 777 82 777 82 735 36 c 128,-1,9
 693 -10 693 -10 622 -10 c 0,0,1
680 153 m 0,10,11
 680 197 680 197 664.5 231.5 c 128,-1,12
 649 266 649 266 622 266 c 128,-1,13
 595 266 595 266 578 238.5 c 128,-1,14
 561 211 561 211 561 170 c 0,15,16
 561 125 561 125 576.5 89.5 c 128,-1,17
 592 54 592 54 621 54 c 0,18,19
 648 54 648 54 664 82 c 128,-1,20
 680 110 680 110 680 153 c 0,10,11
237 -33 m 1,21,22
 165 -22 165 -22 165 7 c 0,23,24
 165 19 165 19 173 31 c 2,25,-1
 467 497 l 2,26,27
 533 601 533 601 586 696 c 1,28,29
 656 691 656 691 656 654 c 0,30,31
 656 643 656 643 649 632 c 2,32,-1
 356 166 l 2,33,34
 289 60 289 60 237 -33 c 1,21,22
198 326 m 0,35,36
 126 326 126 326 84 372 c 128,-1,37
 42 418 42 418 42 496 c 128,-1,38
 42 574 42 574 84 619.5 c 128,-1,39
 126 665 126 665 198 665 c 0,40,41
 269 665 269 665 311 619.5 c 128,-1,42
 353 574 353 574 353 496 c 128,-1,43
 353 418 353 418 311 372 c 128,-1,44
 269 326 269 326 198 326 c 0,35,36
256 489 m 0,45,46
 256 533 256 533 240.5 567.5 c 128,-1,47
 225 602 225 602 198 602 c 128,-1,48
 171 602 171 602 154 574.5 c 128,-1,49
 137 547 137 547 137 506 c 0,50,51
 137 461 137 461 152.5 425.5 c 128,-1,52
 168 390 168 390 197 390 c 0,53,54
 224 390 224 390 240 418 c 128,-1,55
 256 446 256 446 256 489 c 0,45,46
EndSplineSet
EndChar

StartChar: ampersand
Encoding: 38 38 9
Width: 631
GlyphClass: 2
Flags: W
LayerCount: 2
Fore
SplineSet
320 524 m 0,0,1
 320 558 320 558 303 582.5 c 128,-1,2
 286 607 286 607 251 607 c 0,3,4
 175 607 175 607 175 527 c 0,5,6
 175 484 175 484 228 397 c 1,7,8
 273 427 273 427 296.5 456 c 128,-1,9
 320 485 320 485 320 524 c 0,0,1
194 285 m 1,10,11
 148 237 148 237 148 183 c 0,12,13
 148 128 148 128 184.5 95 c 128,-1,14
 221 62 221 62 280 62 c 0,15,16
 324 62 324 62 359 85 c 1,17,18
 283 162 283 162 194 285 c 1,10,11
523 239 m 0,19,20
 523 167 523 167 491 111 c 1,21,22
 553 71 553 71 603 71 c 1,23,24
 605 59 605 59 605 46 c 0,25,26
 605 22 605 22 583.5 6 c 128,-1,27
 562 -10 562 -10 516 -10 c 0,28,29
 476 -10 476 -10 417 33 c 1,30,31
 350 -10 350 -10 266 -10 c 0,32,33
 175 -10 175 -10 108.5 37.5 c 128,-1,34
 42 85 42 85 42 169 c 0,35,36
 42 229 42 229 71 270 c 128,-1,37
 100 311 100 311 151 347 c 1,38,39
 128 381 128 381 103 423 c 0,40,41
 79 463 79 463 79 518 c 0,42,43
 79 589 79 589 130.5 631 c 128,-1,44
 182 673 182 673 262 673 c 0,45,46
 335 673 335 673 376 635.5 c 128,-1,47
 417 598 417 598 417 546 c 0,48,49
 417 509 417 509 404 477.5 c 128,-1,50
 391 446 391 446 363.5 419 c 128,-1,51
 336 392 336 392 317.5 378 c 128,-1,52
 299 364 299 364 265 341 c 1,53,54
 332 244 332 244 417 168 c 1,55,56
 424 198 424 198 424 224 c 0,57,58
 424 267 424 267 415 286 c 1,59,60
 439 298 439 298 462 298 c 0,61,62
 523 298 523 298 523 239 c 0,19,20
EndSplineSet
EndChar

StartChar: quotesingle
Encoding: 39 39 10
Width: 261
GlyphClass: 2
Flags: W
LayerCount: 2
Fore
SplineSet
50 695 m 0,0,1
 50 714 50 714 68.5 725 c 128,-1,2
 87 736 87 736 114 736 c 0,3,4
 138 736 138 736 154.5 724.5 c 128,-1,5
 171 713 171 713 171 688 c 0,6,7
 171 644 171 644 152 516 c 1,8,9
 142 471 142 471 98 471 c 0,10,11
 82 471 82 471 61 477 c 1,12,13
 64 495 64 495 64 519 c 0,14,15
 64 581 64 581 57 633 c 128,-1,16
 50 685 50 685 50 695 c 0,0,1
EndSplineSet
EndChar

StartChar: parenleft
Encoding: 40 40 11
Width: 352
GlyphClass: 2
Flags: W
LayerCount: 2
Fore
SplineSet
76 269 m 0,0,1
 76 352 76 352 98 439 c 128,-1,2
 120 526 120 526 150.5 588.5 c 128,-1,3
 181 651 181 651 213 691 c 128,-1,4
 245 731 245 731 266 731 c 0,5,6
 294 731 294 731 315 701 c 1,7,8
 254 633 254 633 217 511 c 128,-1,9
 180 389 180 389 180 269 c 0,10,11
 180 137 180 137 218.5 19 c 128,-1,12
 257 -99 257 -99 315 -167 c 1,13,14
 294 -197 294 -197 266 -197 c 0,15,16
 245 -197 245 -197 213.5 -158 c 128,-1,17
 182 -119 182 -119 151 -57.5 c 128,-1,18
 120 4 120 4 98 93 c 128,-1,19
 76 182 76 182 76 269 c 0,0,1
EndSplineSet
EndChar

StartChar: parenright
Encoding: 41 41 12
Width: 341
GlyphClass: 2
Flags: W
LayerCount: 2
Fore
SplineSet
264 265 m 0,0,1
 264 182 264 182 242 94 c 128,-1,2
 220 6 220 6 189.5 -57.5 c 128,-1,3
 159 -121 159 -121 127 -162 c 128,-1,4
 95 -203 95 -203 74 -203 c 0,5,6
 46 -203 46 -203 25 -173 c 1,7,8
 86 -105 86 -105 123 19.5 c 128,-1,9
 160 144 160 144 160 265 c 0,10,11
 160 397 160 397 121.5 515 c 128,-1,12
 83 633 83 633 25 701 c 1,13,14
 46 731 46 731 74 731 c 0,15,16
 95 731 95 731 126.5 692 c 128,-1,17
 158 653 158 653 189 591.5 c 128,-1,18
 220 530 220 530 242 441 c 128,-1,19
 264 352 264 352 264 265 c 0,0,1
EndSplineSet
EndChar

StartChar: asterisk
Encoding: 42 42 13
Width: 421
GlyphClass: 2
Flags: W
LayerCount: 2
Fore
SplineSet
265 697 m 0,0,1
 265 673 265 673 251 617 c 1,2,3
 316 663 316 663 339 686 c 1,4,5
 383 648 383 648 383 620 c 0,6,7
 383 577 383 577 260 546 c 1,8,9
 301 508 301 508 369 457 c 1,10,11
 358 437 358 437 339 423 c 128,-1,12
 320 409 320 409 298 409 c 0,13,14
 274 409 274 409 255 432.5 c 128,-1,15
 236 456 236 456 209 507 c 1,16,17
 204 498 204 498 180 454.5 c 128,-1,18
 156 411 156 411 144 392 c 1,19,20
 115 402 115 402 92.5 419.5 c 128,-1,21
 70 437 70 437 70 456 c 0,22,23
 70 484 70 484 159 549 c 1,24,25
 61 584 61 584 30 593 c 1,26,27
 34 620 34 620 51 642 c 128,-1,28
 68 664 68 664 93 664 c 0,29,30
 109 664 109 664 133 651 c 128,-1,31
 157 638 157 638 174 620 c 1,32,33
 161 701 161 701 154 734 c 1,34,35
 185 743 185 743 203 743 c 0,36,37
 265 743 265 743 265 697 c 0,0,1
EndSplineSet
EndChar

StartChar: plus
Encoding: 43 43 14
Width: 535
GlyphClass: 2
Flags: W
LayerCount: 2
Fore
SplineSet
261 481 m 0,0,1
 286 481 286 481 302.5 469 c 128,-1,2
 319 457 319 457 319 438 c 0,3,4
 319 418 319 418 315.5 362 c 128,-1,5
 312 306 312 306 312 289 c 1,6,7
 416 289 416 289 492 299 c 1,8,9
 498 282 498 282 498 260 c 0,10,11
 498 240 498 240 483.5 225.5 c 128,-1,12
 469 211 469 211 446 211 c 0,13,14
 427 211 427 211 376 214.5 c 128,-1,15
 325 218 325 218 311 218 c 1,16,17
 311 116 311 116 320 28 c 1,18,19
 291 22 291 22 273 22 c 0,20,21
 250 22 250 22 232.5 33 c 128,-1,22
 215 44 215 44 215 66 c 0,23,24
 215 90 215 90 218.5 139 c 128,-1,25
 222 188 222 188 222 219 c 1,26,27
 129 218 129 218 41 210 c 1,28,29
 37 230 37 230 37 248 c 0,30,31
 37 267 37 267 49.5 282 c 128,-1,32
 62 297 62 297 89 297 c 0,33,34
 111 297 111 297 152.5 293.5 c 128,-1,35
 194 290 194 290 223 290 c 1,36,37
 223 396 223 396 214 474 c 1,38,39
 235 481 235 481 261 481 c 0,0,1
EndSplineSet
EndChar

StartChar: comma
Encoding: 44 44 15
Width: 243
GlyphClass: 2
Flags: W
LayerCount: 2
Fore
SplineSet
103 -29 m 0,0,1
 103 16 103 16 54 25 c 1,2,3
 44 44 44 44 44 63 c 0,4,5
 44 87 44 87 65 103.5 c 128,-1,6
 86 120 86 120 116 120 c 0,7,8
 148 120 148 120 171 96 c 128,-1,9
 194 72 194 72 194 22 c 0,10,11
 194 -44 194 -44 152.5 -99 c 128,-1,12
 111 -154 111 -154 54 -154 c 0,13,14
 23 -154 23 -154 23 -116 c 0,15,16
 23 -106 23 -106 24 -101 c 1,17,-1
 29 -101 l 2,18,19
 61 -101 61 -101 82 -79 c 128,-1,20
 103 -57 103 -57 103 -29 c 0,0,1
EndSplineSet
EndChar

StartChar: hyphen
Encoding: 45 45 16
Width: 260
GlyphClass: 2
Flags: W
LayerCount: 2
Fore
SplineSet
255 269 m 0,0,1
 255 248 255 248 241 235.5 c 128,-1,2
 227 223 227 223 203 223 c 0,3,4
 192 223 192 223 167 225.5 c 128,-1,5
 142 228 142 228 125 228 c 0,6,7
 81 228 81 228 30 217 c 1,8,9
 25 241 25 241 25 257 c 0,10,11
 25 276 25 276 37.5 289.5 c 128,-1,12
 50 303 50 303 77 303 c 0,13,14
 84 303 84 303 112 301 c 128,-1,15
 140 299 140 299 160 299 c 0,16,17
 208 299 208 299 248 309 c 1,18,19
 255 288 255 288 255 269 c 0,0,1
EndSplineSet
EndChar

StartChar: period
Encoding: 46 46 17
Width: 238
GlyphClass: 2
Flags: W
LayerCount: 2
Fore
SplineSet
114 -10 m 0,0,1
 84 -10 84 -10 63 10 c 128,-1,2
 42 30 42 30 42 61 c 0,3,4
 42 91 42 91 64 111.5 c 128,-1,5
 86 132 86 132 116 132 c 0,6,7
 145 132 145 132 166 111.5 c 128,-1,8
 187 91 187 91 187 61 c 128,-1,9
 187 31 187 31 165 10.5 c 128,-1,10
 143 -10 143 -10 114 -10 c 0,0,1
EndSplineSet
EndChar

StartChar: slash
Encoding: 47 47 18
Width: 263
GlyphClass: 2
Flags: W
LayerCount: 2
Fore
SplineSet
109 -115 m 1,0,1
 92 -118 92 -118 76 -118 c 0,2,3
 36 -118 36 -118 36 -90 c 0,4,5
 36 -88 36 -88 38 -76.5 c 128,-1,6
 40 -65 40 -65 46.5 -24.5 c 128,-1,7
 53 16 53 16 62 73 c 128,-1,8
 71 130 71 130 90 247.5 c 128,-1,9
 109 365 109 365 131 506 c 1,10,11
 150 621 150 621 162 737 c 1,12,13
 177 742 177 742 193 742 c 0,14,15
 234 742 234 742 234 714 c 0,16,17
 234 710 234 710 218 611 c 0,18,19
 181 380 181 380 140 116 c 0,20,21
 114 -45 114 -45 109 -115 c 1,0,1
EndSplineSet
EndChar

StartChar: zero
Encoding: 48 48 19
Width: 535
GlyphClass: 2
Flags: W
LayerCount: 2
Fore
SplineSet
272 -10 m 128,-1,1
 159 -10 159 -10 92 82.5 c 128,-1,2
 25 175 25 175 25 331 c 0,3,4
 25 488 25 488 92 580.5 c 128,-1,5
 159 673 159 673 272 673 c 128,-1,6
 385 673 385 673 452.5 580.5 c 128,-1,7
 520 488 520 488 520 331 c 0,8,9
 520 176 520 176 452.5 83 c 128,-1,0
 385 -10 385 -10 272 -10 c 128,-1,1
412 315 m 0,10,11
 412 384 412 384 397.5 446.5 c 128,-1,12
 383 509 383 509 350 554 c 128,-1,13
 317 599 317 599 273 599 c 0,14,15
 212 599 212 599 172.5 529.5 c 128,-1,16
 133 460 133 460 133 360 c 0,17,18
 133 286 133 286 147.5 220.5 c 128,-1,19
 162 155 162 155 194.5 109.5 c 128,-1,20
 227 64 227 64 272 64 c 0,21,22
 335 64 335 64 373.5 136 c 128,-1,23
 412 208 412 208 412 315 c 0,10,11
EndSplineSet
EndChar

StartChar: one
Encoding: 49 49 20
Width: 535
GlyphClass: 2
Flags: W
LayerCount: 2
Fore
SplineSet
344 68 m 1,0,1
 415 68 415 68 444 72 c 1,2,3
 448 58 448 58 448 45 c 0,4,5
 448 -2 448 -2 409 -2 c 0,6,7
 402 -2 402 -2 342.5 -1 c 128,-1,8
 283 0 283 0 239 0 c 0,9,10
 153 0 153 0 122 -1 c 1,11,12
 117 17 117 17 117 29 c 0,13,14
 117 71 117 71 175 71 c 2,15,-1
 239 71 l 1,16,17
 239 89 239 89 240 177 c 128,-1,18
 241 265 241 265 241 338 c 0,19,20
 241 479 241 479 238 590 c 1,21,22
 132 578 132 578 117 575 c 1,23,24
 114 590 114 590 114 602 c 0,25,26
 114 649 114 649 153 656 c 0,27,28
 261 673 261 673 301 673 c 0,29,30
 318 673 318 673 331.5 662 c 128,-1,31
 345 651 345 651 345 626 c 0,32,33
 345 624 345 624 341 505 c 128,-1,34
 337 386 337 386 337 295 c 0,35,36
 337 129 337 129 344 68 c 1,0,1
EndSplineSet
EndChar

StartChar: two
Encoding: 50 50 21
Width: 535
GlyphClass: 2
Flags: W
LayerCount: 2
Fore
SplineSet
104 512 m 1,0,1
 81 515 81 515 68 528.5 c 128,-1,2
 55 542 55 542 55 561 c 0,3,4
 55 600 55 600 121 636.5 c 128,-1,5
 187 673 187 673 263 673 c 0,6,7
 345 673 345 673 404.5 625 c 128,-1,8
 464 577 464 577 464 490 c 0,9,10
 464 435 464 435 445 385.5 c 128,-1,11
 426 336 426 336 381 283.5 c 128,-1,12
 336 231 336 231 289.5 188 c 128,-1,13
 243 145 243 145 160 77 c 1,14,15
 179 76 179 76 238 76 c 0,16,17
 340 76 340 76 387.5 81 c 128,-1,18
 435 86 435 86 482 104 c 1,19,20
 496 74 496 74 496 53 c 0,21,22
 496 22 496 22 471 12 c 0,23,24
 432 -2 432 -2 305 -2 c 0,25,26
 150 -2 150 -2 87 0 c 1,27,28
 39 0 39 0 39 47 c 0,29,30
 39 57 39 57 40 61 c 1,31,32
 228 229 228 229 294 312.5 c 128,-1,33
 360 396 360 396 360 471 c 0,34,35
 360 529 360 529 326.5 563 c 128,-1,36
 293 597 293 597 245 597 c 0,37,38
 206 597 206 597 167.5 573.5 c 128,-1,39
 129 550 129 550 104 512 c 1,0,1
EndSplineSet
EndChar

StartChar: three
Encoding: 51 51 22
Width: 535
GlyphClass: 2
Flags: W
LayerCount: 2
Fore
SplineSet
327 364 m 1,0,1
 406 334 406 334 434 292 c 128,-1,2
 462 250 462 250 462 190 c 0,3,4
 462 109 462 109 396 49.5 c 128,-1,5
 330 -10 330 -10 214 -10 c 0,6,7
 143 -10 143 -10 99 7.5 c 128,-1,8
 55 25 55 25 55 55 c 0,9,10
 55 75 55 75 68 88 c 128,-1,11
 81 101 81 101 102 104 c 1,12,13
 133 64 133 64 211 64 c 0,14,15
 279 64 279 64 316.5 102.5 c 128,-1,16
 354 141 354 141 354 191 c 0,17,18
 354 244 354 244 308.5 282 c 128,-1,19
 263 320 263 320 182 320 c 0,20,21
 171 320 171 320 165.5 321 c 128,-1,22
 160 322 160 322 154.5 326 c 128,-1,23
 149 330 149 330 147 339 c 128,-1,24
 145 348 145 348 145 363 c 0,25,26
 145 373 145 373 146 380 c 1,27,28
 239 380 239 380 286 416 c 128,-1,29
 333 452 333 452 333 501 c 0,30,31
 333 540 333 540 307 569 c 128,-1,32
 281 598 281 598 238 598 c 0,33,34
 205 598 205 598 172.5 578 c 128,-1,35
 140 558 140 558 121 520 c 1,36,37
 98 520 98 520 83.5 534.5 c 128,-1,38
 69 549 69 549 69 569 c 0,39,40
 69 603 69 603 127 638 c 128,-1,41
 185 673 185 673 257 673 c 0,42,43
 344 673 344 673 392.5 627.5 c 128,-1,44
 441 582 441 582 441 519 c 0,45,46
 441 471 441 471 413 429 c 128,-1,47
 385 387 385 387 327 364 c 1,0,1
EndSplineSet
EndChar

StartChar: four
Encoding: 52 52 23
Width: 535
GlyphClass: 2
Flags: W
LayerCount: 2
Fore
SplineSet
329 546 m 1,0,1
 233 429 233 429 139 281 c 1,2,3
 183 278 183 278 230 278 c 0,4,5
 280 278 280 278 327 281 c 1,6,7
 327 388 327 388 329 546 c 1,0,1
324 661 m 1,8,9
 343 673 343 673 394 673 c 0,10,11
 408 673 408 673 432 671 c 1,12,13
 432 668 432 668 430 628 c 128,-1,14
 428 588 428 588 425.5 517.5 c 128,-1,15
 423 447 423 447 423 371 c 2,16,-1
 423 284 l 1,17,18
 497 290 497 290 521 301 c 1,19,20
 529 279 529 279 529 255 c 0,21,22
 529 220 529 220 509 212 c 0,23,24
 485 202 485 202 422 201 c 1,25,26
 422 59 422 59 443 -2 c 1,27,28
 421 -10 421 -10 389 -10 c 0,29,30
 352 -10 352 -10 338.5 3 c 128,-1,31
 325 16 325 16 325 47 c 0,32,33
 325 86 325 86 327 200 c 1,34,35
 116 200 116 200 60 207 c 0,36,37
 37 210 37 210 37 253 c 0,38,39
 37 268 37 268 39 284 c 1,40,41
 82 358 82 358 181 490 c 128,-1,42
 280 622 280 622 324 661 c 1,8,9
EndSplineSet
EndChar

StartChar: five
Encoding: 53 53 24
Width: 535
GlyphClass: 2
Flags: W
LayerCount: 2
Fore
SplineSet
374 574 m 0,0,1
 296 574 296 574 191 580 c 1,2,-1
 177 430 l 1,3,4
 214 436 214 436 247 436 c 0,5,6
 355 436 355 436 411 378.5 c 128,-1,7
 467 321 467 321 467 228 c 0,8,9
 467 126 467 126 400.5 58 c 128,-1,10
 334 -10 334 -10 218 -10 c 0,11,12
 141 -10 141 -10 99 8.5 c 128,-1,13
 57 27 57 27 57 55 c 0,14,15
 57 95 57 95 104 104 c 1,16,17
 135 64 135 64 209 64 c 0,18,19
 280 64 280 64 319.5 109 c 128,-1,20
 359 154 359 154 359 214 c 0,21,22
 359 276 359 276 313 320.5 c 128,-1,23
 267 365 267 365 187 365 c 0,24,25
 146 365 146 365 108 360 c 1,26,27
 98 370 98 370 98 408 c 0,28,29
 98 423 98 423 111 664 c 1,30,31
 142 662 142 662 322 662 c 0,32,33
 397 662 397 662 440 670 c 1,34,35
 450 652 450 652 450 628 c 0,36,37
 450 574 450 574 374 574 c 0,0,1
EndSplineSet
EndChar

StartChar: six
Encoding: 54 54 25
Width: 535
GlyphClass: 2
Flags: W
LayerCount: 2
Fore
SplineSet
276 326 m 0,0,1
 217 326 217 326 162 267 c 1,2,3
 163 225 163 225 168.5 192.5 c 128,-1,4
 174 160 174 160 186 129 c 128,-1,5
 198 98 198 98 222 81.5 c 128,-1,6
 246 65 246 65 280 65 c 0,7,8
 329 65 329 65 356.5 103 c 128,-1,9
 384 141 384 141 384 194 c 0,10,11
 384 254 384 254 353.5 290 c 128,-1,12
 323 326 323 326 276 326 c 0,0,1
272 -10 m 0,13,14
 211 -10 211 -10 166.5 14 c 128,-1,15
 122 38 122 38 98.5 80 c 128,-1,16
 75 122 75 122 64.5 170 c 128,-1,17
 54 218 54 218 54 275 c 0,18,19
 54 376 54 376 91.5 465 c 128,-1,20
 129 554 129 554 208 613.5 c 128,-1,21
 287 673 287 673 391 673 c 0,22,23
 435 673 435 673 435 629 c 0,24,25
 435 620 435 620 430 593 c 1,26,27
 410 597 410 597 387 597 c 0,28,29
 290 597 290 597 230 519.5 c 128,-1,30
 170 442 170 442 163 332 c 1,31,32
 224 401 224 401 313 401 c 0,33,34
 387 401 387 401 439.5 348.5 c 128,-1,35
 492 296 492 296 492 210 c 128,-1,36
 492 124 492 124 432 57 c 128,-1,37
 372 -10 372 -10 272 -10 c 0,13,14
EndSplineSet
EndChar

StartChar: seven
Encoding: 55 55 26
Width: 535
GlyphClass: 2
Flags: W
LayerCount: 2
Fore
SplineSet
59 32 m 1,0,1
 140 117 140 117 235.5 286 c 128,-1,2
 331 455 331 455 379 578 c 1,3,4
 235 574 235 574 121 574 c 0,5,6
 45 574 45 574 45 628 c 0,7,8
 45 645 45 645 55 670 c 1,9,10
 105 662 105 662 170 662 c 0,11,12
 429 662 429 662 482 664 c 1,13,14
 490 648 490 648 490 627 c 0,15,16
 490 607 490 607 484 589 c 0,17,18
 466 536 466 536 377 361.5 c 128,-1,19
 288 187 288 187 217 59 c 0,20,21
 179 -10 179 -10 136 -10 c 0,22,23
 96 -10 96 -10 59 32 c 1,0,1
EndSplineSet
EndChar

StartChar: eight
Encoding: 56 56 27
Width: 535
GlyphClass: 2
Flags: W
LayerCount: 2
Fore
SplineSet
364 525 m 0,0,1
 364 557 364 557 336 578 c 128,-1,2
 308 599 308 599 269 599 c 128,-1,3
 230 599 230 599 202.5 578 c 128,-1,4
 175 557 175 557 175 525 c 0,5,6
 175 482 175 482 202 452.5 c 128,-1,7
 229 423 229 423 282 398 c 1,8,9
 364 437 364 437 364 525 c 0,0,1
269 64 m 128,-1,11
 322 64 322 64 353.5 97.5 c 128,-1,12
 385 131 385 131 385 176 c 0,13,14
 385 229 385 229 353 261 c 128,-1,15
 321 293 321 293 246 327 c 1,16,17
 195 296 195 296 173.5 263.5 c 128,-1,18
 152 231 152 231 152 176 c 0,19,20
 152 131 152 131 184 97.5 c 128,-1,10
 216 64 216 64 269 64 c 128,-1,11
270 -11 m 128,-1,22
 163 -11 163 -11 105 44.5 c 128,-1,23
 47 100 47 100 47 177 c 0,24,25
 47 294 47 294 181 359 c 1,26,27
 73 427 73 427 73 525 c 0,28,29
 73 591 73 591 130.5 632.5 c 128,-1,30
 188 674 188 674 269 674 c 128,-1,31
 350 674 350 674 408 632.5 c 128,-1,32
 466 591 466 591 466 525 c 0,33,34
 466 426 466 426 356 375 c 1,35,36
 493 304 493 304 493 177 c 0,37,38
 493 100 493 100 435 44.5 c 128,-1,21
 377 -11 377 -11 270 -11 c 128,-1,22
EndSplineSet
EndChar

StartChar: nine
Encoding: 57 57 28
Width: 535
GlyphClass: 2
Flags: W
LayerCount: 2
Fore
SplineSet
262 337 m 0,0,1
 321 337 321 337 376 396 c 1,2,3
 375 438 375 438 369.5 470.5 c 128,-1,4
 364 503 364 503 352 534 c 128,-1,5
 340 565 340 565 316 581.5 c 128,-1,6
 292 598 292 598 258 598 c 0,7,8
 209 598 209 598 181.5 560 c 128,-1,9
 154 522 154 522 154 469 c 0,10,11
 154 409 154 409 184.5 373 c 128,-1,12
 215 337 215 337 262 337 c 0,0,1
266 673 m 0,13,14
 327 673 327 673 371.5 649 c 128,-1,15
 416 625 416 625 439.5 583 c 128,-1,16
 463 541 463 541 473.5 493 c 128,-1,17
 484 445 484 445 484 388 c 0,18,19
 484 287 484 287 446.5 198 c 128,-1,20
 409 109 409 109 330 49.5 c 128,-1,21
 251 -10 251 -10 147 -10 c 0,22,23
 103 -10 103 -10 103 34 c 0,24,25
 103 43 103 43 108 70 c 1,26,27
 128 66 128 66 151 66 c 0,28,29
 248 66 248 66 308 143.5 c 128,-1,30
 368 221 368 221 375 331 c 1,31,32
 314 262 314 262 225 262 c 0,33,34
 151 262 151 262 98.5 314.5 c 128,-1,35
 46 367 46 367 46 453 c 128,-1,36
 46 539 46 539 106 606 c 128,-1,37
 166 673 166 673 266 673 c 0,13,14
EndSplineSet
EndChar

StartChar: colon
Encoding: 58 58 29
Width: 238
GlyphClass: 2
Flags: W
LayerCount: 2
Fore
SplineSet
115 332 m 0,0,1
 84 332 84 332 63 353.5 c 128,-1,2
 42 375 42 375 42 408 c 0,3,4
 42 440 42 440 63.5 462.5 c 128,-1,5
 85 485 85 485 115 485 c 128,-1,6
 145 485 145 485 166 462.5 c 128,-1,7
 187 440 187 440 187 408 c 0,8,9
 187 375 187 375 166 353.5 c 128,-1,10
 145 332 145 332 115 332 c 0,0,1
115 -10 m 0,11,12
 84 -10 84 -10 63 11.5 c 128,-1,13
 42 33 42 33 42 66 c 0,14,15
 42 98 42 98 63.5 120.5 c 128,-1,16
 85 143 85 143 115 143 c 128,-1,17
 145 143 145 143 166 120.5 c 128,-1,18
 187 98 187 98 187 66 c 0,19,20
 187 33 187 33 166 11.5 c 128,-1,21
 145 -10 145 -10 115 -10 c 0,11,12
EndSplineSet
EndChar

StartChar: semicolon
Encoding: 59 59 30
Width: 259
GlyphClass: 2
Flags: W
LayerCount: 2
Fore
SplineSet
103 -29 m 0,0,1
 103 16 103 16 54 25 c 1,2,3
 44 44 44 44 44 63 c 0,4,5
 44 87 44 87 65 103.5 c 128,-1,6
 86 120 86 120 116 120 c 0,7,8
 148 120 148 120 171 96 c 128,-1,9
 194 72 194 72 194 22 c 0,10,11
 194 -44 194 -44 152.5 -99 c 128,-1,12
 111 -154 111 -154 54 -154 c 0,13,14
 23 -154 23 -154 23 -116 c 0,15,16
 23 -106 23 -106 24 -101 c 1,17,-1
 29 -101 l 2,18,19
 61 -101 61 -101 82 -79 c 128,-1,20
 103 -57 103 -57 103 -29 c 0,0,1
121 332 m 0,21,22
 90 332 90 332 69 353.5 c 128,-1,23
 48 375 48 375 48 408 c 0,24,25
 48 440 48 440 69.5 462.5 c 128,-1,26
 91 485 91 485 121 485 c 128,-1,27
 151 485 151 485 172 462.5 c 128,-1,28
 193 440 193 440 193 408 c 0,29,30
 193 375 193 375 172 353.5 c 128,-1,31
 151 332 151 332 121 332 c 0,21,22
EndSplineSet
EndChar

StartChar: less
Encoding: 60 60 31
Width: 535
GlyphClass: 2
Flags: W
LayerCount: 2
Fore
SplineSet
415 436 m 1,0,-1
 204 253 l 1,1,-1
 415 59 l 1,2,3
 407 42 407 42 388.5 30 c 128,-1,4
 370 18 370 18 351 18 c 0,5,6
 328 18 328 18 315 30 c 2,7,-1
 95 253 l 1,8,-1
 316 464 l 2,9,10
 329 477 329 477 351 477 c 0,11,12
 372 477 372 477 390 464.5 c 128,-1,13
 408 452 408 452 415 436 c 1,0,-1
EndSplineSet
EndChar

StartChar: equal
Encoding: 61 61 32
Width: 535
GlyphClass: 2
Flags: W
LayerCount: 2
Fore
SplineSet
476 162 m 128,-1,1
 476 141 476 141 461.5 127 c 128,-1,2
 447 113 447 113 424 113 c 0,3,4
 394 113 394 113 343.5 117 c 128,-1,5
 293 121 293 121 271 121 c 0,6,7
 172 121 172 121 64 111 c 1,8,9
 59 135 59 135 59 150 c 0,10,11
 59 169 59 169 71.5 184 c 128,-1,12
 84 199 84 199 111 199 c 0,13,14
 122 199 122 199 177 195.5 c 128,-1,15
 232 192 232 192 269 192 c 0,16,17
 397 192 397 192 470 201 c 1,18,0
 476 183 476 183 476 162 c 128,-1,1
476 358 m 128,-1,20
 476 337 476 337 461.5 323 c 128,-1,21
 447 309 447 309 424 309 c 0,22,23
 394 309 394 309 343.5 313 c 128,-1,24
 293 317 293 317 271 317 c 0,25,26
 172 317 172 317 64 307 c 1,27,28
 59 331 59 331 59 346 c 0,29,30
 59 365 59 365 71.5 380 c 128,-1,31
 84 395 84 395 111 395 c 0,32,33
 122 395 122 395 177 391.5 c 128,-1,34
 232 388 232 388 269 388 c 0,35,36
 397 388 397 388 470 397 c 1,37,19
 476 379 476 379 476 358 c 128,-1,20
EndSplineSet
EndChar

StartChar: greater
Encoding: 62 62 33
Width: 535
GlyphClass: 2
Flags: W
LayerCount: 2
Fore
SplineSet
110 59 m 1,0,-1
 321 253 l 1,1,-1
 110 436 l 1,2,3
 118 452 118 452 136 464.5 c 128,-1,4
 154 477 154 477 175 477 c 128,-1,5
 196 477 196 477 211 464 c 1,6,-1
 431 253 l 1,7,-1
 211 30 l 2,8,9
 198 18 198 18 175 18 c 0,10,11
 155 18 155 18 137 29.5 c 128,-1,12
 119 41 119 41 110 59 c 1,0,-1
EndSplineSet
EndChar

StartChar: question
Encoding: 63 63 34
Width: 399
GlyphClass: 2
Flags: W
LayerCount: 2
Fore
SplineSet
192 -10 m 0,0,1
 162 -10 162 -10 141 10 c 128,-1,2
 120 30 120 30 120 61 c 0,3,4
 120 91 120 91 142 111.5 c 128,-1,5
 164 132 164 132 194 132 c 0,6,7
 223 132 223 132 244 111.5 c 128,-1,8
 265 91 265 91 265 61 c 128,-1,9
 265 31 265 31 243 10.5 c 128,-1,10
 221 -10 221 -10 192 -10 c 0,0,1
127 275 m 0,11,12
 127 302 127 302 140 329 c 128,-1,13
 153 356 153 356 165.5 370.5 c 128,-1,14
 178 385 178 385 204 413 c 0,15,16
 228 438 228 438 240 453 c 128,-1,17
 252 468 252 468 264 494 c 128,-1,18
 276 520 276 520 276 548 c 0,19,20
 276 581 276 581 258 597.5 c 128,-1,21
 240 614 240 614 210 614 c 0,22,23
 177 614 177 614 147.5 593 c 128,-1,24
 118 572 118 572 109 538 c 1,25,26
 34 550 34 550 34 591 c 0,27,28
 34 633 34 633 82 658.5 c 128,-1,29
 130 684 130 684 196 684 c 0,30,31
 276 684 276 684 329 648.5 c 128,-1,32
 382 613 382 613 382 547 c 0,33,34
 382 509 382 509 366.5 475.5 c 128,-1,35
 351 442 351 442 335.5 424.5 c 128,-1,36
 320 407 320 407 292 382 c 0,37,38
 272 364 272 364 262 353 c 128,-1,39
 252 342 252 342 241.5 321.5 c 128,-1,40
 231 301 231 301 231 281 c 0,41,42
 231 259 231 259 242 226 c 1,43,44
 214 209 214 209 188 209 c 0,45,46
 127 209 127 209 127 275 c 0,11,12
EndSplineSet
EndChar

StartChar: at
Encoding: 64 64 35
Width: 855
GlyphClass: 2
Flags: W
LayerCount: 2
Fore
SplineSet
354 54 m 0,0,1
 304 54 304 54 271.5 91 c 128,-1,2
 239 128 239 128 239 196 c 0,3,4
 239 298 239 298 295 370.5 c 128,-1,5
 351 443 351 443 433 443 c 0,6,7
 526 443 526 443 593 397 c 1,8,9
 556 258 556 258 556 184 c 0,10,11
 556 132 556 132 588 132 c 0,12,13
 621 132 621 132 651 181 c 128,-1,14
 681 230 681 230 681 312 c 0,15,16
 681 411 681 411 629 465.5 c 128,-1,17
 577 520 577 520 469 520 c 0,18,19
 381 520 381 520 311 468 c 128,-1,20
 241 416 241 416 206 340.5 c 128,-1,21
 171 265 171 265 171 186 c 0,22,23
 171 92 171 92 228.5 29.5 c 128,-1,24
 286 -33 286 -33 398 -33 c 0,25,26
 501 -33 501 -33 531 30 c 1,27,28
 589 11 589 11 589 -21 c 0,29,30
 589 -60 589 -60 532 -84.5 c 128,-1,31
 475 -109 475 -109 390 -109 c 0,32,33
 236 -109 236 -109 156 -26 c 128,-1,34
 76 57 76 57 76 180 c 0,35,36
 76 253 76 253 104.5 325 c 128,-1,37
 133 397 133 397 184.5 456.5 c 128,-1,38
 236 516 236 516 315.5 553 c 128,-1,39
 395 590 395 590 489 590 c 0,40,41
 621 590 621 590 699.5 518.5 c 128,-1,42
 778 447 778 447 778 337 c 0,43,44
 778 228 778 228 710 148.5 c 128,-1,45
 642 69 642 69 570 69 c 0,46,47
 503 69 503 69 483 146 c 1,48,49
 430 54 430 54 354 54 c 0,0,1
461 200 m 1,50,51
 465 223 465 223 471 276.5 c 128,-1,52
 477 330 477 330 479 344 c 1,53,54
 453 369 453 369 423 369 c 0,55,56
 385 369 385 369 360.5 328.5 c 128,-1,57
 336 288 336 288 336 221 c 0,58,59
 336 181 336 181 348 155.5 c 128,-1,60
 360 130 360 130 381 130 c 0,61,62
 419 130 419 130 461 200 c 1,50,51
EndSplineSet
EndChar

StartChar: A
Encoding: 65 65 36
Width: 573
GlyphClass: 2
Flags: W
LayerCount: 2
Fore
SplineSet
374 274 m 1,0,1
 359 315 359 315 344.5 359.5 c 128,-1,2
 330 404 330 404 314 455 c 128,-1,3
 298 506 298 506 292 525 c 1,4,5
 244 374 244 374 204 275 c 1,6,7
 268 273 268 273 302 273 c 0,8,9
 354 273 354 273 374 274 c 1,0,1
281 199 m 0,10,11
 255 199 255 199 173 201 c 1,12,13
 108 34 108 34 93 -21 c 1,14,15
 4 -11 4 -11 4 20 c 0,16,17
 4 34 4 34 46.5 133.5 c 128,-1,18
 89 233 89 233 150 387 c 128,-1,19
 211 541 211 541 246 660 c 1,20,21
 266 663 266 663 298 663 c 0,22,23
 324 663 324 663 338.5 652.5 c 128,-1,24
 353 642 353 642 364 610 c 0,25,26
 441 370 441 370 476 280 c 0,27,28
 551 85 551 85 589 10 c 1,29,30
 551 -10 551 -10 525 -10 c 0,31,32
 483 -10 483 -10 467 17 c 1,33,34
 455 48 455 48 433.5 108.5 c 128,-1,35
 412 169 412 169 400 201 c 1,36,37
 302 199 302 199 281 199 c 0,10,11
EndSplineSet
EndChar

StartChar: B
Encoding: 66 66 37
Width: 550
GlyphClass: 2
Flags: W
LayerCount: 2
Fore
SplineSet
230 596 m 0,0,1
 211 596 211 596 175 592 c 1,2,3
 179 516 179 516 179 389 c 1,4,5
 205 387 205 387 224 387 c 0,6,7
 374 387 374 387 374 490 c 0,8,9
 374 596 374 596 230 596 c 0,0,1
270 67 m 0,10,11
 324 67 324 67 361 100.5 c 128,-1,12
 398 134 398 134 398 192 c 0,13,14
 398 257 398 257 357.5 291 c 128,-1,15
 317 325 317 325 257 325 c 0,16,17
 203 325 203 325 178 320 c 1,18,19
 178 277 178 277 173.5 202 c 128,-1,20
 169 127 169 127 165 103 c 1,21,22
 181 88 181 88 211.5 77.5 c 128,-1,23
 242 67 242 67 270 67 c 0,10,11
59 53 m 1,24,25
 75 167 75 167 75 387 c 0,26,27
 75 573 75 573 62 661 c 1,28,29
 139 673 139 673 229 673 c 0,30,31
 343 673 343 673 415.5 633 c 128,-1,32
 488 593 488 593 488 501 c 0,33,34
 488 401 488 401 401 362 c 1,35,36
 512 315 512 315 512 191 c 0,37,38
 512 96 512 96 447.5 43 c 128,-1,39
 383 -10 383 -10 290 -10 c 0,40,41
 139 -10 139 -10 59 53 c 1,24,25
EndSplineSet
EndChar

StartChar: C
Encoding: 67 67 38
Width: 609
GlyphClass: 2
Flags: W
LayerCount: 2
Fore
SplineSet
517 155 m 1,0,1
 539 144 539 144 555 126.5 c 128,-1,2
 571 109 571 109 571 90 c 0,3,4
 571 49 571 49 512.5 19.5 c 128,-1,5
 454 -10 454 -10 365 -10 c 0,6,7
 219 -10 219 -10 130.5 84.5 c 128,-1,8
 42 179 42 179 42 332 c 0,9,10
 42 492 42 492 130.5 582.5 c 128,-1,11
 219 673 219 673 370 673 c 0,12,13
 451 673 451 673 506 641.5 c 128,-1,14
 561 610 561 610 561 564 c 0,15,16
 561 540 561 540 541.5 522 c 128,-1,17
 522 504 522 504 482 498 c 1,18,19
 467 545 467 545 428.5 569.5 c 128,-1,20
 390 594 390 594 348 594 c 0,21,22
 263 594 263 594 209.5 525 c 128,-1,23
 156 456 156 456 156 351 c 0,24,25
 156 230 156 230 210.5 149.5 c 128,-1,26
 265 69 265 69 364 69 c 0,27,28
 409 69 409 69 451 90.5 c 128,-1,29
 493 112 493 112 517 155 c 1,0,1
EndSplineSet
EndChar

StartChar: D
Encoding: 68 68 39
Width: 638
GlyphClass: 2
Flags: W
LayerCount: 2
Fore
SplineSet
56 53 m 1,0,1
 70 144 70 144 72 389 c 1,2,3
 72 564 72 564 59 661 c 1,4,5
 122 673 122 673 220 673 c 0,6,7
 301 673 301 673 365.5 656 c 128,-1,8
 430 639 430 639 483.5 601.5 c 128,-1,9
 537 564 537 564 566.5 496 c 128,-1,10
 596 428 596 428 596 333 c 0,11,12
 596 183 596 183 513 86.5 c 128,-1,13
 430 -10 430 -10 276 -10 c 0,14,15
 134 -10 134 -10 56 53 c 1,0,1
172 592 m 1,16,17
 176 527 176 527 176 439 c 0,18,19
 176 232 176 232 162 105 c 1,20,21
 210 70 210 70 281 70 c 0,22,23
 337 70 337 70 378 92.5 c 128,-1,24
 419 115 419 115 440.5 152.5 c 128,-1,25
 462 190 462 190 472 230.5 c 128,-1,26
 482 271 482 271 482 315 c 0,27,28
 482 455 482 455 416.5 525.5 c 128,-1,29
 351 596 351 596 229 596 c 0,30,31
 210 596 210 596 172 592 c 1,16,17
EndSplineSet
EndChar

StartChar: E
Encoding: 69 69 40
Width: 491
GlyphClass: 2
Flags: W
LayerCount: 2
Fore
SplineSet
171 583 m 1,0,1
 175 544 175 544 175 396 c 1,2,-1
 250 396 l 2,3,4
 330 396 330 396 364 400 c 1,5,6
 368 391 368 391 368 368 c 0,7,8
 368 340 368 340 358 329.5 c 128,-1,9
 348 319 348 319 326 318 c 0,10,11
 301 317 301 317 259 317 c 2,12,-1
 175 317 l 1,13,14
 175 118 175 118 182 78 c 1,15,16
 224 76 224 76 251 76 c 0,17,18
 411 76 411 76 458 98 c 1,19,20
 466 75 466 75 466 45 c 0,21,22
 466 22 466 22 457 13 c 1,23,24
 438 -2 438 -2 286 -2 c 0,25,26
 150 -2 150 -2 120 0 c 1,27,28
 89 1 89 1 78.5 13.5 c 128,-1,29
 68 26 68 26 68 57 c 0,30,31
 68 76 68 76 69 139 c 128,-1,32
 70 202 70 202 70 236 c 2,33,-1
 70 430 l 2,34,35
 70 570 70 570 56 657 c 1,36,37
 165 666 165 666 279 666 c 0,38,39
 427 666 427 666 446 651 c 1,40,41
 455 642 455 642 455 619 c 0,42,43
 455 589 455 589 447 565 c 1,44,45
 392 586 392 586 273 586 c 0,46,47
 225 586 225 586 171 583 c 1,0,1
EndSplineSet
EndChar

StartChar: F
Encoding: 70 70 41
Width: 455
GlyphClass: 2
Flags: W
LayerCount: 2
Fore
SplineSet
175 306 m 1,0,-1
 175 196 l 2,1,2
 175 63 175 63 194 0 c 1,3,4
 166 -10 166 -10 132 -10 c 0,5,6
 95 -10 95 -10 81.5 3 c 128,-1,7
 68 16 68 16 68 47 c 0,8,9
 68 63 68 63 69 126 c 128,-1,10
 70 189 70 189 70 224 c 2,11,-1
 70 432 l 2,12,13
 70 570 70 570 56 657 c 1,14,15
 165 666 165 666 279 666 c 0,16,17
 427 666 427 666 446 651 c 1,18,19
 455 642 455 642 455 619 c 0,20,21
 455 589 455 589 447 565 c 1,22,23
 392 586 392 586 273 586 c 0,24,25
 225 586 225 586 171 583 c 1,26,27
 175 552 175 552 175 449 c 2,28,-1
 175 385 l 1,29,-1
 250 385 l 2,30,31
 330 385 330 385 364 389 c 1,32,33
 368 380 368 380 368 357 c 0,34,35
 368 329 368 329 358 318.5 c 128,-1,36
 348 308 348 308 326 307 c 0,37,38
 301 306 301 306 259 306 c 2,39,-1
 175 306 l 1,0,-1
EndSplineSet
EndChar

StartChar: G
Encoding: 71 71 42
Width: 621
GlyphClass: 2
Flags: W
LayerCount: 2
Fore
SplineSet
571 85 m 0,0,1
 571 49 571 49 511.5 19.5 c 128,-1,2
 452 -10 452 -10 365 -10 c 0,3,4
 219 -10 219 -10 130.5 84.5 c 128,-1,5
 42 179 42 179 42 332 c 0,6,7
 42 492 42 492 130.5 582.5 c 128,-1,8
 219 673 219 673 370 673 c 0,9,10
 451 673 451 673 506 641.5 c 128,-1,11
 561 610 561 610 561 564 c 0,12,13
 561 511 561 511 482 498 c 1,14,15
 465 546 465 546 428 570 c 128,-1,16
 391 594 391 594 349 594 c 0,17,18
 264 594 264 594 210 524.5 c 128,-1,19
 156 455 156 455 156 351 c 0,20,21
 156 230 156 230 209 149.5 c 128,-1,22
 262 69 262 69 356 69 c 0,23,24
 425 69 425 69 469 101 c 1,25,26
 467 229 467 229 462 311 c 1,27,28
 485 314 485 314 511 314 c 0,29,30
 578 314 578 314 578 277 c 1,31,-1
 574 209 l 2,32,33
 571 141 571 141 571 85 c 0,0,1
EndSplineSet
EndChar

StartChar: H
Encoding: 72 72 43
Width: 628
GlyphClass: 2
Flags: W
LayerCount: 2
Fore
SplineSet
63 231 m 2,0,-1
 63 431 l 2,1,2
 63 570 63 570 56 661 c 1,3,4
 86 666 86 666 109 666 c 0,5,6
 176 666 176 666 176 628 c 0,7,8
 176 622 176 622 174 585.5 c 128,-1,9
 172 549 172 549 170 496 c 128,-1,10
 168 443 168 443 168 397 c 1,11,12
 222 396 222 396 310 396 c 128,-1,13
 398 396 398 396 448 397 c 1,14,-1
 448 431 l 2,15,16
 448 570 448 570 441 661 c 1,17,18
 471 666 471 666 494 666 c 0,19,20
 561 666 561 666 561 628 c 0,21,22
 561 622 561 622 559 587.5 c 128,-1,23
 557 553 557 553 555 501.5 c 128,-1,24
 553 450 553 450 553 404 c 2,25,-1
 553 203 l 2,26,27
 553 70 553 70 572 7 c 1,28,29
 544 -3 544 -3 510 -3 c 0,30,31
 473 -3 473 -3 459.5 10 c 128,-1,32
 446 23 446 23 446 54 c 0,33,34
 446 70 446 70 447 133 c 128,-1,35
 448 196 448 196 448 231 c 2,36,-1
 448 323 l 1,37,38
 397 322 397 322 307 322 c 0,39,40
 219 322 219 322 168 323 c 1,41,-1
 168 203 l 2,42,43
 168 70 168 70 187 7 c 1,44,45
 159 -3 159 -3 125 -3 c 0,46,47
 88 -3 88 -3 74.5 10 c 128,-1,48
 61 23 61 23 61 54 c 0,49,50
 61 70 61 70 62 133 c 128,-1,51
 63 196 63 196 63 231 c 2,0,-1
EndSplineSet
EndChar

StartChar: I
Encoding: 73 73 44
Width: 243
GlyphClass: 2
Flags: W
LayerCount: 2
Fore
SplineSet
63 231 m 2,0,-1
 63 431 l 2,1,2
 63 570 63 570 56 661 c 1,3,4
 86 666 86 666 109 666 c 0,5,6
 176 666 176 666 176 628 c 0,7,8
 176 622 176 622 174 587.5 c 128,-1,9
 172 553 172 553 170 501.5 c 128,-1,10
 168 450 168 450 168 404 c 2,11,-1
 168 203 l 2,12,13
 168 70 168 70 187 7 c 1,14,15
 159 -3 159 -3 125 -3 c 0,16,17
 88 -3 88 -3 74.5 10 c 128,-1,18
 61 23 61 23 61 54 c 0,19,20
 61 70 61 70 62 133 c 128,-1,21
 63 196 63 196 63 231 c 2,0,-1
EndSplineSet
EndChar

StartChar: J
Encoding: 74 74 45
Width: 243
GlyphClass: 2
Flags: W
LayerCount: 2
Fore
SplineSet
12 -119 m 0,0,1
 -32 -119 -32 -119 -32 -41 c 1,2,3
 -1 -34 -1 -34 18.5 -24.5 c 128,-1,4
 38 -15 38 -15 49.5 -4.5 c 128,-1,5
 61 6 61 6 66.5 26.5 c 128,-1,6
 72 47 72 47 73 65 c 128,-1,7
 74 83 74 83 74 118 c 2,8,-1
 74 431 l 2,9,10
 74 570 74 570 67 661 c 1,11,12
 97 666 97 666 122 666 c 0,13,14
 187 666 187 666 187 628 c 0,15,16
 187 623 187 623 185 591 c 128,-1,17
 183 559 183 559 181 511.5 c 128,-1,18
 179 464 179 464 179 421 c 2,19,-1
 179 111 l 2,20,21
 179 47 179 47 161 -1 c 128,-1,22
 143 -49 143 -49 115 -73 c 128,-1,23
 87 -97 87 -97 61 -108 c 128,-1,24
 35 -119 35 -119 12 -119 c 0,0,1
EndSplineSet
EndChar

StartChar: K
Encoding: 75 75 46
Width: 525
GlyphClass: 2
Flags: W
LayerCount: 2
Fore
SplineSet
63 231 m 2,0,-1
 63 431 l 2,1,2
 63 570 63 570 56 661 c 1,3,4
 86 666 86 666 109 666 c 0,5,6
 176 666 176 666 176 628 c 0,7,8
 176 623 176 623 174 592.5 c 128,-1,9
 172 562 172 562 170 509 c 128,-1,10
 168 456 168 456 168 397 c 1,11,12
 237 450 237 450 313 529 c 128,-1,13
 389 608 389 608 418 665 c 1,14,15
 447 656 447 656 462 645 c 128,-1,16
 477 634 477 634 477 613 c 0,17,18
 477 598 477 598 461.5 574.5 c 128,-1,19
 446 551 446 551 407.5 513 c 128,-1,20
 369 475 369 475 341.5 449.5 c 128,-1,21
 314 424 314 424 254 370 c 1,22,23
 267 347 267 347 291 304.5 c 128,-1,24
 315 262 315 262 327.5 240 c 128,-1,25
 340 218 340 218 360.5 185 c 128,-1,26
 381 152 381 152 394.5 135.5 c 128,-1,27
 408 119 408 119 425 100.5 c 128,-1,28
 442 82 442 82 457.5 74.5 c 128,-1,29
 473 67 473 67 489 67 c 0,30,31
 504 67 504 67 516 70 c 1,32,33
 525 52 525 52 525 38 c 0,34,35
 525 15 525 15 504.5 2.5 c 128,-1,36
 484 -10 484 -10 449 -10 c 0,37,38
 402 -10 402 -10 359 30.5 c 128,-1,39
 316 71 316 71 287 118 c 128,-1,40
 258 165 258 165 190 292 c 0,41,42
 188 296 188 296 186.5 298 c 128,-1,43
 185 300 185 300 183.5 303.5 c 128,-1,44
 182 307 182 307 180 310 c 1,45,-1
 168 301 l 1,46,-1
 168 203 l 2,47,48
 168 70 168 70 187 7 c 1,49,50
 159 -3 159 -3 125 -3 c 0,51,52
 88 -3 88 -3 74.5 10 c 128,-1,53
 61 23 61 23 61 54 c 0,54,55
 61 70 61 70 62 133 c 128,-1,56
 63 196 63 196 63 231 c 2,0,-1
EndSplineSet
EndChar

StartChar: L
Encoding: 76 76 47
Width: 440
GlyphClass: 2
Flags: W
LayerCount: 2
Fore
SplineSet
63 224 m 2,0,-1
 63 431 l 2,1,2
 63 572 63 572 56 663 c 1,3,4
 79 666 79 666 111 666 c 0,5,6
 176 666 176 666 176 628 c 0,7,8
 176 622 176 622 174 587.5 c 128,-1,9
 172 553 172 553 170 501.5 c 128,-1,10
 168 450 168 450 168 404 c 2,11,-1
 168 318 l 2,12,13
 168 120 168 120 175 78 c 1,14,15
 215 76 215 76 239 76 c 0,16,17
 386 76 386 76 429 99 c 1,18,19
 440 77 440 77 440 50 c 0,20,21
 440 17 440 17 414.5 7.5 c 128,-1,22
 389 -2 389 -2 330 -2 c 2,23,-1
 243 -2 l 2,24,25
 154 -2 154 -2 110 0 c 0,26,27
 82 1 82 1 71.5 14 c 128,-1,28
 61 27 61 27 61 57 c 0,29,30
 61 73 61 73 62 131 c 128,-1,31
 63 189 63 189 63 224 c 2,0,-1
EndSplineSet
EndChar

StartChar: M
Encoding: 77 77 48
Width: 792
GlyphClass: 2
Flags: W
LayerCount: 2
Fore
SplineSet
717 436 m 2,0,-1
 717 203 l 2,1,2
 717 68 717 68 736 5 c 1,3,4
 722 -3 722 -3 682 -3 c 0,5,6
 641 -3 641 -3 627 10 c 128,-1,7
 613 23 613 23 613 54 c 2,8,-1
 613 504 l 1,9,10
 547 340 547 340 445 2 c 1,11,12
 429 -2 429 -2 408 -2 c 0,13,14
 356 -2 356 -2 344 24 c 0,15,16
 314 90 314 90 255 260.5 c 128,-1,17
 196 431 196 431 166 506 c 1,18,-1
 166 203 l 2,19,20
 166 68 166 68 185 5 c 1,21,22
 158 -3 158 -3 133 -3 c 0,23,24
 98 -3 98 -3 85.5 10 c 128,-1,25
 73 23 73 23 73 54 c 0,26,27
 73 70 73 70 74 133 c 128,-1,28
 75 196 75 196 75 231 c 2,29,-1
 75 483 l 2,30,31
 75 595 75 595 56 659 c 1,32,33
 96 667 96 667 127 667 c 0,34,35
 184 667 184 667 214 619 c 0,36,37
 252 558 252 558 288.5 466.5 c 128,-1,38
 325 375 325 375 344.5 312 c 128,-1,39
 364 249 364 249 399 131 c 1,40,41
 483 447 483 447 585 621 c 0,42,43
 611 667 611 667 670 667 c 0,44,45
 709 667 709 667 735 659 c 1,46,47
 717 599 717 599 717 436 c 2,0,-1
EndSplineSet
EndChar

StartChar: N
Encoding: 78 78 49
Width: 618
GlyphClass: 2
Flags: W
LayerCount: 2
Fore
SplineSet
560 1 m 1,0,1
 540 -3 540 -3 516 -3 c 0,2,3
 466 -3 466 -3 449 24 c 0,4,5
 402 100 402 100 305.5 269 c 128,-1,6
 209 438 209 438 160 517 c 1,7,-1
 165 256 l 2,8,9
 168 54 168 54 185 5 c 1,10,11
 163 -3 163 -3 137 -3 c 0,12,13
 100 -3 100 -3 86.5 10 c 128,-1,14
 73 23 73 23 73 54 c 0,15,16
 73 70 73 70 74 133 c 128,-1,17
 75 196 75 196 75 231 c 2,18,-1
 75 431 l 2,19,20
 75 598 75 598 56 659 c 1,21,22
 81 667 81 667 117 667 c 0,23,24
 163 667 163 667 189 638 c 0,25,26
 235 587 235 587 327 435.5 c 128,-1,27
 419 284 419 284 470 178 c 1,28,29
 462 292 462 292 462 420 c 0,30,31
 462 569 462 569 455 663 c 1,32,33
 478 666 478 666 496 666 c 0,34,35
 562 666 562 666 562 628 c 0,36,37
 562 622 562 622 560 587.5 c 128,-1,38
 558 553 558 553 555.5 501.5 c 128,-1,39
 553 450 553 450 553 404 c 2,40,-1
 553 233 l 2,41,42
 553 92 553 92 560 1 c 1,0,1
EndSplineSet
EndChar

StartChar: O
Encoding: 79 79 50
Width: 716
GlyphClass: 2
Flags: W
LayerCount: 2
Fore
SplineSet
357 -10 m 0,0,1
 213 -10 213 -10 127.5 83 c 128,-1,2
 42 176 42 176 42 331 c 0,3,4
 42 488 42 488 127.5 580.5 c 128,-1,5
 213 673 213 673 357 673 c 0,6,7
 503 673 503 673 589 580.5 c 128,-1,8
 675 488 675 488 675 331 c 0,9,10
 675 176 675 176 588.5 83 c 128,-1,11
 502 -10 502 -10 357 -10 c 0,0,1
561 314 m 0,12,13
 561 386 561 386 542.5 446.5 c 128,-1,14
 524 507 524 507 476.5 550.5 c 128,-1,15
 429 594 429 594 359 594 c 0,16,17
 266 594 266 594 211 528.5 c 128,-1,18
 156 463 156 463 156 360 c 0,19,20
 156 285 156 285 174.5 222 c 128,-1,21
 193 159 193 159 240.5 114 c 128,-1,22
 288 69 288 69 358 69 c 0,23,24
 455 69 455 69 508 137 c 128,-1,25
 561 205 561 205 561 314 c 0,12,13
EndSplineSet
EndChar

StartChar: P
Encoding: 80 80 51
Width: 510
GlyphClass: 2
Flags: W
LayerCount: 2
Fore
SplineSet
258 312 m 0,0,1
 315 312 315 312 347 348.5 c 128,-1,2
 379 385 379 385 379 447 c 0,3,4
 379 532 379 532 343 564 c 128,-1,5
 307 596 307 596 231 596 c 0,6,7
 210 596 210 596 170 592 c 1,8,9
 174 538 174 538 174 406 c 2,10,-1
 174 329 l 1,11,12
 207 312 207 312 258 312 c 0,0,1
69 231 m 2,13,-1
 69 431 l 2,14,15
 69 569 69 569 56 661 c 1,16,17
 133 673 133 673 212 673 c 0,18,19
 493 673 493 673 493 452 c 0,20,21
 493 345 493 345 432.5 289 c 128,-1,22
 372 233 372 233 290 233 c 0,23,24
 223 233 223 233 174 265 c 1,25,-1
 174 196 l 2,26,27
 174 66 174 66 193 5 c 1,28,29
 169 -3 169 -3 132 -3 c 0,30,31
 93 -3 93 -3 80 10 c 128,-1,32
 67 23 67 23 67 54 c 0,33,34
 67 70 67 70 68 133 c 128,-1,35
 69 196 69 196 69 231 c 2,13,-1
EndSplineSet
EndChar

StartChar: Q
Encoding: 81 81 52
Width: 712
GlyphClass: 2
Flags: W
LayerCount: 2
Fore
SplineSet
559 314 m 0,0,1
 559 386 559 386 540.5 446.5 c 128,-1,2
 522 507 522 507 474.5 550.5 c 128,-1,3
 427 594 427 594 357 594 c 0,4,5
 264 594 264 594 209 528.5 c 128,-1,6
 154 463 154 463 154 360 c 0,7,8
 154 285 154 285 172.5 222 c 128,-1,9
 191 159 191 159 238.5 114 c 128,-1,10
 286 69 286 69 356 69 c 0,11,12
 453 69 453 69 506 137 c 128,-1,13
 559 205 559 205 559 314 c 0,0,1
311 -9 m 1,14,15
 186 5 186 5 114 95 c 128,-1,16
 42 185 42 185 42 331 c 0,17,18
 42 489 42 489 126 581 c 128,-1,19
 210 673 210 673 356 673 c 128,-1,20
 502 673 502 673 586.5 581 c 128,-1,21
 671 489 671 489 671 331 c 0,22,23
 671 185 671 185 596.5 94 c 128,-1,24
 522 3 522 3 395 -8 c 1,25,26
 406 -48 406 -48 436.5 -72 c 128,-1,27
 467 -96 467 -96 505 -96 c 0,28,29
 535 -96 535 -96 564.5 -79 c 128,-1,30
 594 -62 594 -62 613 -40 c 1,31,32
 650 -70 650 -70 650 -111 c 0,33,34
 650 -147 650 -147 613 -165.5 c 128,-1,35
 576 -184 576 -184 515 -184 c 0,36,37
 482 -184 482 -184 451.5 -175 c 128,-1,38
 421 -166 421 -166 392 -147 c 128,-1,39
 363 -128 363 -128 341.5 -92.5 c 128,-1,40
 320 -57 320 -57 311 -9 c 1,14,15
EndSplineSet
EndChar

StartChar: R
Encoding: 82 82 53
Width: 539
GlyphClass: 2
Flags: W
LayerCount: 2
Fore
SplineSet
450 95 m 1,0,1
 473 67 473 67 503 67 c 0,2,3
 514 67 514 67 526 70 c 1,4,5
 535 49 535 49 535 35 c 0,6,7
 535 12 535 12 510.5 1 c 128,-1,8
 486 -10 486 -10 451 -10 c 0,9,10
 393 -10 393 -10 348 47 c 0,11,12
 317 86 317 86 283 154.5 c 128,-1,13
 249 223 249 223 230 274 c 1,14,15
 207 283 207 283 207 306 c 0,16,17
 207 325 207 325 215 345 c 1,18,19
 231 341 231 341 252 341 c 0,20,21
 306 341 306 341 342.5 373.5 c 128,-1,22
 379 406 379 406 379 470 c 0,23,24
 379 541 379 541 344 568.5 c 128,-1,25
 309 596 309 596 235 596 c 0,26,27
 208 596 208 596 170 592 c 1,28,29
 174 536 174 536 174 393 c 2,30,-1
 174 198 l 2,31,32
 174 66 174 66 193 5 c 1,33,34
 171 -3 171 -3 131 -3 c 0,35,36
 94 -3 94 -3 80.5 10 c 128,-1,37
 67 23 67 23 67 54 c 0,38,39
 67 70 67 70 68 133 c 128,-1,40
 69 196 69 196 69 231 c 2,41,-1
 69 431 l 2,42,43
 69 569 69 569 56 661 c 1,44,45
 133 673 133 673 213 673 c 0,46,47
 494 673 494 673 494 470 c 0,48,49
 494 393 494 393 452.5 342.5 c 128,-1,50
 411 292 411 292 343 274 c 1,51,52
 408 135 408 135 450 95 c 1,0,1
EndSplineSet
EndChar

StartChar: S
Encoding: 83 83 54
Width: 529
GlyphClass: 2
Flags: W
LayerCount: 2
Fore
SplineSet
408 508 m 1,0,1
 393 546 393 546 352 571 c 128,-1,2
 311 596 311 596 267 596 c 0,3,4
 216 596 216 596 181.5 571 c 128,-1,5
 147 546 147 546 147 497 c 0,6,7
 147 467 147 467 166 446.5 c 128,-1,8
 185 426 185 426 215.5 414.5 c 128,-1,9
 246 403 246 403 282.5 393 c 128,-1,10
 319 383 319 383 355.5 370 c 128,-1,11
 392 357 392 357 422.5 339 c 128,-1,12
 453 321 453 321 472 287 c 128,-1,13
 491 253 491 253 491 206 c 0,14,15
 491 147 491 147 471 103.5 c 128,-1,16
 451 60 451 60 415.5 36 c 128,-1,17
 380 12 380 12 339 1 c 128,-1,18
 298 -10 298 -10 250 -10 c 0,19,20
 167 -10 167 -10 102.5 20 c 128,-1,21
 38 50 38 50 38 91 c 128,-1,22
 38 132 38 132 96 159 c 1,23,24
 116 121 116 121 165 95 c 128,-1,25
 214 69 214 69 264 69 c 0,26,27
 322 69 322 69 360.5 95.5 c 128,-1,28
 399 122 399 122 399 176 c 0,29,30
 399 208 399 208 373.5 230 c 128,-1,31
 348 252 348 252 310 263 c 128,-1,32
 272 274 272 274 227 290.5 c 128,-1,33
 182 307 182 307 144 326.5 c 128,-1,34
 106 346 106 346 80.5 387 c 128,-1,35
 55 428 55 428 55 486 c 0,36,37
 55 575 55 575 122 624 c 128,-1,38
 189 673 189 673 288 673 c 0,39,40
 330 673 330 673 372 662.5 c 128,-1,41
 414 652 414 652 445 628.5 c 128,-1,42
 476 605 476 605 476 574 c 0,43,44
 476 522 476 522 408 508 c 1,0,1
EndSplineSet
EndChar

StartChar: T
Encoding: 84 84 55
Width: 485
GlyphClass: 2
Flags: W
LayerCount: 2
Fore
SplineSet
192 231 m 2,0,-1
 192 431 l 2,1,2
 192 487 192 487 190 581 c 1,3,4
 48 581 48 581 3 577 c 1,5,6
 0 589 0 589 0 613 c 0,7,8
 0 640 0 640 10.5 649.5 c 128,-1,9
 21 659 21 659 44 660 c 0,10,11
 69 661 69 661 161 661 c 2,12,-1
 279 661 l 2,13,14
 447 661 447 661 482 664 c 1,15,16
 485 652 485 652 485 629 c 0,17,18
 485 602 485 602 474.5 592.5 c 128,-1,19
 464 583 464 583 441 582 c 0,20,21
 413 581 413 581 302 581 c 1,22,23
 297 473 297 473 297 404 c 2,24,-1
 297 203 l 2,25,26
 297 70 297 70 316 7 c 1,27,28
 288 -3 288 -3 254 -3 c 0,29,30
 217 -3 217 -3 203.5 10 c 128,-1,31
 190 23 190 23 190 54 c 0,32,33
 190 70 190 70 191 133 c 128,-1,34
 192 196 192 196 192 231 c 2,0,-1
EndSplineSet
EndChar

StartChar: U
Encoding: 85 85 56
Width: 643
GlyphClass: 2
Flags: W
LayerCount: 2
Fore
SplineSet
61 658 m 1,0,1
 87 666 87 666 120 666 c 0,2,3
 158 666 158 666 175.5 654.5 c 128,-1,4
 193 643 193 643 193 615 c 0,5,6
 193 574 193 574 185.5 431.5 c 128,-1,7
 178 289 178 289 178 210 c 0,8,9
 178 142 178 142 213 109.5 c 128,-1,10
 248 77 248 77 295 77 c 0,11,12
 338 77 338 77 385.5 99 c 128,-1,13
 433 121 433 121 462 152 c 1,14,15
 462 159 462 159 462 183.5 c 128,-1,16
 462 208 462 208 462.5 270.5 c 128,-1,17
 463 333 463 333 463 431 c 0,18,19
 463 571 463 571 456 662 c 1,20,21
 487 666 487 666 511 666 c 0,22,23
 576 666 576 666 576 628 c 0,24,25
 576 626 576 626 574 591 c 128,-1,26
 572 556 572 556 570 481.5 c 128,-1,27
 568 407 568 407 568 309 c 0,28,29
 568 154 568 154 571 101.5 c 128,-1,30
 574 49 574 49 587 5 c 1,31,32
 565 -3 565 -3 525 -3 c 0,33,34
 489 -3 489 -3 475 9.5 c 128,-1,35
 461 22 461 22 461 56 c 2,36,-1
 461 75 l 1,37,38
 422 37 422 37 367.5 13.5 c 128,-1,39
 313 -10 313 -10 267 -10 c 0,40,41
 176 -10 176 -10 122.5 34.5 c 128,-1,42
 69 79 69 79 69 192 c 0,43,44
 69 251 69 251 73.5 352 c 128,-1,45
 78 453 78 453 78 501 c 0,46,47
 78 596 78 596 61 658 c 1,0,1
EndSplineSet
EndChar

StartChar: V
Encoding: 86 86 57
Width: 578
GlyphClass: 2
Flags: W
LayerCount: 2
Fore
SplineSet
457 666 m 1,0,1
 484 673 484 673 512 673 c 0,2,3
 544 673 544 673 557 662 c 128,-1,4
 570 651 570 651 570 624 c 0,5,6
 570 514 570 514 500 329.5 c 128,-1,7
 430 145 430 145 357 52 c 0,8,9
 331 19 331 19 310.5 8 c 128,-1,10
 290 -3 290 -3 261 -3 c 0,11,12
 235 -3 235 -3 222 0 c 1,13,14
 190 161 190 161 113.5 368 c 128,-1,15
 37 575 37 575 -17 628 c 1,16,17
 36 667 36 667 72 667 c 128,-1,18
 108 667 108 667 127 630 c 0,19,20
 167 548 167 548 217.5 397 c 128,-1,21
 268 246 268 246 300 120 c 1,22,23
 366 216 366 216 413.5 363 c 128,-1,24
 461 510 461 510 461 617 c 0,25,26
 461 652 461 652 457 666 c 1,0,1
EndSplineSet
EndChar

StartChar: W
Encoding: 87 87 58
Width: 948
GlyphClass: 2
Flags: W
LayerCount: 2
Fore
SplineSet
818 666 m 1,0,1
 845 673 845 673 873 673 c 0,2,3
 905 673 905 673 918 662 c 128,-1,4
 931 651 931 651 931 624 c 0,5,6
 931 514 931 514 865 329.5 c 128,-1,7
 799 145 799 145 730 52 c 0,8,9
 706 19 706 19 686 8 c 128,-1,10
 666 -3 666 -3 639 -3 c 0,11,12
 615 -3 615 -3 603 0 c 1,13,14
 569 177 569 177 491 391 c 1,15,16
 460 292 460 292 418 198.5 c 128,-1,17
 376 105 376 105 336 52 c 0,18,19
 312 19 312 19 292 8 c 128,-1,20
 272 -3 272 -3 245 -3 c 0,21,22
 221 -3 221 -3 209 0 c 1,23,24
 179 161 179 161 106.5 368 c 128,-1,25
 34 575 34 575 -17 628 c 1,26,27
 36 667 36 667 72 667 c 0,28,29
 111 667 111 667 127 630 c 0,30,31
 164 544 164 544 209 395 c 128,-1,32
 254 246 254 246 283 120 c 1,33,34
 343 216 343 216 385.5 363 c 128,-1,35
 428 510 428 510 428 617 c 0,36,37
 428 652 428 652 424 666 c 1,38,39
 451 673 451 673 479 673 c 0,40,41
 511 673 511 673 524 662 c 128,-1,42
 537 651 537 651 537 624 c 0,43,44
 537 615 537 615 535 595 c 1,45,46
 613 396 613 396 677 120 c 1,47,48
 737 216 737 216 779.5 363 c 128,-1,49
 822 510 822 510 822 617 c 0,50,51
 822 652 822 652 818 666 c 1,0,1
EndSplineSet
EndChar

StartChar: X
Encoding: 88 88 59
Width: 605
GlyphClass: 2
Flags: W
LayerCount: 2
Fore
SplineSet
21 44 m 0,0,1
 21 112 21 112 250 343 c 1,2,3
 238 360 238 360 198 417.5 c 128,-1,4
 158 475 158 475 137.5 503 c 128,-1,5
 117 531 117 531 86 568 c 128,-1,6
 55 605 55 605 33 624 c 1,7,8
 68 656 68 656 85.5 664.5 c 128,-1,9
 103 673 103 673 122 673 c 0,10,11
 156 673 156 673 185 637 c 0,12,13
 205 612 205 612 246.5 545 c 128,-1,14
 288 478 288 478 317 423 c 1,15,16
 358 478 358 478 395.5 547.5 c 128,-1,17
 433 617 433 617 446 672 c 1,18,19
 552 666 552 666 552 617 c 0,20,21
 552 578 552 578 492 499 c 128,-1,22
 432 420 432 420 359 350 c 1,23,24
 415 267 415 267 448 219 c 128,-1,25
 481 171 481 171 526.5 114 c 128,-1,26
 572 57 572 57 599 38 c 1,27,28
 556 -10 556 -10 513 -10 c 0,29,30
 471 -10 471 -10 444 29 c 1,31,32
 359 143 359 143 292 270 c 1,33,34
 156 96 156 96 126 -10 c 1,35,36
 21 -6 21 -6 21 44 c 0,0,1
EndSplineSet
EndChar

StartChar: Y
Encoding: 89 89 60
Width: 507
GlyphClass: 2
Flags: W
LayerCount: 2
Fore
SplineSet
503 616 m 0,0,1
 503 581 503 581 438.5 483 c 128,-1,2
 374 385 374 385 310 307 c 1,3,-1
 310 203 l 2,4,5
 310 70 310 70 329 7 c 1,6,7
 301 -3 301 -3 267 -3 c 0,8,9
 230 -3 230 -3 216.5 10 c 128,-1,10
 203 23 203 23 203 54 c 0,11,12
 203 70 203 70 204 133 c 128,-1,13
 205 196 205 196 205 231 c 2,14,-1
 205 303 l 1,15,16
 64 565 64 565 -9 614 c 1,17,18
 7 635 7 635 32 651 c 128,-1,19
 57 667 57 667 80 667 c 0,20,21
 115 667 115 667 139 633 c 0,22,23
 213 524 213 524 277 386 c 1,24,25
 323 457 323 457 363 547 c 128,-1,26
 403 637 403 637 408 672 c 1,27,28
 503 668 503 668 503 616 c 0,0,1
EndSplineSet
EndChar

StartChar: Z
Encoding: 90 90 61
Width: 564
GlyphClass: 2
Flags: W
LayerCount: 2
Fore
SplineSet
531 648 m 1,0,1
 547 630 547 630 547 608 c 0,2,3
 547 584 547 584 530 562 c 2,4,-1
 135 68 l 1,5,6
 150 67 150 67 192 67 c 0,7,8
 387 67 387 67 514 106 c 1,9,10
 526 70 526 70 526 50 c 0,11,12
 526 31 526 31 515.5 20.5 c 128,-1,13
 505 10 505 10 491.5 6.5 c 128,-1,14
 478 3 478 3 452 0 c 0,15,16
 389 -6 389 -6 285 -6 c 0,17,18
 136 -6 136 -6 40 6 c 1,19,20
 22 30 22 30 22 56 c 0,21,22
 22 88 22 88 47 119 c 2,23,-1
 414 588 l 1,24,25
 375 591 375 591 318 591 c 0,26,27
 173 591 173 591 61 564 c 1,28,29
 51 592 51 592 51 614 c 0,30,31
 51 647 51 647 80 657 c 1,32,33
 123 667 123 667 210 667 c 0,34,35
 391 667 391 667 531 648 c 1,0,1
EndSplineSet
EndChar

StartChar: bracketleft
Encoding: 91 91 62
Width: 380
GlyphClass: 2
Flags: W
LayerCount: 2
Fore
SplineSet
225 648 m 1,0,-1
 225 -118 l 1,1,2
 254 -117 254 -117 286 -117 c 0,3,4
 319 -117 319 -117 332.5 -127.5 c 128,-1,5
 346 -138 346 -138 346 -159 c 0,6,7
 346 -170 346 -170 339 -190 c 1,8,-1
 127 -190 l 1,9,-1
 127 720 l 1,10,-1
 338 720 l 1,11,12
 346 704 346 704 346 689 c 0,13,14
 346 665 346 665 331.5 656 c 128,-1,15
 317 647 317 647 286 647 c 0,16,17
 247 647 247 647 225 648 c 1,0,-1
EndSplineSet
EndChar

StartChar: backslash
Encoding: 92 92 63
Width: 263
GlyphClass: 2
Flags: W
LayerCount: 2
Fore
SplineSet
155 -115 m 1,0,1
 150 -45 150 -45 124 116 c 0,2,3
 83 380 83 380 46 611 c 0,4,5
 30 710 30 710 30 714 c 0,6,7
 30 742 30 742 71 742 c 0,8,9
 87 742 87 742 102 737 c 1,10,11
 114 621 114 621 133 506 c 1,12,13
 155 365 155 365 174 247.5 c 128,-1,14
 193 130 193 130 202 73 c 128,-1,15
 211 16 211 16 217.5 -24.5 c 128,-1,16
 224 -65 224 -65 226 -76.5 c 128,-1,17
 228 -88 228 -88 228 -90 c 0,18,19
 228 -118 228 -118 188 -118 c 0,20,21
 172 -118 172 -118 155 -115 c 1,0,1
EndSplineSet
EndChar

StartChar: bracketright
Encoding: 93 93 64
Width: 354
GlyphClass: 2
Flags: W
LayerCount: 2
Fore
SplineSet
146 -118 m 1,0,-1
 146 648 l 1,1,2
 124 647 124 647 85 647 c 0,3,4
 54 647 54 647 39.5 656 c 128,-1,5
 25 665 25 665 25 689 c 0,6,7
 25 704 25 704 33 720 c 1,8,-1
 244 720 l 1,9,-1
 244 -190 l 1,10,-1
 32 -190 l 1,11,12
 25 -170 25 -170 25 -159 c 0,13,14
 25 -138 25 -138 38.5 -127.5 c 128,-1,15
 52 -117 52 -117 85 -117 c 0,16,17
 117 -117 117 -117 146 -118 c 1,0,-1
EndSplineSet
EndChar

StartChar: asciicircum
Encoding: 94 94 65
Width: 488
GlyphClass: 2
Flags: W
LayerCount: 2
Fore
SplineSet
424 408 m 0,0,1
 386 408 386 408 244 558 c 1,2,3
 193 504 193 504 139.5 456 c 128,-1,4
 86 408 86 408 65 408 c 128,-1,5
 44 408 44 408 21 431 c 1,6,7
 44 470 44 470 119.5 553.5 c 128,-1,8
 195 637 195 637 244 685 c 1,9,10
 291 639 291 639 367 554.5 c 128,-1,11
 443 470 443 470 467 431 c 1,12,13
 442 408 442 408 424 408 c 0,0,1
EndSplineSet
EndChar

StartChar: underscore
Encoding: 95 95 66
Width: 535
GlyphClass: 2
Flags: W
LayerCount: 2
Fore
SplineSet
535 -110 m 0,0,1
 535 -128 535 -128 525 -140 c 128,-1,2
 515 -152 515 -152 499 -152 c 0,3,4
 484 -152 484 -152 430 -148 c 128,-1,5
 376 -144 376 -144 348 -144 c 2,6,-1
 205 -144 l 2,7,8
 91 -144 91 -144 3 -152 c 1,9,10
 0 -137 0 -137 0 -122 c 0,11,12
 0 -106 0 -106 9 -93 c 128,-1,13
 18 -80 18 -80 36 -80 c 0,14,15
 39 -80 39 -80 99 -83.5 c 128,-1,16
 159 -87 159 -87 203 -87 c 2,17,-1
 345 -87 l 2,18,19
 472 -87 472 -87 532 -80 c 1,20,21
 535 -89 535 -89 535 -110 c 0,0,1
EndSplineSet
EndChar

StartChar: grave
Encoding: 96 96 67
Width: 228
GlyphClass: 2
Flags: W
LayerCount: 2
Fore
SplineSet
9 722 m 1,0,1
 49 679 49 679 93 646 c 128,-1,2
 137 613 137 613 156.5 598 c 128,-1,3
 176 583 176 583 176 567 c 0,4,5
 176 544 176 544 144 523 c 1,6,7
 113 546 113 546 61.5 573.5 c 128,-1,8
 10 601 10 601 -16.5 620.5 c 128,-1,9
 -43 640 -43 640 -43 661 c 0,10,11
 -43 696 -43 696 9 722 c 1,0,1
EndSplineSet
EndChar

StartChar: a
Encoding: 97 97 68
Width: 478
GlyphClass: 2
Flags: W
LayerCount: 2
Fore
SplineSet
303 143 m 0,0,1
 303 189 303 189 305 214 c 1,2,3
 275 210 275 210 261.5 208 c 128,-1,4
 248 206 248 206 225 202 c 128,-1,5
 202 198 202 198 191.5 193 c 128,-1,6
 181 188 181 188 169 181 c 128,-1,7
 157 174 157 174 152 163.5 c 128,-1,8
 147 153 147 153 147 139 c 0,9,10
 147 99 147 99 167 80 c 128,-1,11
 187 61 187 61 218 61 c 0,12,13
 269 61 269 61 305 99 c 1,14,15
 303 112 303 112 303 143 c 0,0,1
307 275 m 1,16,17
 307 309 307 309 305.5 327 c 128,-1,18
 304 345 304 345 297.5 368 c 128,-1,19
 291 391 291 391 275.5 401.5 c 128,-1,20
 260 412 260 412 234 412 c 0,21,22
 201 412 201 412 171.5 390.5 c 128,-1,23
 142 369 142 369 129 331 c 1,24,25
 40 332 40 332 40 384 c 0,26,27
 40 427 40 427 100.5 456 c 128,-1,28
 161 485 161 485 238 485 c 0,29,30
 330 485 330 485 372.5 447 c 128,-1,31
 415 409 415 409 415 311 c 0,32,33
 415 308 415 308 414 264 c 128,-1,34
 413 220 413 220 413 178 c 0,35,36
 413 64 413 64 432 7 c 1,37,38
 403 -4 403 -4 375 -4 c 0,39,40
 319 -4 319 -4 308 42 c 1,41,42
 248 -10 248 -10 173 -10 c 0,43,44
 115 -10 115 -10 76.5 26 c 128,-1,45
 38 62 38 62 38 132 c 0,46,47
 38 188 38 188 62 215 c 128,-1,48
 86 242 86 242 126 255 c 0,49,50
 186 274 186 274 307 275 c 1,16,17
EndSplineSet
EndChar

StartChar: b
Encoding: 98 98 69
Width: 522
GlyphClass: 2
Flags: W
LayerCount: 2
Fore
SplineSet
380 248 m 0,0,1
 380 331 380 331 350.5 371.5 c 128,-1,2
 321 412 321 412 277 412 c 0,3,4
 219 412 219 412 169 362 c 1,5,6
 170 302 170 302 170 229 c 0,7,8
 170 161 170 161 167 112 c 1,9,10
 215 64 215 64 273 64 c 0,11,12
 327 64 327 64 353.5 118 c 128,-1,13
 380 172 380 172 380 248 c 0,0,1
313 485 m 0,14,15
 391 485 391 485 440 426.5 c 128,-1,16
 489 368 489 368 489 251 c 0,17,18
 489 141 489 141 431 65.5 c 128,-1,19
 373 -10 373 -10 264 -10 c 0,20,21
 145 -10 145 -10 60 60 c 1,22,23
 67 119 67 119 67 273 c 0,24,25
 67 362 67 362 62 531.5 c 128,-1,26
 57 701 57 701 51 739 c 1,27,28
 70 743 70 743 104 743 c 0,29,30
 174 743 174 743 174 689 c 0,31,32
 174 677 174 677 171 602 c 128,-1,33
 168 527 168 527 168 433 c 1,34,35
 232 485 232 485 313 485 c 0,14,15
EndSplineSet
EndChar

StartChar: c
Encoding: 99 99 70
Width: 464
GlyphClass: 2
Flags: W
LayerCount: 2
Fore
SplineSet
283 62 m 0,0,1
 310 62 310 62 339 76 c 128,-1,2
 368 90 368 90 382 116 c 1,3,4
 431 90 431 90 431 60 c 0,5,6
 431 26 431 26 384 8 c 128,-1,7
 337 -10 337 -10 279 -10 c 0,8,9
 236 -10 236 -10 194.5 4.5 c 128,-1,10
 153 19 153 19 117 47 c 128,-1,11
 81 75 81 75 59.5 123 c 128,-1,12
 38 171 38 171 38 233 c 0,13,14
 38 357 38 357 110 421 c 128,-1,15
 182 485 182 485 274 485 c 0,16,17
 330 485 330 485 380.5 458.5 c 128,-1,18
 431 432 431 432 431 385 c 0,19,20
 431 364 431 364 410 351 c 128,-1,21
 389 338 389 338 353 334 c 1,22,23
 345 370 345 370 317 390 c 128,-1,24
 289 410 289 410 260 410 c 0,25,26
 212 410 212 410 180 364 c 128,-1,27
 148 318 148 318 148 244 c 0,28,29
 148 149 148 149 185.5 105.5 c 128,-1,30
 223 62 223 62 283 62 c 0,0,1
EndSplineSet
EndChar

StartChar: d
Encoding: 100 100 71
Width: 529
GlyphClass: 2
Flags: W
LayerCount: 2
Fore
SplineSet
266 64 m 0,0,1
 313 64 313 64 357 108 c 1,2,3
 355 292 355 292 355 391 c 1,4,5
 313 412 313 412 271 412 c 0,6,7
 214 412 214 412 180.5 368 c 128,-1,8
 147 324 147 324 147 253 c 0,9,10
 147 169 147 169 181.5 116.5 c 128,-1,11
 216 64 216 64 266 64 c 0,0,1
38 238 m 0,12,13
 38 349 38 349 99.5 417 c 128,-1,14
 161 485 161 485 249 485 c 0,15,16
 307 485 307 485 357 457 c 1,17,18
 357 636 357 636 345 739 c 1,19,20
 373 743 373 743 399 743 c 0,21,22
 432 743 432 743 450 729 c 128,-1,23
 468 715 468 715 468 689 c 0,24,25
 468 664 468 664 463.5 506.5 c 128,-1,26
 459 349 459 349 459 224 c 0,27,28
 459 58 459 58 478 7 c 1,29,30
 453 -3 453 -3 423 -3 c 0,31,32
 367 -3 367 -3 361 39 c 1,33,34
 303 -10 303 -10 238 -10 c 0,35,36
 157 -10 157 -10 97.5 60 c 128,-1,37
 38 130 38 130 38 238 c 0,12,13
EndSplineSet
EndChar

StartChar: e
Encoding: 101 101 72
Width: 485
GlyphClass: 2
Flags: W
LayerCount: 2
Fore
SplineSet
223 197 m 0,0,1
 196 197 196 197 150 199 c 1,2,3
 160 128 160 128 195.5 95 c 128,-1,4
 231 62 231 62 283 62 c 0,5,6
 310 62 310 62 339 76 c 128,-1,7
 368 90 368 90 382 116 c 1,8,9
 431 90 431 90 431 60 c 0,10,11
 431 26 431 26 384 8 c 128,-1,12
 337 -10 337 -10 279 -10 c 0,13,14
 185 -10 185 -10 111.5 52 c 128,-1,15
 38 114 38 114 38 231 c 0,16,17
 38 354 38 354 108.5 419.5 c 128,-1,18
 179 485 179 485 275 485 c 0,19,20
 352 485 352 485 399.5 443 c 128,-1,21
 447 401 447 401 447 343 c 0,22,23
 447 296 447 296 429.5 265.5 c 128,-1,24
 412 235 412 235 378 221 c 128,-1,25
 344 207 344 207 309 202 c 128,-1,26
 274 197 274 197 223 197 c 0,0,1
266 412 m 0,27,28
 219 412 219 412 186 376 c 128,-1,29
 153 340 153 340 147 262 c 1,30,31
 211 262 211 262 241 265 c 0,32,33
 338 277 338 277 338 341 c 0,34,35
 338 370 338 370 317.5 391 c 128,-1,36
 297 412 297 412 266 412 c 0,27,28
EndSplineSet
EndChar

StartChar: f
Encoding: 102 102 73
Width: 338
GlyphClass: 2
Flags: W
LayerCount: 2
Fore
SplineSet
188 508 m 2,0,-1
 188 474 l 1,1,2
 272 474 272 474 316 479 c 1,3,4
 321 468 321 468 321 447 c 0,5,6
 321 422 321 422 309 412.5 c 128,-1,7
 297 403 297 403 271 402 c 0,8,9
 242 401 242 401 188 401 c 1,10,-1
 188 203 l 2,11,12
 188 71 188 71 207 7 c 1,13,14
 185 -3 185 -3 156 -3 c 0,15,16
 114 -3 114 -3 98.5 9.5 c 128,-1,17
 83 22 83 22 83 51 c 0,18,19
 83 105 83 105 84 217.5 c 128,-1,20
 85 330 85 330 85 400 c 1,21,22
 71 400 71 400 8 394 c 1,23,24
 4 410 4 410 4 431 c 128,-1,25
 4 452 4 452 15 460 c 128,-1,26
 26 468 26 468 46 472 c 1,27,28
 64 474 64 474 85 474 c 1,29,30
 87 599 87 599 128 657.5 c 128,-1,31
 169 716 169 716 273 716 c 0,32,33
 313 716 313 716 340 702.5 c 128,-1,34
 367 689 367 689 367 665 c 0,35,36
 367 638 367 638 330 608 c 1,37,38
 294 641 294 641 255 641 c 0,39,40
 227 641 227 641 209 619 c 1,41,42
 188 590 188 590 188 508 c 2,0,-1
EndSplineSet
EndChar

StartChar: g
Encoding: 103 103 74
Width: 542
GlyphClass: 2
Flags: W
LayerCount: 2
Fore
SplineSet
254 117 m 0,0,1
 228 117 228 117 201 122 c 1,2,3
 167 86 167 86 167 61 c 0,4,5
 167 41 167 41 227 41 c 2,6,-1
 341 41 l 2,7,8
 494 41 494 41 494 -73 c 0,9,10
 494 -152 494 -152 417 -201 c 128,-1,11
 340 -250 340 -250 231 -250 c 0,12,13
 131 -250 131 -250 80.5 -215.5 c 128,-1,14
 30 -181 30 -181 30 -131 c 0,15,16
 30 -74 30 -74 102 -25 c 1,17,18
 66 -4 66 -4 66 24 c 0,19,20
 66 43 66 43 85 76 c 128,-1,21
 104 109 104 109 136 137 c 1,22,23
 89 157 89 157 64 200 c 128,-1,24
 39 243 39 243 39 301 c 0,25,26
 39 380 39 380 97 433 c 128,-1,27
 155 486 155 486 244 486 c 0,28,29
 322 486 322 486 374 450 c 1,30,31
 416 503 416 503 467 503 c 0,32,33
 525 503 525 503 525 451 c 0,34,35
 525 436 525 436 519 417 c 1,36,37
 497 422 497 422 482 422 c 0,38,39
 451 422 451 422 418 408 c 1,40,41
 448 359 448 359 448 301 c 0,42,43
 448 217 448 217 391 167 c 128,-1,44
 334 117 334 117 254 117 c 0,0,1
339 293 m 0,45,46
 339 344 339 344 313 378.5 c 128,-1,47
 287 413 287 413 243 413 c 0,48,49
 147 413 147 413 147 309 c 0,50,51
 147 258 147 258 172.5 224.5 c 128,-1,52
 198 191 198 191 243 191 c 0,53,54
 295 191 295 191 317 216 c 128,-1,55
 339 241 339 241 339 293 c 0,45,46
335 -42 m 2,56,-1
 237 -42 l 2,57,58
 185 -42 185 -42 161 -38 c 1,59,60
 129 -82 129 -82 129 -113 c 0,61,62
 129 -165 129 -165 238 -165 c 0,63,64
 319 -165 319 -165 361 -142 c 128,-1,65
 403 -119 403 -119 403 -86 c 0,66,67
 403 -61 403 -61 386 -51.5 c 128,-1,68
 369 -42 369 -42 335 -42 c 2,56,-1
EndSplineSet
EndChar

StartChar: h
Encoding: 104 104 75
Width: 529
GlyphClass: 2
Flags: W
LayerCount: 2
Fore
SplineSet
351 304 m 0,0,1
 351 359 351 359 329 386 c 128,-1,2
 307 413 307 413 272 413 c 0,3,4
 217 413 217 413 162 360 c 1,5,6
 163 323 163 323 163.5 198.5 c 128,-1,7
 164 74 164 74 170 2 c 1,8,9
 143 -2 143 -2 120 -2 c 0,10,11
 55 -2 55 -2 55 38 c 0,12,13
 55 44 55 44 56.5 86 c 128,-1,14
 58 128 58 128 59 214.5 c 128,-1,15
 60 301 60 301 60 414 c 0,16,17
 60 650 60 650 51 738 c 1,18,19
 79 743 79 743 103 743 c 0,20,21
 174 743 174 743 174 688 c 0,22,23
 174 684 174 684 171.5 653 c 128,-1,24
 169 622 169 622 166 562.5 c 128,-1,25
 163 503 163 503 163 432 c 1,26,27
 232 485 232 485 318 485 c 0,28,29
 379 485 379 485 417 449 c 128,-1,30
 455 413 455 413 455 333 c 0,31,32
 455 327 455 327 454.5 303 c 128,-1,33
 454 279 454 279 453 239.5 c 128,-1,34
 452 200 452 200 452 157 c 0,35,36
 452 75 452 75 478 9 c 1,37,38
 447 -4 447 -4 422 -4 c 0,39,40
 381 -4 381 -4 364 13 c 128,-1,41
 347 30 347 30 347 77 c 0,42,43
 347 115 347 115 349 206.5 c 128,-1,44
 351 298 351 298 351 304 c 0,0,1
EndSplineSet
EndChar

StartChar: i
Encoding: 105 105 76
Width: 249
GlyphClass: 2
Flags: W
LayerCount: 2
Fore
SplineSet
116 478 m 0,0,1
 188 478 188 478 188 425 c 0,2,3
 188 419 188 419 185 384.5 c 128,-1,4
 182 350 182 350 179.5 299 c 128,-1,5
 177 248 177 248 177 202 c 0,6,7
 177 68 177 68 203 7 c 1,8,9
 178 -4 178 -4 146 -4 c 0,10,11
 102 -4 102 -4 86.5 14 c 128,-1,12
 71 32 71 32 71 75 c 0,13,14
 71 91 71 91 72 152.5 c 128,-1,15
 73 214 73 214 73 247 c 0,16,17
 73 392 73 392 64 474 c 1,18,19
 88 478 88 478 116 478 c 0,0,1
121 520 m 0,20,21
 91 520 91 520 70 540 c 128,-1,22
 49 560 49 560 49 591 c 0,23,24
 49 621 49 621 71 641.5 c 128,-1,25
 93 662 93 662 123 662 c 0,26,27
 152 662 152 662 173 641.5 c 128,-1,28
 194 621 194 621 194 591 c 128,-1,29
 194 561 194 561 172 540.5 c 128,-1,30
 150 520 150 520 121 520 c 0,20,21
EndSplineSet
EndChar

StartChar: j
Encoding: 106 106 77
Width: 255
GlyphClass: 2
Flags: W
LayerCount: 2
Fore
SplineSet
131 520 m 0,0,1
 101 520 101 520 80 540 c 128,-1,2
 59 560 59 560 59 591 c 0,3,4
 59 621 59 621 81 641.5 c 128,-1,5
 103 662 103 662 133 662 c 0,6,7
 162 662 162 662 183 641.5 c 128,-1,8
 204 621 204 621 204 591 c 128,-1,9
 204 561 204 561 182 540.5 c 128,-1,10
 160 520 160 520 131 520 c 0,0,1
126 479 m 0,11,12
 197 479 197 479 197 426 c 0,13,14
 197 401 197 401 191.5 328.5 c 128,-1,15
 186 256 186 256 186 191 c 0,16,17
 186 180 186 180 188 82.5 c 128,-1,18
 190 -15 190 -15 190 -70 c 0,19,20
 190 -160 190 -160 140.5 -206 c 128,-1,21
 91 -252 91 -252 -1 -252 c 0,22,23
 -51 -252 -51 -252 -88 -236 c 128,-1,24
 -125 -220 -125 -220 -125 -195 c 0,25,26
 -125 -165 -125 -165 -83 -133 c 1,27,28
 -44 -178 -44 -178 10 -178 c 0,29,30
 86 -178 86 -178 86 -64 c 0,31,32
 86 -28 86 -28 84.5 70 c 128,-1,33
 83 168 83 168 83 232 c 0,34,35
 83 402 83 402 74 474 c 1,36,37
 100 479 100 479 126 479 c 0,11,12
EndSplineSet
EndChar

StartChar: k
Encoding: 107 107 78
Width: 493
GlyphClass: 2
Flags: W
LayerCount: 2
Fore
SplineSet
267 412 m 0,0,1
 221 412 221 412 162 367 c 1,2,3
 163 329 163 329 163.5 202 c 128,-1,4
 164 75 164 75 170 2 c 1,5,6
 143 -2 143 -2 120 -2 c 0,7,8
 55 -2 55 -2 55 38 c 0,9,10
 55 45 55 45 56.5 87 c 128,-1,11
 58 129 58 129 59 215 c 128,-1,12
 60 301 60 301 60 414 c 0,13,14
 60 650 60 650 51 738 c 1,15,16
 79 743 79 743 103 743 c 0,17,18
 174 743 174 743 174 688 c 0,19,20
 174 679 174 679 171.5 645.5 c 128,-1,21
 169 612 169 612 166 556.5 c 128,-1,22
 163 501 163 501 163 439 c 1,23,24
 229 485 229 485 297 485 c 0,25,26
 367 485 367 485 403.5 447.5 c 128,-1,27
 440 410 440 410 440 355 c 0,28,29
 440 298 440 298 402.5 252 c 128,-1,30
 365 206 365 206 299 195 c 1,31,32
 336 131 336 131 371 96 c 0,33,34
 400 68 400 68 420 68 c 128,-1,35
 440 68 440 68 459 74 c 1,36,37
 470 49 470 49 470 36 c 0,38,39
 470 13 470 13 445.5 1.5 c 128,-1,40
 421 -10 421 -10 385 -10 c 0,41,42
 344 -10 344 -10 307 32 c 0,43,44
 254 93 254 93 204 206 c 1,45,46
 187 213 187 213 187 233 c 0,47,48
 187 246 187 246 194 265 c 1,49,50
 215 259 215 259 239 259 c 0,51,52
 283 259 283 259 308.5 285 c 128,-1,53
 334 311 334 311 334 345 c 0,54,55
 334 373 334 373 316.5 392.5 c 128,-1,56
 299 412 299 412 267 412 c 0,0,1
EndSplineSet
EndChar

StartChar: l
Encoding: 108 108 79
Width: 241
GlyphClass: 2
Flags: W
LayerCount: 2
Fore
SplineSet
103 743 m 0,0,1
 174 743 174 743 174 688 c 0,2,3
 174 682 174 682 171 641.5 c 128,-1,4
 168 601 168 601 165.5 525 c 128,-1,5
 163 449 163 449 163 356 c 0,6,7
 163 164 163 164 167 109 c 128,-1,8
 171 54 171 54 190 9 c 1,9,10
 161 -4 161 -4 131 -4 c 0,11,12
 88 -4 88 -4 73 14.5 c 128,-1,13
 58 33 58 33 58 77 c 0,14,15
 60 265 60 265 60 353 c 0,16,17
 60 656 60 656 51 738 c 1,18,19
 79 743 79 743 103 743 c 0,0,1
EndSplineSet
EndChar

StartChar: m
Encoding: 109 109 80
Width: 828
GlyphClass: 2
Flags: W
LayerCount: 2
Fore
SplineSet
51 467 m 1,0,-1
 55 470 l 1,1,2
 82 478 82 478 103 478 c 0,3,4
 132 478 132 478 148 469 c 128,-1,5
 164 460 164 460 168 429 c 1,6,7
 239 485 239 485 328 485 c 0,8,9
 415 485 415 485 448 421 c 1,10,11
 518 485 518 485 616 485 c 0,12,13
 677 485 677 485 715.5 449 c 128,-1,14
 754 413 754 413 754 333 c 0,15,16
 754 330 754 330 752.5 259.5 c 128,-1,17
 751 189 751 189 751 157 c 0,18,19
 751 75 751 75 777 9 c 1,20,21
 746 -4 746 -4 720 -4 c 0,22,23
 679 -4 679 -4 662 13 c 128,-1,24
 645 30 645 30 645 77 c 0,25,26
 645 112 645 112 647 196 c 128,-1,27
 649 280 649 280 649 304 c 0,28,29
 649 359 649 359 627.5 386 c 128,-1,30
 606 413 606 413 571 413 c 0,31,32
 517 413 517 413 460 361 c 1,33,34
 462 227 462 227 462 157 c 0,35,36
 462 67 462 67 468 2 c 1,37,38
 441 -2 441 -2 419 -2 c 0,39,40
 353 -2 353 -2 353 38 c 0,41,42
 353 55 353 55 357 137.5 c 128,-1,43
 361 220 361 220 361 304 c 0,44,45
 361 359 361 359 339 386 c 128,-1,46
 317 413 317 413 282 413 c 0,47,48
 227 413 227 413 172 361 c 1,49,50
 174 227 174 227 174 166 c 0,51,52
 174 70 174 70 180 2 c 1,53,54
 153 -2 153 -2 130 -2 c 0,55,56
 65 -2 65 -2 65 38 c 0,57,58
 65 61 65 61 67.5 127.5 c 128,-1,59
 70 194 70 194 70 248 c 0,60,61
 70 415 70 415 51 467 c 1,0,-1
EndSplineSet
EndChar

StartChar: n
Encoding: 110 110 81
Width: 532
GlyphClass: 2
Flags: W
LayerCount: 2
Fore
SplineSet
168 429 m 1,0,1
 239 485 239 485 328 485 c 0,2,3
 389 485 389 485 427 449 c 128,-1,4
 465 413 465 413 465 333 c 0,5,6
 465 322 465 322 463.5 255 c 128,-1,7
 462 188 462 188 462 157 c 0,8,9
 462 75 462 75 488 9 c 1,10,11
 457 -4 457 -4 432 -4 c 0,12,13
 391 -4 391 -4 374 13 c 128,-1,14
 357 30 357 30 357 77 c 0,15,16
 357 129 357 129 359 202.5 c 128,-1,17
 361 276 361 276 361 304 c 0,18,19
 361 359 361 359 339 386 c 128,-1,20
 317 413 317 413 282 413 c 0,21,22
 229 413 229 413 172 361 c 1,23,24
 174 227 174 227 174 166 c 0,25,26
 174 70 174 70 180 2 c 1,27,28
 153 -2 153 -2 130 -2 c 0,29,30
 65 -2 65 -2 65 38 c 0,31,32
 65 67 65 67 67.5 132 c 128,-1,33
 70 197 70 197 70 249 c 0,34,35
 70 415 70 415 51 467 c 1,36,37
 75 478 75 478 103 478 c 0,38,39
 132 478 132 478 148 469 c 128,-1,40
 164 460 164 460 168 429 c 1,0,1
EndSplineSet
EndChar

StartChar: o
Encoding: 111 111 82
Width: 540
GlyphClass: 2
Flags: W
LayerCount: 2
Fore
SplineSet
393 225 m 0,0,1
 393 305 393 305 359.5 358.5 c 128,-1,2
 326 412 326 412 269 412 c 0,3,4
 211 412 211 412 179 368 c 128,-1,5
 147 324 147 324 147 251 c 0,6,7
 147 170 147 170 179.5 117 c 128,-1,8
 212 64 212 64 269 64 c 0,9,10
 328 64 328 64 360.5 108 c 128,-1,11
 393 152 393 152 393 225 c 0,0,1
269 -10 m 0,12,13
 165 -10 165 -10 101.5 57.5 c 128,-1,14
 38 125 38 125 38 238 c 128,-1,15
 38 351 38 351 101.5 418 c 128,-1,16
 165 485 165 485 269 485 c 0,17,18
 374 485 374 485 438 418 c 128,-1,19
 502 351 502 351 502 238 c 128,-1,20
 502 125 502 125 438 57.5 c 128,-1,21
 374 -10 374 -10 269 -10 c 0,12,13
EndSplineSet
EndChar

StartChar: p
Encoding: 112 112 83
Width: 530
GlyphClass: 2
Flags: W
LayerCount: 2
Fore
SplineSet
281 412 m 0,0,1
 225 412 225 412 172 368 c 1,2,3
 174 122 174 122 174 91 c 1,4,5
 213 64 213 64 272 64 c 0,6,7
 310 64 310 64 336 93 c 128,-1,8
 362 122 362 122 372.5 162.5 c 128,-1,9
 383 203 383 203 383 251 c 0,10,11
 383 334 383 334 354.5 373 c 128,-1,12
 326 412 326 412 281 412 c 0,0,1
169 426 m 1,13,14
 242 485 242 485 318 485 c 0,15,16
 395 485 395 485 443.5 431 c 128,-1,17
 492 377 492 377 492 265 c 0,18,19
 492 150 492 150 436 70 c 128,-1,20
 380 -10 380 -10 275 -10 c 0,21,22
 222 -10 222 -10 172 18 c 1,23,24
 172 -184 172 -184 192 -242 c 1,25,26
 162 -252 162 -252 135 -252 c 0,27,28
 95 -252 95 -252 81 -238.5 c 128,-1,29
 67 -225 67 -225 67 -193 c 0,30,31
 67 -118 67 -118 68.5 40 c 128,-1,32
 70 198 70 198 70 250 c 0,33,34
 70 413 70 413 51 467 c 1,35,36
 76 478 76 478 107 478 c 0,37,38
 165 478 165 478 169 426 c 1,13,14
EndSplineSet
EndChar

StartChar: q
Encoding: 113 113 84
Width: 537
GlyphClass: 2
Flags: W
LayerCount: 2
Fore
SplineSet
264 412 m 0,0,1
 215 412 215 412 181 368 c 128,-1,2
 147 324 147 324 147 256 c 0,3,4
 147 168 147 168 181 116 c 128,-1,5
 215 64 215 64 266 64 c 0,6,7
 322 64 322 64 363 109 c 1,8,9
 364 206 364 206 371 367 c 1,10,11
 327 412 327 412 264 412 c 0,0,1
242 -10 m 0,12,13
 158 -10 158 -10 98 60.5 c 128,-1,14
 38 131 38 131 38 237 c 0,15,16
 38 352 38 352 104 418.5 c 128,-1,17
 170 485 170 485 269 485 c 0,18,19
 389 485 389 485 479 416 c 1,20,21
 466 282 466 282 466 23 c 0,22,23
 466 -194 466 -194 486 -243 c 1,24,25
 459 -252 459 -252 430 -252 c 0,26,27
 389 -252 389 -252 375 -238 c 128,-1,28
 361 -224 361 -224 361 -199 c 0,29,30
 361 -52 361 -52 363 31 c 1,31,32
 311 -10 311 -10 242 -10 c 0,12,13
EndSplineSet
EndChar

StartChar: r
Encoding: 114 114 85
Width: 358
GlyphClass: 2
Flags: W
LayerCount: 2
Fore
SplineSet
103 478 m 0,0,1
 139 478 139 478 154.5 465 c 128,-1,2
 170 452 170 452 170 424 c 2,3,-1
 170 412 l 1,4,5
 228 485 228 485 283 485 c 0,6,7
 341 485 341 485 341 443 c 0,8,9
 341 415 341 415 305 370 c 1,10,11
 284 388 284 388 258 388 c 0,12,13
 207 388 207 388 166 333 c 1,14,15
 163 269 163 269 163 203 c 0,16,17
 163 72 163 72 190 9 c 1,18,19
 163 -4 163 -4 131 -4 c 0,20,21
 88 -4 88 -4 73 15 c 128,-1,22
 58 34 58 34 58 76 c 0,23,24
 58 88 58 88 59 144 c 128,-1,25
 60 200 60 200 60 232 c 0,26,27
 60 399 60 399 51 473 c 1,28,29
 80 478 80 478 103 478 c 0,0,1
EndSplineSet
EndChar

StartChar: s
Encoding: 115 115 86
Width: 437
GlyphClass: 2
Flags: W
LayerCount: 2
Fore
SplineSet
319 341 m 1,0,1
 299 406 299 406 208 406 c 0,2,3
 182 406 182 406 163 391.5 c 128,-1,4
 144 377 144 377 144 352 c 0,5,6
 144 322 144 322 170.5 305 c 128,-1,7
 197 288 197 288 235 280 c 128,-1,8
 273 272 273 272 311 261 c 128,-1,9
 349 250 349 250 375.5 220 c 128,-1,10
 402 190 402 190 402 140 c 0,11,12
 402 67 402 67 344.5 28.5 c 128,-1,13
 287 -10 287 -10 209 -10 c 0,14,15
 140 -10 140 -10 87 13 c 128,-1,16
 34 36 34 36 34 70 c 0,17,18
 34 113 34 113 96 139 c 1,19,20
 126 69 126 69 226 69 c 0,21,22
 302 69 302 69 302 120 c 0,23,24
 302 150 302 150 275.5 165.5 c 128,-1,25
 249 181 249 181 211 188.5 c 128,-1,26
 173 196 173 196 135 208 c 128,-1,27
 97 220 97 220 70.5 252 c 128,-1,28
 44 284 44 284 44 338 c 0,29,30
 44 410 44 410 101.5 447.5 c 128,-1,31
 159 485 159 485 237 485 c 0,32,33
 267 485 267 485 299.5 478.5 c 128,-1,34
 332 472 332 472 362.5 451.5 c 128,-1,35
 393 431 393 431 393 400 c 0,36,37
 393 380 393 380 373 364.5 c 128,-1,38
 353 349 353 349 319 341 c 1,0,1
EndSplineSet
EndChar

StartChar: t
Encoding: 116 116 87
Width: 372
GlyphClass: 2
Flags: W
LayerCount: 2
Fore
SplineSet
49 474 m 0,0,1
 58 475 58 475 94 475 c 1,2,3
 92 534 92 534 88 576 c 1,4,5
 109 580 109 580 137 580 c 0,6,7
 206 580 206 580 206 543 c 0,8,9
 206 519 206 519 203 474 c 1,10,11
 311 474 311 474 353 480 c 1,12,13
 359 469 359 469 359 449 c 0,14,15
 359 422 359 422 347 412.5 c 128,-1,16
 335 403 335 403 309 402 c 0,17,18
 279 401 279 401 201 401 c 1,19,20
 199 307 199 307 199 198 c 0,21,22
 199 166 199 166 201 145 c 128,-1,23
 203 124 203 124 210 103 c 128,-1,24
 217 82 217 82 231 71.5 c 128,-1,25
 245 61 245 61 267 61 c 0,26,27
 298 61 298 61 331 96 c 1,28,29
 357 67 357 67 357 47 c 0,30,31
 357 18 357 18 327.5 4 c 128,-1,32
 298 -10 298 -10 261 -10 c 0,33,34
 94 -10 94 -10 94 172 c 0,35,36
 94 219 94 219 94.5 302.5 c 128,-1,37
 95 386 95 386 95 402 c 1,38,39
 31 398 31 398 4 394 c 1,40,41
 0 405 0 405 0 427 c 0,42,43
 0 453 0 453 11.5 462 c 128,-1,44
 23 471 23 471 49 474 c 0,0,1
EndSplineSet
EndChar

StartChar: u
Encoding: 117 117 88
Width: 529
GlyphClass: 2
Flags: W
LayerCount: 2
Fore
SplineSet
364 47 m 1,0,1
 298 -10 298 -10 212 -10 c 0,2,3
 65 -10 65 -10 65 132 c 0,4,5
 65 139 65 139 66.5 208.5 c 128,-1,6
 68 278 68 278 68 309 c 0,7,8
 68 412 68 412 51 470 c 1,9,10
 78 479 78 479 106 479 c 0,11,12
 143 479 143 479 159 467 c 128,-1,13
 175 455 175 455 175 427 c 0,14,15
 175 375 175 375 172 285 c 128,-1,16
 169 195 169 195 169 169 c 0,17,18
 169 118 169 118 190.5 91 c 128,-1,19
 212 64 212 64 246 64 c 0,20,21
 304 64 304 64 357 115 c 1,22,23
 356 156 356 156 356 242 c 0,24,25
 356 392 356 392 349 475 c 1,26,27
 377 479 377 479 399 479 c 0,28,29
 463 479 463 479 463 440 c 0,30,31
 463 422 463 422 461 340 c 128,-1,32
 459 258 459 258 459 204 c 0,33,34
 459 79 459 79 478 8 c 1,35,36
 457 -3 457 -3 428 -3 c 0,37,38
 409 -3 409 -3 398 -0.5 c 128,-1,39
 387 2 387 2 377 13.5 c 128,-1,40
 367 25 367 25 364 47 c 1,0,1
EndSplineSet
EndChar

StartChar: v
Encoding: 118 118 89
Width: 462
GlyphClass: 2
Flags: W
LayerCount: 2
Fore
SplineSet
377 485 m 0,0,1
 433 485 433 485 433 445 c 0,2,3
 433 377 433 377 382.5 239 c 128,-1,4
 332 101 332 101 281 37 c 0,5,6
 249 -3 249 -3 207 -3 c 0,7,8
 177 -3 177 -3 160 1 c 1,9,10
 137 118 137 118 85 264.5 c 128,-1,11
 33 411 33 411 -3 447 c 1,12,13
 41 481 41 481 76 481 c 0,14,15
 110 481 110 481 127 446 c 128,-1,16
 144 411 144 411 181 304.5 c 128,-1,17
 218 198 218 198 242 114 c 1,18,19
 273 164 273 164 302.5 268 c 128,-1,20
 332 372 332 372 332 446 c 0,21,22
 332 464 332 464 329 479 c 1,23,24
 351 485 351 485 377 485 c 0,0,1
EndSplineSet
EndChar

StartChar: w
Encoding: 119 119 90
Width: 734
GlyphClass: 2
Flags: W
LayerCount: 2
Fore
SplineSet
649 485 m 0,0,1
 705 485 705 485 705 445 c 0,2,3
 705 377 705 377 655 239 c 128,-1,4
 605 101 605 101 554 37 c 0,5,6
 521 -3 521 -3 479 -3 c 0,7,8
 449 -3 449 -3 433 1 c 1,9,10
 412 107 412 107 376 219 c 1,11,12
 328 96 328 96 281 37 c 0,13,14
 249 -3 249 -3 207 -3 c 0,15,16
 177 -3 177 -3 160 1 c 1,17,18
 137 118 137 118 85 264.5 c 128,-1,19
 33 411 33 411 -3 447 c 1,20,21
 41 481 41 481 76 481 c 0,22,23
 110 481 110 481 127 446 c 0,24,25
 145 411 145 411 181.5 305 c 128,-1,26
 218 199 218 199 242 115 c 1,27,28
 272 168 272 168 302 269.5 c 128,-1,29
 332 371 332 371 332 446 c 0,30,31
 332 464 332 464 329 479 c 1,32,33
 351 485 351 485 377 485 c 0,34,35
 433 485 433 485 433 445 c 0,36,37
 433 418 433 418 424 381 c 1,38,39
 485 219 485 219 514 115 c 1,40,41
 547 171 547 171 576 269.5 c 128,-1,42
 605 368 605 368 605 446 c 0,43,44
 605 464 605 464 602 479 c 1,45,46
 622 485 622 485 649 485 c 0,0,1
EndSplineSet
EndChar

StartChar: x
Encoding: 120 120 91
Width: 456
GlyphClass: 2
Flags: W
LayerCount: 2
Fore
SplineSet
309 20 m 0,0,1
 275 62 275 62 209 172 c 1,2,3
 124 46 124 46 114 -10 c 1,4,5
 21 -10 21 -10 21 30 c 0,6,7
 21 59 21 59 73 126 c 128,-1,8
 125 193 125 193 177 243 c 1,9,10
 65 408 65 408 21 437 c 1,11,12
 67 485 67 485 97 485 c 0,13,14
 133 485 133 485 154 457 c 0,15,16
 178 426 178 426 237 326 c 1,17,18
 300 436 300 436 307 486 c 1,19,20
 402 484 402 484 402 446 c 0,21,22
 402 422 402 422 360.5 362.5 c 128,-1,23
 319 303 319 303 271 254 c 1,24,25
 322 175 322 175 370.5 111.5 c 128,-1,26
 419 48 419 48 443 31 c 1,27,28
 403 -10 403 -10 362 -10 c 0,29,30
 333 -10 333 -10 309 20 c 0,0,1
EndSplineSet
EndChar

StartChar: y
Encoding: 121 121 92
Width: 466
GlyphClass: 2
Flags: W
LayerCount: 2
Fore
SplineSet
103 -250 m 0,0,1
 83 -250 83 -250 64.5 -235 c 128,-1,2
 46 -220 46 -220 34 -197 c 1,3,4
 62 -178 62 -178 107 -126 c 128,-1,5
 152 -74 152 -74 193 -6 c 1,6,7
 156 117 156 117 97.5 262 c 128,-1,8
 39 407 39 407 0 446 c 1,9,10
 49 480 49 480 79 480 c 0,11,12
 117 480 117 480 133 446 c 0,13,14
 155 400 155 400 194 303.5 c 128,-1,15
 233 207 233 207 259 122 c 1,16,17
 293 206 293 206 315 299 c 128,-1,18
 337 392 337 392 337 449 c 0,19,20
 337 467 337 467 335 479 c 1,21,22
 358 485 358 485 386 485 c 0,23,24
 440 485 440 485 440 443 c 0,25,26
 440 397 440 397 404 284 c 128,-1,27
 368 171 368 171 319 65 c 0,28,29
 229 -130 229 -130 154 -223 c 0,30,31
 132 -250 132 -250 103 -250 c 0,0,1
EndSplineSet
EndChar

StartChar: z
Encoding: 122 122 93
Width: 489
GlyphClass: 2
Flags: W
LayerCount: 2
Fore
SplineSet
438 404 m 0,0,1
 438 376 438 376 419 357 c 0,2,3
 317 250 317 250 141 70 c 1,4,5
 305 70 305 70 405 103 c 1,6,7
 415 77 415 77 415 52 c 0,8,9
 415 34 415 34 405.5 22.5 c 128,-1,10
 396 11 396 11 384.5 7.5 c 128,-1,11
 373 4 373 4 354 1 c 0,12,13
 312 -6 312 -6 222 -6 c 0,14,15
 112 -6 112 -6 37 7 c 1,16,17
 21 31 21 31 21 59 c 0,18,19
 21 86 21 86 45 111 c 0,20,21
 77 144 77 144 176 245 c 128,-1,22
 275 346 275 346 327 401 c 1,23,24
 299 403 299 403 241 403 c 0,25,26
 133 403 133 403 60 377 c 1,27,28
 50 405 50 405 50 433 c 1,29,30
 52 463 52 463 82 473 c 0,31,32
 107 481 107 481 183 481 c 0,33,34
 237 481 237 481 309.5 473 c 128,-1,35
 382 465 382 465 421 455 c 1,36,37
 438 435 438 435 438 404 c 0,0,1
EndSplineSet
EndChar

StartChar: braceleft
Encoding: 123 123 94
Width: 433
GlyphClass: 2
Flags: W
LayerCount: 2
Fore
SplineSet
268 587 m 2,0,-1
 268 391 l 2,1,2
 268 363 268 363 248.5 332 c 128,-1,3
 229 301 229 301 204 286 c 1,4,5
 230 270 230 270 249.5 240.5 c 128,-1,6
 269 211 269 211 269 183 c 2,7,-1
 269 -14 l 2,8,9
 269 -47 269 -47 278 -58 c 128,-1,10
 287 -69 287 -69 327 -69 c 0,11,12
 360 -69 360 -69 375 -78 c 128,-1,13
 390 -87 390 -87 390 -111 c 0,14,15
 390 -124 390 -124 382 -140 c 1,16,17
 358 -142 358 -142 335 -142 c 0,18,19
 240 -142 240 -142 205 -114 c 128,-1,20
 170 -86 170 -86 170 -25 c 2,21,-1
 170 181 l 2,22,23
 170 207 170 207 142 230.5 c 128,-1,24
 114 254 114 254 59 254 c 1,25,-1
 59 319 l 1,26,27
 114 319 114 319 142.5 343 c 128,-1,28
 171 367 171 367 171 393 c 2,29,-1
 171 598 l 2,30,31
 171 659 171 659 205.5 687 c 128,-1,32
 240 715 240 715 335 715 c 0,33,34
 358 715 358 715 382 713 c 1,35,36
 390 697 390 697 390 683 c 0,37,38
 390 659 390 659 375 650 c 128,-1,39
 360 641 360 641 327 641 c 0,40,41
 287 641 287 641 277.5 630 c 128,-1,42
 268 619 268 619 268 587 c 2,0,-1
EndSplineSet
EndChar

StartChar: bar
Encoding: 124 124 95
Width: 535
GlyphClass: 2
Flags: W
LayerCount: 2
Fore
SplineSet
229 -9 m 2,0,-1
 229 564 l 2,1,2
 229 681 229 681 221 734 c 1,3,4
 237 737 237 737 267 737 c 0,5,6
 313 737 313 737 313 699 c 0,7,8
 313 694 313 694 309.5 627 c 128,-1,9
 306 560 306 560 306 528 c 2,10,-1
 306 -54 l 2,11,12
 306 -174 306 -174 314 -246 c 1,13,14
 298 -249 298 -249 268 -249 c 0,15,16
 222 -249 222 -249 222 -211 c 0,17,18
 222 -206 222 -206 225.5 -124 c 128,-1,19
 229 -42 229 -42 229 -9 c 2,0,-1
EndSplineSet
EndChar

StartChar: braceright
Encoding: 125 125 96
Width: 414
GlyphClass: 2
Flags: W
LayerCount: 2
Fore
SplineSet
147 391 m 2,0,-1
 147 587 l 2,1,2
 147 619 147 619 137.5 630 c 128,-1,3
 128 641 128 641 88 641 c 0,4,5
 55 641 55 641 40 650 c 128,-1,6
 25 659 25 659 25 683 c 0,7,8
 25 697 25 697 33 713 c 1,9,10
 57 715 57 715 80 715 c 0,11,12
 175 715 175 715 209.5 687 c 128,-1,13
 244 659 244 659 244 598 c 2,14,-1
 244 393 l 2,15,16
 244 367 244 367 272.5 343 c 128,-1,17
 301 319 301 319 356 319 c 1,18,-1
 356 254 l 1,19,20
 301 254 301 254 273 230.5 c 128,-1,21
 245 207 245 207 245 181 c 2,22,-1
 245 -25 l 2,23,24
 245 -86 245 -86 210 -114 c 128,-1,25
 175 -142 175 -142 80 -142 c 0,26,27
 57 -142 57 -142 33 -140 c 1,28,29
 25 -124 25 -124 25 -111 c 0,30,31
 25 -87 25 -87 40 -78 c 128,-1,32
 55 -69 55 -69 88 -69 c 0,33,34
 128 -69 128 -69 137 -58 c 128,-1,35
 146 -47 146 -47 146 -14 c 2,36,-1
 146 183 l 2,37,38
 146 211 146 211 165.5 240.5 c 128,-1,39
 185 270 185 270 211 286 c 1,40,41
 186 301 186 301 166.5 332 c 128,-1,42
 147 363 147 363 147 391 c 2,0,-1
EndSplineSet
EndChar

StartChar: asciitilde
Encoding: 126 126 97
Width: 557
GlyphClass: 2
Flags: W
LayerCount: 2
Fore
SplineSet
34 269 m 0,0,1
 34 337 34 337 157 337 c 0,2,3
 214 337 214 337 287 317.5 c 128,-1,4
 360 298 360 298 398 298 c 0,5,6
 444 298 444 298 491 344 c 1,7,8
 523 304 523 304 523 277 c 0,9,10
 523 241 523 241 487 224.5 c 128,-1,11
 451 208 451 208 398 208 c 0,12,13
 362 208 362 208 287.5 227.5 c 128,-1,14
 213 247 213 247 173 247 c 0,15,16
 113 247 113 247 67 201 c 1,17,18
 34 244 34 244 34 269 c 0,0,1
EndSplineSet
EndChar

StartChar: exclamdown
Encoding: 161 161 98
Width: 308
GlyphClass: 2
Flags: W
LayerCount: 2
Fore
SplineSet
148 343 m 0,0,1
 118 343 118 343 97 363 c 128,-1,2
 76 383 76 383 76 414 c 0,3,4
 76 444 76 444 98 464.5 c 128,-1,5
 120 485 120 485 150 485 c 0,6,7
 179 485 179 485 200 464.5 c 128,-1,8
 221 444 221 444 221 414 c 128,-1,9
 221 384 221 384 199 363.5 c 128,-1,10
 177 343 177 343 148 343 c 0,0,1
92 -164 m 1,11,12
 93 -126 93 -126 101 -45.5 c 128,-1,13
 109 35 109 35 109 90 c 0,14,15
 109 202 109 202 94 242 c 1,16,17
 123 255 123 255 146 255 c 0,18,19
 202 255 202 255 203 205 c 0,20,21
 204 174 204 174 204.5 98 c 128,-1,22
 205 22 205 22 206 -24.5 c 128,-1,23
 207 -71 207 -71 211 -126 c 128,-1,24
 215 -181 215 -181 223 -211 c 1,25,26
 179 -219 179 -219 154 -219 c 0,27,28
 92 -219 92 -219 92 -164 c 1,11,12
EndSplineSet
EndChar

StartChar: cent
Encoding: 162 162 99
Width: 535
GlyphClass: 2
Flags: W
LayerCount: 2
Fore
SplineSet
173 326 m 0,0,1
 173 189 173 189 274 147 c 1,2,-1
 274 502 l 1,3,4
 229 490 229 490 201 443 c 128,-1,5
 173 396 173 396 173 326 c 0,0,1
499 155 m 0,6,7
 499 117 499 117 445.5 92.5 c 128,-1,8
 392 68 392 68 329 68 c 1,9,10
 330 15 330 15 334 -14 c 1,11,-1
 314 -16 l 1,12,13
 274 -16 274 -16 274 11 c 2,14,-1
 274 72 l 1,15,16
 184 87 184 87 124.5 150.5 c 128,-1,17
 65 214 65 214 65 328 c 0,18,19
 65 437 65 437 124 500 c 128,-1,20
 183 563 183 563 274 580 c 1,21,22
 274 598 274 598 269 681 c 1,23,24
 284 684 284 684 292 684 c 0,25,26
 329 684 329 684 329 657 c 2,27,-1
 329 585 l 1,28,29
 386 584 386 584 442.5 560 c 128,-1,30
 499 536 499 536 499 497 c 0,31,32
 499 455 499 455 431 442 c 1,33,34
 386 512 386 512 329 514 c 1,35,-1
 329 139 l 1,36,37
 359 140 359 140 381.5 155.5 c 128,-1,38
 404 171 404 171 431 209 c 1,39,40
 463 202 463 202 481 187 c 128,-1,41
 499 172 499 172 499 155 c 0,6,7
EndSplineSet
EndChar

StartChar: sterling
Encoding: 163 163 100
Width: 535
GlyphClass: 2
Flags: W
LayerCount: 2
Fore
SplineSet
432 368 m 0,0,1
 432 341 432 341 416 333 c 128,-1,2
 400 325 400 325 365 325 c 0,3,4
 340 325 340 325 317 326 c 1,5,6
 320 309 320 309 320 291 c 0,7,8
 320 188 320 188 178 67 c 1,9,10
 199 66 199 66 239 66 c 0,11,12
 367 66 367 66 462 102 c 1,13,14
 485 77 485 77 485 53 c 0,15,16
 485 24 485 24 448 11 c 1,17,18
 412 -3 412 -3 299 -3 c 0,19,20
 152 -3 152 -3 76 11 c 1,21,22
 63 27 63 27 63 59 c 1,23,24
 132 100 132 100 170.5 159 c 128,-1,25
 209 218 209 218 209 269 c 0,26,27
 209 299 209 299 201 328 c 1,28,29
 132 328 132 328 95 324 c 1,30,31
 89 340 89 340 89 348 c 256,32,33
 89 356 89 356 91.5 362 c 128,-1,34
 94 368 94 368 100.5 371.5 c 128,-1,35
 107 375 107 375 112.5 377.5 c 128,-1,36
 118 380 118 380 128 381 c 128,-1,37
 138 382 138 382 144 382.5 c 128,-1,38
 150 383 150 383 162 383.5 c 128,-1,39
 174 384 174 384 179 384 c 1,40,41
 177 389 177 389 170 403.5 c 128,-1,42
 163 418 163 418 160 425 c 128,-1,43
 157 432 157 432 152 445 c 128,-1,44
 147 458 147 458 144.5 467 c 128,-1,45
 142 476 142 476 140 487 c 128,-1,46
 138 498 138 498 138 508 c 0,47,48
 138 569 138 569 185.5 621.5 c 128,-1,49
 233 674 233 674 305 674 c 0,50,51
 340 674 340 674 369 657.5 c 128,-1,52
 398 641 398 641 398 610 c 0,53,54
 398 574 398 574 339 554 c 1,55,56
 317 594 317 594 283 594 c 0,57,58
 263 594 263 594 249.5 579.5 c 128,-1,59
 236 565 236 565 236 537 c 0,60,61
 236 508 236 508 265 451 c 128,-1,62
 294 394 294 394 297 387 c 1,63,64
 364 391 364 391 426 400 c 1,65,66
 432 387 432 387 432 368 c 0,0,1
EndSplineSet
EndChar

StartChar: yen
Encoding: 165 165 101
Width: 535
GlyphClass: 2
Flags: W
LayerCount: 2
Fore
SplineSet
222 53 m 0,0,1
 223 119 223 119 223 192 c 1,2,3
 120 192 120 192 60 186 c 1,4,5
 54 197 54 197 54 211 c 0,6,7
 54 245 54 245 97 245 c 2,8,-1
 224 245 l 1,9,-1
 224 299 l 1,10,11
 121 299 121 299 60 293 c 1,12,13
 54 306 54 306 54 319 c 0,14,15
 54 353 54 353 97 353 c 2,16,-1
 201 353 l 1,17,18
 188 374 188 374 161.5 420.5 c 128,-1,19
 135 467 135 467 122.5 486.5 c 128,-1,20
 110 506 110 506 89.5 536 c 128,-1,21
 69 566 69 566 50.5 585.5 c 128,-1,22
 32 605 32 605 11 621 c 1,23,24
 42 669 42 669 84 669 c 0,25,26
 114 669 114 669 141 631 c 0,27,28
 212 530 212 530 289 390 c 1,29,30
 334 455 334 455 377.5 544.5 c 128,-1,31
 421 634 421 634 423 669 c 1,32,33
 438 673 438 673 454 673 c 0,34,35
 516 673 516 673 516 627 c 0,36,37
 516 605 516 605 465 515.5 c 128,-1,38
 414 426 414 426 360 353 c 1,39,40
 432 353 432 353 493 360 c 1,41,-1
 498 335 l 1,42,43
 498 299 498 299 455 299 c 2,44,-1
 323 299 l 1,45,-1
 323 245 l 1,46,47
 427 245 427 245 493 251 c 1,48,-1
 498 228 l 1,49,50
 498 192 498 192 455 192 c 2,51,-1
 323 192 l 1,52,53
 323 70 323 70 341 11 c 1,54,55
 311 -3 311 -3 287 -3 c 0,56,57
 251 -3 251 -3 236.5 11 c 128,-1,58
 222 25 222 25 222 53 c 0,0,1
EndSplineSet
EndChar

StartChar: brokenbar
Encoding: 166 166 102
Width: 535
GlyphClass: 2
Flags: W
LayerCount: 2
Fore
SplineSet
229 565 m 0,0,1
 229 681 229 681 221 734 c 1,2,3
 237 737 237 737 267 737 c 0,4,5
 313 737 313 737 313 699 c 0,6,7
 313 694 313 694 309.5 627 c 128,-1,8
 306 560 306 560 306 528 c 2,9,-1
 306 488 l 2,10,11
 306 368 306 368 314 296 c 1,12,13
 298 293 298 293 268 293 c 0,14,15
 222 293 222 293 222 331 c 0,16,17
 222 336 222 336 225.5 434 c 128,-1,18
 229 532 229 532 229 565 c 0,0,1
229 -18 m 2,19,-1
 229 21 l 2,20,21
 229 139 229 139 221 192 c 1,22,23
 237 195 237 195 267 195 c 0,24,25
 313 195 313 195 313 157 c 0,26,27
 313 152 313 152 309.5 85.5 c 128,-1,28
 306 19 306 19 306 -14 c 2,29,-1
 306 -54 l 2,30,31
 306 -174 306 -174 314 -246 c 1,32,33
 298 -249 298 -249 268 -249 c 0,34,35
 222 -249 222 -249 222 -211 c 0,36,37
 222 -207 222 -207 225.5 -130.5 c 128,-1,38
 229 -54 229 -54 229 -18 c 2,19,-1
EndSplineSet
EndChar

StartChar: section
Encoding: 167 167 103
Width: 456
GlyphClass: 2
Flags: W
LayerCount: 2
Fore
SplineSet
140 351 m 0,0,1
 140 316 140 316 171 291 c 128,-1,2
 202 266 202 266 252 244.5 c 128,-1,3
 302 223 302 223 318 211 c 1,4,5
 322 223 322 223 322 245 c 0,6,7
 322 276 322 276 301.5 298 c 128,-1,8
 281 320 281 320 255 331 c 128,-1,9
 229 342 229 342 195 356.5 c 128,-1,10
 161 371 161 371 144 385 c 1,11,12
 140 373 140 373 140 351 c 0,0,1
48 333 m 0,13,14
 48 401 48 401 101 432 c 1,15,16
 70 469 70 469 70 528 c 0,17,18
 70 593 70 593 119.5 633 c 128,-1,19
 169 673 169 673 250 673 c 0,20,21
 301 673 301 673 350.5 650.5 c 128,-1,22
 400 628 400 628 400 588 c 0,23,24
 400 553 400 553 327 535 c 1,25,26
 315 565 315 565 286 583.5 c 128,-1,27
 257 602 257 602 226 602 c 0,28,29
 199 602 199 602 180 587 c 128,-1,30
 161 572 161 572 161 542 c 0,31,32
 161 503 161 503 187 476 c 128,-1,33
 213 449 213 449 250.5 432 c 128,-1,34
 288 415 288 415 325 396.5 c 128,-1,35
 362 378 362 378 388 344.5 c 128,-1,36
 414 311 414 311 414 263 c 0,37,38
 414 206 414 206 362 164 c 1,39,40
 394 125 394 125 394 72 c 0,41,42
 394 10 394 10 345 -34 c 128,-1,43
 296 -78 296 -78 208 -78 c 0,44,45
 141 -78 141 -78 89.5 -53 c 128,-1,46
 38 -28 38 -28 38 8 c 0,47,48
 38 28 38 28 56.5 39.5 c 128,-1,49
 75 51 75 51 111 62 c 1,50,51
 134 -7 134 -7 229 -7 c 0,52,53
 300 -7 300 -7 300 62 c 0,54,55
 300 101 300 101 274 127 c 128,-1,56
 248 153 248 153 211 168.5 c 128,-1,57
 174 184 174 184 137 201 c 128,-1,58
 100 218 100 218 74 251 c 128,-1,59
 48 284 48 284 48 333 c 0,13,14
EndSplineSet
EndChar

StartChar: dieresis
Encoding: 168 168 104
Width: 273
GlyphClass: 2
Flags: W
LayerCount: 2
Fore
SplineSet
236 520 m 0,0,1
 206 520 206 520 185 540 c 128,-1,2
 164 560 164 560 164 591 c 0,3,4
 164 621 164 621 186 641.5 c 128,-1,5
 208 662 208 662 238 662 c 0,6,7
 267 662 267 662 288 641.5 c 128,-1,8
 309 621 309 621 309 591 c 128,-1,9
 309 561 309 561 287 540.5 c 128,-1,10
 265 520 265 520 236 520 c 0,0,1
46 520 m 0,11,12
 16 520 16 520 -5 540 c 128,-1,13
 -26 560 -26 560 -26 591 c 0,14,15
 -26 621 -26 621 -4 641.5 c 128,-1,16
 18 662 18 662 48 662 c 0,17,18
 77 662 77 662 98 641.5 c 128,-1,19
 119 621 119 621 119 591 c 128,-1,20
 119 561 119 561 97 540.5 c 128,-1,21
 75 520 75 520 46 520 c 0,11,12
EndSplineSet
EndChar

StartChar: copyright
Encoding: 169 169 105
Width: 858
GlyphClass: 2
Flags: W
LayerCount: 2
Fore
SplineSet
750 320 m 0,0,1
 750 452 750 452 670.5 534.5 c 128,-1,2
 591 617 591 617 477 617 c 0,3,4
 361 617 361 617 281.5 535 c 128,-1,5
 202 453 202 453 202 320 c 128,-1,6
 202 187 202 187 281.5 105 c 128,-1,7
 361 23 361 23 477 23 c 0,8,9
 591 23 591 23 670.5 105 c 128,-1,10
 750 187 750 187 750 320 c 0,0,1
822 320 m 0,11,12
 822 170 822 170 721.5 68 c 128,-1,13
 621 -34 621 -34 477 -34 c 0,14,15
 330 -34 330 -34 230 67.5 c 128,-1,16
 130 169 130 169 130 320 c 0,17,18
 130 472 130 472 230 573 c 128,-1,19
 330 674 330 674 477 674 c 0,20,21
 622 674 622 674 722 573 c 128,-1,22
 822 472 822 472 822 320 c 0,11,12
627 161 m 0,23,24
 627 135 627 135 586 115.5 c 128,-1,25
 545 96 545 96 489 96 c 0,26,27
 448 96 448 96 411 107.5 c 128,-1,28
 374 119 374 119 340.5 143.5 c 128,-1,29
 307 168 307 168 287 213.5 c 128,-1,30
 267 259 267 259 267 319 c 0,31,32
 267 433 267 433 333 492 c 128,-1,33
 399 551 399 551 483 551 c 0,34,35
 513 551 513 551 544.5 542.5 c 128,-1,36
 576 534 576 534 602 513.5 c 128,-1,37
 628 493 628 493 628 464 c 0,38,39
 628 425 628 425 555 415 c 1,40,41
 547 446 547 446 524 462 c 128,-1,42
 501 478 501 478 476 478 c 0,43,44
 436 478 436 478 409 437 c 128,-1,45
 382 396 382 396 382 330 c 0,46,47
 382 246 382 246 416.5 207.5 c 128,-1,48
 451 169 451 169 498 169 c 0,49,50
 552 169 552 169 586 215 c 1,51,52
 627 190 627 190 627 161 c 0,23,24
EndSplineSet
EndChar

StartChar: ordfeminine
Encoding: 170 170 106
Width: 308
GlyphClass: 2
Flags: W
LayerCount: 2
Fore
SplineSet
286 280 m 0,0,1
 286 264 286 264 272 254.5 c 128,-1,2
 258 245 258 245 234 245 c 0,3,4
 221 245 221 245 187.5 247.5 c 128,-1,5
 154 250 154 250 136 250 c 2,6,-1
 127 250 l 2,7,8
 81 250 81 250 26 239 c 1,9,10
 21 257 21 257 21 270 c 0,11,12
 21 305 21 305 73 305 c 0,13,14
 81 305 81 305 114 303 c 128,-1,15
 147 301 147 301 168 301 c 2,16,-1
 186 301 l 2,17,18
 236 301 236 301 279 311 c 1,19,20
 286 295 286 295 286 280 c 0,0,1
105 453 m 0,21,22
 105 434 105 434 114 424 c 128,-1,23
 123 414 123 414 137 414 c 0,24,25
 162 414 162 414 181 432 c 1,26,-1
 181 493 l 1,27,28
 142 485 142 485 123.5 477 c 128,-1,29
 105 469 105 469 105 453 c 0,21,22
146 643 m 0,30,31
 205 643 205 643 232.5 621.5 c 128,-1,32
 260 600 260 600 260 547 c 0,33,34
 260 524 260 524 259.5 501.5 c 128,-1,35
 259 479 259 479 259 475 c 0,36,37
 259 410 259 410 270 378 c 1,38,39
 246 370 246 370 229 370 c 128,-1,40
 212 370 212 370 204 374 c 128,-1,41
 196 378 196 378 192 392 c 1,42,43
 162 366 162 366 118 366 c 0,44,45
 79 366 79 366 52 385.5 c 128,-1,46
 25 405 25 405 25 451 c 0,47,48
 25 502 25 502 89 519 c 0,49,50
 121 527 121 527 184 527 c 1,51,52
 184 566 184 566 175 580 c 128,-1,53
 166 594 166 594 138 594 c 0,54,55
 125 594 125 594 110.5 583.5 c 128,-1,56
 96 573 96 573 93 557 c 1,57,58
 34 561 34 561 34 589 c 0,59,60
 34 613 34 613 68 628 c 128,-1,61
 102 643 102 643 146 643 c 0,30,31
EndSplineSet
EndChar

StartChar: guillemotleft
Encoding: 171 171 107
Width: 521
GlyphClass: 2
Flags: W
LayerCount: 2
Fore
SplineSet
250 398 m 0,0,1
 250 384 250 384 215.5 332 c 128,-1,2
 181 280 181 280 146 238 c 1,3,4
 181 197 181 197 215.5 145.5 c 128,-1,5
 250 94 250 94 250 79 c 0,6,7
 250 62 250 62 212 38 c 1,8,9
 140 98 140 98 34 238 c 1,10,11
 136 376 136 376 212 439 c 1,12,13
 250 415 250 415 250 398 c 0,0,1
470 398 m 0,14,15
 470 384 470 384 435.5 332 c 128,-1,16
 401 280 401 280 366 238 c 1,17,18
 401 197 401 197 435.5 145.5 c 128,-1,19
 470 94 470 94 470 79 c 0,20,21
 470 62 470 62 432 38 c 1,22,23
 360 98 360 98 254 238 c 1,24,25
 356 376 356 376 432 439 c 1,26,27
 470 415 470 415 470 398 c 0,14,15
EndSplineSet
EndChar

StartChar: logicalnot
Encoding: 172 172 108
Width: 535
GlyphClass: 2
Flags: W
LayerCount: 2
Fore
SplineSet
434 332 m 1,0,-1
 436 108 l 2,1,2
 436 76 436 76 424 63 c 128,-1,3
 412 50 412 50 377 50 c 0,4,5
 353 50 353 50 327 64 c 1,6,7
 343 118 343 118 343 239 c 2,8,-1
 343 266 l 1,9,-1
 138 266 l 2,10,11
 88 266 88 266 29 245 c 1,12,13
 17 274 17 274 17 288 c 0,14,15
 17 332 17 332 75 332 c 2,16,-1
 434 332 l 1,0,-1
EndSplineSet
EndChar

StartChar: registered
Encoding: 174 174 109
Width: 585
GlyphClass: 2
Flags: W
LayerCount: 2
Fore
SplineSet
483 440 m 128,-1,1
 483 522 483 522 434 572.5 c 128,-1,2
 385 623 385 623 314 623 c 0,3,4
 242 623 242 623 193 572.5 c 128,-1,5
 144 522 144 522 144 440 c 128,-1,6
 144 358 144 358 193 307.5 c 128,-1,7
 242 257 242 257 314 257 c 0,8,9
 385 257 385 257 434 307.5 c 128,-1,0
 483 358 483 358 483 440 c 128,-1,1
542 440 m 128,-1,11
 542 341 542 341 475.5 274 c 128,-1,12
 409 207 409 207 314 207 c 0,13,14
 217 207 217 207 151 274 c 128,-1,15
 85 341 85 341 85 440 c 0,16,17
 85 540 85 540 151 606.5 c 128,-1,18
 217 673 217 673 314 673 c 0,19,20
 409 673 409 673 475.5 606 c 128,-1,10
 542 539 542 539 542 440 c 128,-1,11
310 451 m 0,21,22
 349 451 349 451 349 488 c 0,23,24
 349 506 349 506 335.5 517.5 c 128,-1,25
 322 529 322 529 303 529 c 2,26,-1
 290 529 l 1,27,-1
 290 452 l 1,28,29
 294 451 294 451 310 451 c 0,21,22
425 356 m 1,30,31
 429 348 429 348 429 340 c 0,32,33
 429 329 429 329 419 322.5 c 128,-1,34
 409 316 409 316 395 316 c 0,35,36
 370 316 370 316 355 334 c 1,37,38
 312 379 312 379 290 419 c 1,39,-1
 290 396 l 2,40,41
 290 354 290 354 299 328 c 1,42,43
 280 318 280 318 262 318 c 0,44,45
 215 318 215 318 215 348 c 0,46,47
 215 357 215 357 216 378 c 128,-1,48
 217 399 217 399 217 407 c 2,49,-1
 217 474 l 2,50,51
 217 526 217 526 212 560 c 1,52,53
 287 566 287 566 309 566 c 0,54,55
 421 566 421 566 421 488 c 0,56,57
 421 437 421 437 361 418 c 1,58,59
 368 404 368 404 407 360 c 0,60,61
 411 356 411 356 425 356 c 1,30,31
EndSplineSet
EndChar

StartChar: macron
Encoding: 175 175 110
Width: 300
GlyphClass: 2
Flags: W
LayerCount: 2
Fore
SplineSet
300 595 m 0,0,1
 300 551 300 551 254 551 c 0,2,3
 239 551 239 551 201.5 554 c 128,-1,4
 164 557 164 557 141 557 c 2,5,-1
 121 557 l 2,6,7
 60 557 60 557 4 549 c 1,8,9
 0 568 0 568 0 585 c 0,10,11
 0 629 0 629 46 629 c 0,12,13
 51 629 51 629 91 626 c 128,-1,14
 131 623 131 623 146 623 c 0,15,16
 228 623 228 623 297 631 c 1,17,18
 300 611 300 611 300 595 c 0,0,1
EndSplineSet
EndChar

StartChar: degree
Encoding: 176 176 111
Width: 420
GlyphClass: 2
Flags: W
LayerCount: 2
Fore
SplineSet
120 547 m 0,0,1
 120 505 120 505 140.5 478 c 128,-1,2
 161 451 161 451 199 451 c 128,-1,3
 237 451 237 451 258.5 479.5 c 128,-1,4
 280 508 280 508 280 551 c 0,5,6
 280 593 280 593 260 620 c 128,-1,7
 240 647 240 647 203 647 c 0,8,9
 163 647 163 647 141.5 618.5 c 128,-1,10
 120 590 120 590 120 547 c 0,0,1
48 547 m 0,11,12
 48 614 48 614 91.5 658.5 c 128,-1,13
 135 703 135 703 204 703 c 0,14,15
 269 703 269 703 311 659.5 c 128,-1,16
 353 616 353 616 353 552 c 0,17,18
 353 483 353 483 310 439 c 128,-1,19
 267 395 267 395 199 395 c 0,20,21
 133 395 133 395 90.5 438 c 128,-1,22
 48 481 48 481 48 547 c 0,11,12
EndSplineSet
EndChar

StartChar: plusminus
Encoding: 177 177 112
Width: 535
GlyphClass: 2
Flags: W
LayerCount: 2
Fore
SplineSet
469 55 m 128,-1,1
 469 34 469 34 454.5 20 c 128,-1,2
 440 6 440 6 417 6 c 0,3,4
 398 6 398 6 342 10 c 128,-1,5
 286 14 286 14 265 14 c 0,6,7
 160 14 160 14 52 4 c 1,8,9
 47 28 47 28 47 43 c 0,10,11
 47 62 47 62 59.5 77 c 128,-1,12
 72 92 72 92 99 92 c 0,13,14
 105 92 105 92 162 88.5 c 128,-1,15
 219 85 219 85 263 85 c 0,16,17
 390 85 390 85 463 94 c 1,18,0
 469 76 469 76 469 55 c 128,-1,1
262 486 m 0,19,20
 286 486 286 486 302.5 474 c 128,-1,21
 319 462 319 462 319 443 c 128,-1,22
 319 424 319 424 315.5 386 c 128,-1,23
 312 348 312 348 312 328 c 1,24,25
 407 328 407 328 483 338 c 1,26,27
 488 321 488 321 488 299 c 0,28,29
 488 279 488 279 474 264.5 c 128,-1,30
 460 250 460 250 437 250 c 0,31,32
 417 250 417 250 372.5 253.5 c 128,-1,33
 328 257 328 257 311 257 c 1,34,35
 311 189 311 189 320 126 c 1,36,37
 291 120 291 120 273 120 c 0,38,39
 250 120 250 120 233 131 c 128,-1,40
 216 142 216 142 216 163 c 0,41,42
 216 173 216 173 219 198 c 128,-1,43
 222 223 222 223 222 258 c 1,44,45
 141 257 141 257 51 249 c 1,46,47
 47 269 47 269 47 287 c 0,48,49
 47 306 47 306 59.5 321 c 128,-1,50
 72 336 72 336 99 336 c 0,51,52
 120 336 120 336 156 332.5 c 128,-1,53
 192 329 192 329 223 329 c 1,54,55
 223 417 223 417 215 479 c 1,56,57
 235 486 235 486 262 486 c 0,19,20
EndSplineSet
EndChar

StartChar: twosuperior
Encoding: 178 178 113
Width: 455
GlyphClass: 2
Flags: W
LayerCount: 2
Fore
SplineSet
112 545 m 1,0,1
 68 548 68 548 68 577 c 0,2,3
 68 608 68 608 116.5 640.5 c 128,-1,4
 165 673 165 673 224 673 c 0,5,6
 289 673 289 673 329 639 c 128,-1,7
 369 605 369 605 369 551 c 0,8,9
 369 490 369 490 315 418.5 c 128,-1,10
 261 347 261 347 154 288 c 1,11,-1
 205 288 l 2,12,13
 331 288 331 288 379 312 c 1,14,15
 400 287 400 287 400 265 c 0,16,17
 400 240 400 240 377 232 c 0,18,19
 342 220 342 220 229 220 c 0,20,21
 148 220 148 220 94 222 c 1,22,23
 51 222 51 222 51 271 c 0,24,25
 51 289 51 289 52 293 c 1,26,27
 163 355 163 355 220.5 422 c 128,-1,28
 278 489 278 489 278 543 c 0,29,30
 278 573 278 573 256 591 c 128,-1,31
 234 609 234 609 197 609 c 0,32,33
 175 609 175 609 150.5 591 c 128,-1,34
 126 573 126 573 112 545 c 1,0,1
EndSplineSet
EndChar

StartChar: threesuperior
Encoding: 179 179 114
Width: 424
GlyphClass: 2
Flags: W
LayerCount: 2
Fore
SplineSet
132 457 m 0,0,1
 132 468 132 468 133 474 c 1,2,3
 200 477 200 477 233 493.5 c 128,-1,4
 266 510 266 510 266 553 c 0,5,6
 266 609 266 609 193 609 c 0,7,8
 138 609 138 609 99 561 c 1,9,10
 66 576 66 576 66 601 c 0,11,12
 66 629 66 629 114.5 651 c 128,-1,13
 163 673 163 673 210 673 c 0,14,15
 284 673 284 673 320.5 644 c 128,-1,16
 357 615 357 615 357 566 c 0,17,18
 357 486 357 486 271 458 c 1,19,20
 319 443 319 443 342 412.5 c 128,-1,21
 365 382 365 382 365 344 c 0,22,23
 365 290 365 290 318 249 c 128,-1,24
 271 208 271 208 183 208 c 0,25,26
 131 208 131 208 91 225 c 128,-1,27
 51 242 51 242 51 270 c 0,28,29
 51 294 51 294 82 310 c 1,30,31
 120 272 120 272 178 272 c 0,32,33
 220 272 220 272 247 291.5 c 128,-1,34
 274 311 274 311 274 344 c 0,35,36
 274 430 274 430 156 430 c 0,37,38
 144 430 144 430 138 435 c 128,-1,39
 132 440 132 440 132 457 c 0,0,1
EndSplineSet
EndChar

StartChar: acute
Encoding: 180 180 115
Width: 226
GlyphClass: 2
Flags: W
LayerCount: 2
Fore
SplineSet
241 626 m 1,0,1
 223 612 223 612 165.5 580 c 128,-1,2
 108 548 108 548 81 523 c 1,3,4
 51 550 51 550 51 572 c 0,5,6
 51 585 51 585 61 594.5 c 128,-1,7
 71 604 71 604 88 614 c 128,-1,8
 105 624 105 624 140 654.5 c 128,-1,9
 175 685 175 685 214 728 c 1,10,11
 268 700 268 700 268 669 c 0,12,13
 268 645 268 645 241 626 c 1,0,1
EndSplineSet
EndChar

StartChar: mu
Encoding: 181 181 116
Width: 525
GlyphClass: 2
Flags: W
LayerCount: 2
Fore
SplineSet
61 134 m 0,0,1
 61 142 61 142 62.5 210.5 c 128,-1,2
 64 279 64 279 64 309 c 0,3,4
 64 402 64 402 47 460 c 1,5,6
 74 469 74 469 102 469 c 0,7,8
 139 469 139 469 155 457 c 128,-1,9
 171 445 171 445 171 417 c 0,10,11
 171 365 171 365 168 280 c 128,-1,12
 165 195 165 195 165 169 c 0,13,14
 165 118 165 118 186.5 91 c 128,-1,15
 208 64 208 64 242 64 c 0,16,17
 300 64 300 64 353 115 c 1,18,19
 352 156 352 156 352 242 c 0,20,21
 352 382 352 382 345 465 c 1,22,23
 373 469 373 469 395 469 c 0,24,25
 459 469 459 469 459 430 c 0,26,27
 459 412 459 412 457 335 c 128,-1,28
 455 258 455 258 455 204 c 0,29,30
 455 79 455 79 474 8 c 1,31,32
 453 -3 453 -3 424 -3 c 0,33,34
 405 -3 405 -3 394 -0.5 c 128,-1,35
 383 2 383 2 373 13.5 c 128,-1,36
 363 25 363 25 360 47 c 1,37,38
 334 23 334 23 295 6.5 c 128,-1,39
 256 -10 256 -10 219 -10 c 0,40,41
 189 -10 189 -10 154 6 c 1,42,43
 150 -17 150 -17 150 -47 c 0,44,45
 150 -101 150 -101 161 -158.5 c 128,-1,46
 172 -216 172 -216 184 -242 c 1,47,48
 154 -252 154 -252 127 -252 c 0,49,50
 87 -252 87 -252 73 -238.5 c 128,-1,51
 59 -225 59 -225 59 -193 c 0,52,53
 59 -72 59 -72 61 134 c 0,0,1
EndSplineSet
EndChar

StartChar: paragraph
Encoding: 182 182 117
Width: 517
GlyphClass: 2
Flags: W
LayerCount: 2
Fore
SplineSet
321 501 m 1,0,1
 294 501 294 501 268 504 c 1,2,3
 259 407 259 407 259 235 c 0,4,5
 259 210 259 210 209 210 c 0,6,7
 139 210 139 210 88.5 259.5 c 128,-1,8
 38 309 38 309 38 388 c 0,9,10
 38 474 38 474 93 524.5 c 128,-1,11
 148 575 148 575 231 575 c 0,12,13
 258 575 258 575 317 573 c 128,-1,14
 376 571 376 571 394 571 c 0,15,16
 463 571 463 571 493 572 c 1,17,18
 500 554 500 554 500 541 c 0,19,20
 500 500 500 500 421 500 c 1,21,22
 409 358 409 358 409 167 c 0,23,24
 409 154 409 154 411 66 c 128,-1,25
 413 -22 413 -22 413 -68 c 0,26,27
 413 -96 413 -96 400 -111 c 128,-1,28
 387 -126 387 -126 349 -126 c 0,29,30
 315 -126 315 -126 292 -117 c 1,31,32
 311 -65 311 -65 311 112 c 0,33,34
 311 203 311 203 321 501 c 1,0,1
EndSplineSet
EndChar

StartChar: periodcentered
Encoding: 183 183 118
Width: 213
GlyphClass: 2
Flags: W
LayerCount: 2
Fore
SplineSet
107 185 m 0,0,1
 76 185 76 185 55 206.5 c 128,-1,2
 34 228 34 228 34 261 c 0,3,4
 34 293 34 293 55.5 315.5 c 128,-1,5
 77 338 77 338 107 338 c 128,-1,6
 137 338 137 338 158 315.5 c 128,-1,7
 179 293 179 293 179 261 c 0,8,9
 179 228 179 228 158 206.5 c 128,-1,10
 137 185 137 185 107 185 c 0,0,1
EndSplineSet
EndChar

StartChar: cedilla
Encoding: 184 184 119
Width: 184
GlyphClass: 2
Flags: W
LayerCount: 2
Fore
SplineSet
90 32 m 1,0,-1
 146 24 l 1,1,2
 127 -33 127 -33 127 -39 c 128,-1,3
 127 -45 127 -45 150 -58 c 0,4,5
 209 -89 209 -89 209 -139 c 0,6,7
 209 -180 209 -180 171 -212 c 128,-1,8
 133 -244 133 -244 76 -244 c 0,9,10
 25 -244 25 -244 25 -212 c 0,11,12
 25 -193 25 -193 50 -170 c 1,13,14
 66 -184 66 -184 89 -184 c 0,15,16
 126 -184 126 -184 126 -153 c 0,17,18
 126 -132 126 -132 91.5 -108 c 128,-1,19
 57 -84 57 -84 57 -62 c 0,20,21
 57 -29 57 -29 90 32 c 1,0,-1
EndSplineSet
EndChar

StartChar: onesuperior
Encoding: 185 185 120
Width: 382
GlyphClass: 2
Flags: W
LayerCount: 2
Fore
SplineSet
244 281 m 1,0,1
 280 281 280 281 318 285 c 1,2,3
 322 271 322 271 322 260 c 0,4,5
 322 218 322 218 287 218 c 0,6,7
 280 218 280 218 236.5 219 c 128,-1,8
 193 220 193 220 151 220 c 0,9,10
 96 220 96 220 65 219 c 1,11,12
 60 236 60 236 60 245 c 0,13,14
 60 284 60 284 113 284 c 2,15,-1
 154 284 l 1,16,17
 154 294 154 294 155 356 c 128,-1,18
 156 418 156 418 156 461 c 0,19,20
 156 542 156 542 153 605 c 1,21,22
 85 593 85 593 65 586 c 1,23,24
 59 601 59 601 59 615 c 0,25,26
 59 652 59 652 97 659 c 0,27,28
 172 673 172 673 203 673 c 0,29,30
 244 673 244 673 244 640 c 0,31,32
 244 635 244 635 242.5 605 c 128,-1,33
 241 575 241 575 239.5 530 c 128,-1,34
 238 485 238 485 238 445 c 2,35,-1
 238 399 l 2,36,37
 238 321 238 321 244 281 c 1,0,1
EndSplineSet
EndChar

StartChar: ordmasculine
Encoding: 186 186 121
Width: 342
GlyphClass: 2
Flags: W
LayerCount: 2
Fore
SplineSet
303 280 m 0,0,1
 303 264 303 264 289 254.5 c 128,-1,2
 275 245 275 245 251 245 c 0,3,4
 238 245 238 245 204.5 247.5 c 128,-1,5
 171 250 171 250 153 250 c 2,6,-1
 144 250 l 2,7,8
 98 250 98 250 43 239 c 1,9,10
 38 257 38 257 38 270 c 0,11,12
 38 305 38 305 90 305 c 0,13,14
 98 305 98 305 131 303 c 128,-1,15
 164 301 164 301 185 301 c 2,16,-1
 203 301 l 2,17,18
 253 301 253 301 296 311 c 1,19,20
 303 295 303 295 303 280 c 0,0,1
234 496 m 0,21,22
 234 538 234 538 217 565.5 c 128,-1,23
 200 593 200 593 170 593 c 0,24,25
 141 593 141 593 125 571 c 128,-1,26
 109 549 109 549 109 512 c 0,27,28
 109 470 109 470 125 443 c 128,-1,29
 141 416 141 416 170 416 c 0,30,31
 201 416 201 416 217.5 438 c 128,-1,32
 234 460 234 460 234 496 c 0,21,22
170 366 m 0,33,34
 107 366 107 366 68.5 403.5 c 128,-1,35
 30 441 30 441 30 504 c 128,-1,36
 30 567 30 567 68.5 605 c 128,-1,37
 107 643 107 643 170 643 c 0,38,39
 235 643 235 643 273.5 605.5 c 128,-1,40
 312 568 312 568 312 504 c 0,41,42
 312 441 312 441 273.5 403.5 c 128,-1,43
 235 366 235 366 170 366 c 0,33,34
EndSplineSet
EndChar

StartChar: guillemotright
Encoding: 187 187 122
Width: 521
GlyphClass: 2
Flags: W
LayerCount: 2
Fore
SplineSet
254 78 m 0,0,1
 254 92 254 92 288.5 144 c 128,-1,2
 323 196 323 196 358 238 c 1,3,4
 323 279 323 279 288.5 330.5 c 128,-1,5
 254 382 254 382 254 397 c 0,6,7
 254 414 254 414 292 438 c 1,8,9
 364 378 364 378 470 238 c 1,10,11
 368 100 368 100 292 37 c 1,12,13
 254 61 254 61 254 78 c 0,0,1
34 78 m 0,14,15
 34 92 34 92 68.5 144 c 128,-1,16
 103 196 103 196 138 238 c 1,17,18
 103 279 103 279 68.5 330.5 c 128,-1,19
 34 382 34 382 34 397 c 0,20,21
 34 414 34 414 72 438 c 1,22,23
 144 378 144 378 250 238 c 1,24,25
 148 100 148 100 72 37 c 1,26,27
 34 61 34 61 34 78 c 0,14,15
EndSplineSet
EndChar

StartChar: onequarter
Encoding: 188 188 123
Width: 945
GlyphClass: 2
Flags: W
LayerCount: 2
Fore
SplineSet
684 187 m 2,0,-1
 729 187 l 1,1,2
 729 229 729 229 730 282 c 128,-1,3
 731 335 731 335 731 349 c 1,4,5
 664 282 664 282 604 188 c 1,6,7
 626 187 626 187 684 187 c 2,0,-1
244 281 m 1,8,9
 280 281 280 281 318 285 c 1,10,11
 322 271 322 271 322 260 c 0,12,13
 322 218 322 218 287 218 c 0,14,15
 280 218 280 218 236.5 219 c 128,-1,16
 193 220 193 220 151 220 c 0,17,18
 96 220 96 220 65 219 c 1,19,20
 60 236 60 236 60 245 c 0,21,22
 60 284 60 284 113 284 c 2,23,-1
 154 284 l 1,24,25
 154 294 154 294 155 356 c 128,-1,26
 156 418 156 418 156 461 c 0,27,28
 156 542 156 542 153 605 c 1,29,30
 85 593 85 593 65 586 c 1,31,32
 59 601 59 601 59 615 c 0,33,34
 59 652 59 652 97 659 c 0,35,36
 172 673 172 673 203 673 c 0,37,38
 244 673 244 673 244 640 c 0,39,40
 244 635 244 635 242.5 605 c 128,-1,41
 241 575 241 575 239.5 530 c 128,-1,42
 238 485 238 485 238 445 c 2,43,-1
 238 399 l 2,44,45
 238 321 238 321 244 281 c 1,8,9
294 -107 m 1,46,47
 230 -107 230 -107 230 -75 c 0,48,49
 230 -67 230 -67 241.5 -43 c 128,-1,50
 253 -19 253 -19 340 154 c 0,51,52
 444 361 444 361 528 529 c 0,53,54
 594 662 594 662 627 740 c 1,55,56
 690 738 690 738 690 707 c 0,57,58
 690 699 690 699 677.5 672.5 c 128,-1,59
 665 646 665 646 588 493 c 0,60,61
 482 282 482 282 393 104 c 0,62,63
 324 -35 324 -35 294 -107 c 1,46,47
731 441 m 0,64,65
 744 452 744 452 790 452 c 0,66,67
 801 452 801 452 817 450 c 1,68,69
 817 447 817 447 815 413 c 128,-1,70
 813 379 813 379 811 318 c 128,-1,71
 809 257 809 257 809 191 c 1,72,73
 858 194 858 194 877 204 c 1,74,75
 885 188 885 188 885 169 c 0,76,77
 885 138 885 138 867 132 c 1,78,79
 851 124 851 124 809 123 c 1,80,81
 809 49 809 49 825 -2 c 1,82,83
 804 -10 804 -10 784 -10 c 0,84,85
 750 -10 750 -10 738.5 2 c 128,-1,86
 727 14 727 14 727 42 c 0,87,88
 727 58 727 58 728 76.5 c 128,-1,89
 729 95 729 95 729 122 c 1,90,91
 597 122 597 122 548 129 c 1,92,93
 529 130 529 130 529 169 c 0,94,95
 529 187 529 187 530 194 c 1,96,97
 565 254 565 254 626.5 328.5 c 128,-1,98
 688 403 688 403 731 441 c 0,64,65
EndSplineSet
EndChar

StartChar: onehalf
Encoding: 189 189 124
Width: 987
GlyphClass: 2
Flags: W
LayerCount: 2
Fore
SplineSet
644 324 m 1,0,1
 600 327 600 327 600 356 c 0,2,3
 600 387 600 387 648.5 419.5 c 128,-1,4
 697 452 697 452 756 452 c 0,5,6
 821 452 821 452 861 418 c 128,-1,7
 901 384 901 384 901 330 c 0,8,9
 901 269 901 269 847 197.5 c 128,-1,10
 793 126 793 126 686 67 c 1,11,-1
 737 67 l 2,12,13
 863 67 863 67 911 91 c 1,14,15
 932 66 932 66 932 44 c 0,16,17
 932 19 932 19 909 11 c 0,18,19
 874 -1 874 -1 761 -1 c 0,20,21
 680 -1 680 -1 626 1 c 1,22,23
 583 1 583 1 583 50 c 0,24,25
 583 68 583 68 584 72 c 1,26,27
 695 134 695 134 752.5 201 c 128,-1,28
 810 268 810 268 810 322 c 0,29,30
 810 352 810 352 788 370 c 128,-1,31
 766 388 766 388 729 388 c 0,32,33
 707 388 707 388 682.5 370 c 128,-1,34
 658 352 658 352 644 324 c 1,0,1
244 281 m 1,35,36
 280 281 280 281 318 285 c 1,37,38
 322 271 322 271 322 260 c 0,39,40
 322 218 322 218 287 218 c 0,41,42
 280 218 280 218 236.5 219 c 128,-1,43
 193 220 193 220 151 220 c 0,44,45
 96 220 96 220 65 219 c 1,46,47
 60 236 60 236 60 245 c 0,48,49
 60 284 60 284 113 284 c 2,50,-1
 154 284 l 1,51,52
 154 294 154 294 155 356 c 128,-1,53
 156 418 156 418 156 461 c 0,54,55
 156 542 156 542 153 605 c 1,56,57
 85 593 85 593 65 586 c 1,58,59
 59 601 59 601 59 615 c 0,60,61
 59 652 59 652 97 659 c 0,62,63
 172 673 172 673 203 673 c 0,64,65
 244 673 244 673 244 640 c 0,66,67
 244 635 244 635 242.5 605 c 128,-1,68
 241 575 241 575 239.5 530 c 128,-1,69
 238 485 238 485 238 445 c 2,70,-1
 238 399 l 2,71,72
 238 321 238 321 244 281 c 1,35,36
294 -107 m 1,73,74
 230 -107 230 -107 230 -75 c 0,75,76
 230 -67 230 -67 241.5 -43 c 128,-1,77
 253 -19 253 -19 340 154 c 0,78,79
 444 361 444 361 528 529 c 0,80,81
 594 662 594 662 627 740 c 1,82,83
 690 738 690 738 690 707 c 0,84,85
 690 699 690 699 677.5 672.5 c 128,-1,86
 665 646 665 646 588 493 c 0,87,88
 482 282 482 282 393 104 c 0,89,90
 324 -35 324 -35 294 -107 c 1,73,74
EndSplineSet
EndChar

StartChar: threequarters
Encoding: 190 190 125
Width: 963
GlyphClass: 2
Flags: W
LayerCount: 2
Fore
SplineSet
703 187 m 2,0,-1
 748 187 l 1,1,2
 748 229 748 229 749 282 c 128,-1,3
 750 335 750 335 750 349 c 1,4,5
 682 282 682 282 623 188 c 1,6,7
 645 187 645 187 703 187 c 2,0,-1
750 441 m 0,8,9
 763 452 763 452 809 452 c 0,10,11
 820 452 820 452 836 450 c 1,12,13
 836 447 836 447 834 413 c 128,-1,14
 832 379 832 379 830 318 c 128,-1,15
 828 257 828 257 828 191 c 1,16,17
 877 194 877 194 896 204 c 1,18,19
 904 188 904 188 904 169 c 0,20,21
 904 138 904 138 886 132 c 1,22,23
 870 124 870 124 828 123 c 1,24,25
 828 49 828 49 844 -2 c 1,26,27
 823 -10 823 -10 803 -10 c 0,28,29
 769 -10 769 -10 757.5 2 c 128,-1,30
 746 14 746 14 746 42 c 0,31,32
 746 58 746 58 747 76.5 c 128,-1,33
 748 95 748 95 748 122 c 1,34,35
 616 122 616 122 567 129 c 1,36,37
 548 130 548 130 548 169 c 0,38,39
 548 187 548 187 549 194 c 1,40,41
 584 254 584 254 645.5 328.5 c 128,-1,42
 707 403 707 403 750 441 c 0,8,9
132 457 m 0,43,44
 132 468 132 468 133 474 c 1,45,46
 200 477 200 477 233 493.5 c 128,-1,47
 266 510 266 510 266 553 c 0,48,49
 266 609 266 609 193 609 c 0,50,51
 138 609 138 609 99 561 c 1,52,53
 66 576 66 576 66 601 c 0,54,55
 66 629 66 629 114.5 651 c 128,-1,56
 163 673 163 673 210 673 c 0,57,58
 284 673 284 673 320.5 644 c 128,-1,59
 357 615 357 615 357 566 c 0,60,61
 357 486 357 486 271 458 c 1,62,63
 319 443 319 443 342 412.5 c 128,-1,64
 365 382 365 382 365 344 c 0,65,66
 365 290 365 290 318 249 c 128,-1,67
 271 208 271 208 183 208 c 0,68,69
 131 208 131 208 91 225 c 128,-1,70
 51 242 51 242 51 270 c 0,71,72
 51 294 51 294 82 310 c 1,73,74
 120 272 120 272 178 272 c 0,75,76
 220 272 220 272 247 291.5 c 128,-1,77
 274 311 274 311 274 344 c 0,78,79
 274 430 274 430 156 430 c 0,80,81
 144 430 144 430 138 435 c 128,-1,82
 132 440 132 440 132 457 c 0,43,44
315 -107 m 1,83,84
 251 -107 251 -107 251 -75 c 0,85,86
 251 -67 251 -67 262.5 -43 c 128,-1,87
 274 -19 274 -19 361 154 c 0,88,89
 465 361 465 361 549 529 c 0,90,91
 616 662 616 662 648 740 c 1,92,93
 711 738 711 738 711 707 c 0,94,95
 711 699 711 699 698.5 672.5 c 128,-1,96
 686 646 686 646 609 493 c 0,97,98
 503 282 503 282 414 104 c 0,99,100
 345 -35 345 -35 315 -107 c 1,83,84
EndSplineSet
EndChar

StartChar: questiondown
Encoding: 191 191 126
Width: 377
GlyphClass: 2
Flags: W
LayerCount: 2
Fore
SplineSet
206 343 m 0,0,1
 176 343 176 343 155 363 c 128,-1,2
 134 383 134 383 134 414 c 0,3,4
 134 444 134 444 156 464.5 c 128,-1,5
 178 485 178 485 208 485 c 0,6,7
 237 485 237 485 258 464.5 c 128,-1,8
 279 444 279 444 279 414 c 128,-1,9
 279 384 279 384 257 363.5 c 128,-1,10
 235 343 235 343 206 343 c 0,0,1
272 189 m 0,11,12
 272 162 272 162 259 135 c 128,-1,13
 246 108 246 108 233.5 93.5 c 128,-1,14
 221 79 221 79 195 51 c 0,15,16
 171 26 171 26 159 11 c 128,-1,17
 147 -4 147 -4 135 -30 c 128,-1,18
 123 -56 123 -56 123 -84 c 0,19,20
 123 -117 123 -117 141 -133.5 c 128,-1,21
 159 -150 159 -150 189 -150 c 0,22,23
 222 -150 222 -150 251.5 -129 c 128,-1,24
 281 -108 281 -108 290 -74 c 1,25,26
 365 -86 365 -86 365 -127 c 0,27,28
 365 -169 365 -169 317 -194.5 c 128,-1,29
 269 -220 269 -220 203 -220 c 0,30,31
 123 -220 123 -220 70 -184.5 c 128,-1,32
 17 -149 17 -149 17 -83 c 0,33,34
 17 -45 17 -45 32.5 -11.5 c 128,-1,35
 48 22 48 22 63.5 39.5 c 128,-1,36
 79 57 79 57 107 82 c 0,37,38
 127 100 127 100 137 111 c 128,-1,39
 147 122 147 122 157.5 142.5 c 128,-1,40
 168 163 168 163 168 183 c 0,41,42
 168 205 168 205 157 238 c 1,43,44
 185 255 185 255 211 255 c 0,45,46
 272 255 272 255 272 189 c 0,11,12
EndSplineSet
EndChar

StartChar: Agrave
Encoding: 192 192 127
Width: 573
GlyphClass: 2
Flags: W
LayerCount: 2
Fore
SplineSet
199 915 m 1,0,1
 239 872 239 872 283 839 c 128,-1,2
 327 806 327 806 346.5 791 c 128,-1,3
 366 776 366 776 366 760 c 0,4,5
 366 737 366 737 334 716 c 1,6,7
 303 739 303 739 251.5 766.5 c 128,-1,8
 200 794 200 794 173.5 813.5 c 128,-1,9
 147 833 147 833 147 854 c 0,10,11
 147 889 147 889 199 915 c 1,0,1
374 274 m 1,12,13
 359 315 359 315 344.5 359.5 c 128,-1,14
 330 404 330 404 314 455 c 128,-1,15
 298 506 298 506 292 525 c 1,16,17
 244 374 244 374 204 275 c 1,18,19
 268 273 268 273 302 273 c 0,20,21
 354 273 354 273 374 274 c 1,12,13
281 199 m 0,22,23
 255 199 255 199 173 201 c 1,24,25
 108 34 108 34 93 -21 c 1,26,27
 4 -11 4 -11 4 20 c 0,28,29
 4 34 4 34 46.5 133.5 c 128,-1,30
 89 233 89 233 150 387 c 128,-1,31
 211 541 211 541 246 660 c 1,32,33
 266 663 266 663 298 663 c 0,34,35
 324 663 324 663 338.5 652.5 c 128,-1,36
 353 642 353 642 364 610 c 0,37,38
 441 370 441 370 476 280 c 0,39,40
 551 85 551 85 589 10 c 1,41,42
 551 -10 551 -10 525 -10 c 0,43,44
 483 -10 483 -10 467 17 c 1,45,46
 455 48 455 48 433.5 108.5 c 128,-1,47
 412 169 412 169 400 201 c 1,48,49
 302 199 302 199 281 199 c 0,22,23
EndSplineSet
EndChar

StartChar: Aacute
Encoding: 193 193 128
Width: 573
GlyphClass: 2
Flags: W
LayerCount: 2
Fore
SplineSet
422 819 m 1,0,1
 404 805 404 805 346.5 773 c 128,-1,2
 289 741 289 741 262 716 c 1,3,4
 232 743 232 743 232 765 c 0,5,6
 232 778 232 778 242 787.5 c 128,-1,7
 252 797 252 797 269 807 c 128,-1,8
 286 817 286 817 321 847.5 c 128,-1,9
 356 878 356 878 395 921 c 1,10,11
 449 893 449 893 449 862 c 0,12,13
 449 838 449 838 422 819 c 1,0,1
374 274 m 1,14,15
 359 315 359 315 344.5 359.5 c 128,-1,16
 330 404 330 404 314 455 c 128,-1,17
 298 506 298 506 292 525 c 1,18,19
 244 374 244 374 204 275 c 1,20,21
 268 273 268 273 302 273 c 0,22,23
 354 273 354 273 374 274 c 1,14,15
281 199 m 0,24,25
 255 199 255 199 173 201 c 1,26,27
 108 34 108 34 93 -21 c 1,28,29
 4 -11 4 -11 4 20 c 0,30,31
 4 34 4 34 46.5 133.5 c 128,-1,32
 89 233 89 233 150 387 c 128,-1,33
 211 541 211 541 246 660 c 1,34,35
 266 663 266 663 298 663 c 0,36,37
 324 663 324 663 338.5 652.5 c 128,-1,38
 353 642 353 642 364 610 c 0,39,40
 441 370 441 370 476 280 c 0,41,42
 551 85 551 85 589 10 c 1,43,44
 551 -10 551 -10 525 -10 c 0,45,46
 483 -10 483 -10 467 17 c 1,47,48
 455 48 455 48 433.5 108.5 c 128,-1,49
 412 169 412 169 400 201 c 1,50,51
 302 199 302 199 281 199 c 0,24,25
EndSplineSet
EndChar

StartChar: Acircumflex
Encoding: 194 194 129
Width: 573
GlyphClass: 2
Flags: W
LayerCount: 2
Fore
SplineSet
443 757 m 0,0,1
 443 736 443 736 406 712 c 1,2,3
 389 733 389 733 364 754.5 c 128,-1,4
 339 776 339 776 322 788 c 2,5,-1
 305 799 l 1,6,7
 218 724 218 724 191 724 c 0,8,9
 170 724 170 724 150 750 c 1,10,11
 224 837 224 837 306 895 c 1,12,13
 443 800 443 800 443 757 c 0,0,1
374 274 m 1,14,15
 359 315 359 315 344.5 359.5 c 128,-1,16
 330 404 330 404 314 455 c 128,-1,17
 298 506 298 506 292 525 c 1,18,19
 244 374 244 374 204 275 c 1,20,21
 268 273 268 273 302 273 c 0,22,23
 354 273 354 273 374 274 c 1,14,15
281 199 m 0,24,25
 255 199 255 199 173 201 c 1,26,27
 108 34 108 34 93 -21 c 1,28,29
 4 -11 4 -11 4 20 c 0,30,31
 4 34 4 34 46.5 133.5 c 128,-1,32
 89 233 89 233 150 387 c 128,-1,33
 211 541 211 541 246 660 c 1,34,35
 266 663 266 663 298 663 c 0,36,37
 324 663 324 663 338.5 652.5 c 128,-1,38
 353 642 353 642 364 610 c 0,39,40
 441 370 441 370 476 280 c 0,41,42
 551 85 551 85 589 10 c 1,43,44
 551 -10 551 -10 525 -10 c 0,45,46
 483 -10 483 -10 467 17 c 1,47,48
 455 48 455 48 433.5 108.5 c 128,-1,49
 412 169 412 169 400 201 c 1,50,51
 302 199 302 199 281 199 c 0,24,25
EndSplineSet
EndChar

StartChar: Atilde
Encoding: 195 195 130
Width: 573
GlyphClass: 2
Flags: W
LayerCount: 2
Fore
SplineSet
374 274 m 1,0,1
 359 315 359 315 344.5 359.5 c 128,-1,2
 330 404 330 404 314 455 c 128,-1,3
 298 506 298 506 292 525 c 1,4,5
 244 374 244 374 204 275 c 1,6,7
 268 273 268 273 302 273 c 0,8,9
 354 273 354 273 374 274 c 1,0,1
281 199 m 0,10,11
 255 199 255 199 173 201 c 1,12,13
 108 34 108 34 93 -21 c 1,14,15
 4 -11 4 -11 4 20 c 0,16,17
 4 34 4 34 46.5 133.5 c 128,-1,18
 89 233 89 233 150 387 c 128,-1,19
 211 541 211 541 246 660 c 1,20,21
 266 663 266 663 298 663 c 0,22,23
 324 663 324 663 338.5 652.5 c 128,-1,24
 353 642 353 642 364 610 c 0,25,26
 441 370 441 370 476 280 c 0,27,28
 551 85 551 85 589 10 c 1,29,30
 551 -10 551 -10 525 -10 c 0,31,32
 483 -10 483 -10 467 17 c 1,33,34
 455 48 455 48 433.5 108.5 c 128,-1,35
 412 169 412 169 400 201 c 1,36,37
 302 199 302 199 281 199 c 0,10,11
446 804 m 0,38,39
 446 774 446 774 412.5 746 c 128,-1,40
 379 718 379 718 339 718 c 0,41,42
 310 718 310 718 272 740 c 128,-1,43
 234 762 234 762 227 762 c 0,44,45
 213 762 213 762 176 716 c 1,46,47
 142 731 142 731 142 754 c 0,48,49
 142 783 142 783 175.5 809 c 128,-1,50
 209 835 209 835 250 835 c 0,51,52
 274 835 274 835 311.5 813 c 128,-1,53
 349 791 349 791 360 791 c 0,54,55
 379 791 379 791 411 836 c 1,56,57
 446 826 446 826 446 804 c 0,38,39
EndSplineSet
EndChar

StartChar: Adieresis
Encoding: 196 196 131
Width: 573
GlyphClass: 2
Flags: W
LayerCount: 2
Fore
SplineSet
387 712 m 0,0,1
 357 712 357 712 336 732 c 128,-1,2
 315 752 315 752 315 783 c 0,3,4
 315 813 315 813 337 833.5 c 128,-1,5
 359 854 359 854 389 854 c 0,6,7
 418 854 418 854 439 833.5 c 128,-1,8
 460 813 460 813 460 783 c 128,-1,9
 460 753 460 753 438 732.5 c 128,-1,10
 416 712 416 712 387 712 c 0,0,1
197 712 m 0,11,12
 167 712 167 712 146 732 c 128,-1,13
 125 752 125 752 125 783 c 0,14,15
 125 813 125 813 147 833.5 c 128,-1,16
 169 854 169 854 199 854 c 0,17,18
 228 854 228 854 249 833.5 c 128,-1,19
 270 813 270 813 270 783 c 128,-1,20
 270 753 270 753 248 732.5 c 128,-1,21
 226 712 226 712 197 712 c 0,11,12
374 274 m 1,22,23
 359 315 359 315 344.5 359.5 c 128,-1,24
 330 404 330 404 314 455 c 128,-1,25
 298 506 298 506 292 525 c 1,26,27
 244 374 244 374 204 275 c 1,28,29
 268 273 268 273 302 273 c 0,30,31
 354 273 354 273 374 274 c 1,22,23
281 199 m 0,32,33
 255 199 255 199 173 201 c 1,34,35
 108 34 108 34 93 -21 c 1,36,37
 4 -11 4 -11 4 20 c 0,38,39
 4 34 4 34 46.5 133.5 c 128,-1,40
 89 233 89 233 150 387 c 128,-1,41
 211 541 211 541 246 660 c 1,42,43
 266 663 266 663 298 663 c 0,44,45
 324 663 324 663 338.5 652.5 c 128,-1,46
 353 642 353 642 364 610 c 0,47,48
 441 370 441 370 476 280 c 0,49,50
 551 85 551 85 589 10 c 1,51,52
 551 -10 551 -10 525 -10 c 0,53,54
 483 -10 483 -10 467 17 c 1,55,56
 455 48 455 48 433.5 108.5 c 128,-1,57
 412 169 412 169 400 201 c 1,58,59
 302 199 302 199 281 199 c 0,32,33
EndSplineSet
EndChar

StartChar: Aring
Encoding: 197 197 132
Width: 573
GlyphClass: 2
Flags: W
LayerCount: 2
Fore
SplineSet
333 803 m 0,0,1
 333 826 333 826 323.5 840.5 c 128,-1,2
 314 855 314 855 297 855 c 0,3,4
 259 855 259 855 259 812 c 0,5,6
 259 790 259 790 269.5 775.5 c 128,-1,7
 280 761 280 761 297 761 c 0,8,9
 333 761 333 761 333 803 c 0,0,1
297 713 m 128,-1,11
 255 713 255 713 228.5 739 c 128,-1,12
 202 765 202 765 202 808 c 128,-1,13
 202 851 202 851 228.5 877 c 128,-1,14
 255 903 255 903 297 903 c 128,-1,15
 339 903 339 903 364.5 877 c 128,-1,16
 390 851 390 851 390 808 c 128,-1,17
 390 765 390 765 364.5 739 c 128,-1,10
 339 713 339 713 297 713 c 128,-1,11
374 274 m 1,18,19
 359 315 359 315 344.5 359.5 c 128,-1,20
 330 404 330 404 314 455 c 128,-1,21
 298 506 298 506 292 525 c 1,22,23
 244 374 244 374 204 275 c 1,24,25
 268 273 268 273 302 273 c 0,26,27
 354 273 354 273 374 274 c 1,18,19
281 199 m 0,28,29
 255 199 255 199 173 201 c 1,30,31
 108 34 108 34 93 -21 c 1,32,33
 4 -11 4 -11 4 20 c 0,34,35
 4 34 4 34 46.5 133.5 c 128,-1,36
 89 233 89 233 150 387 c 128,-1,37
 211 541 211 541 246 660 c 1,38,39
 266 663 266 663 298 663 c 0,40,41
 324 663 324 663 338.5 652.5 c 128,-1,42
 353 642 353 642 364 610 c 0,43,44
 441 370 441 370 476 280 c 0,45,46
 551 85 551 85 589 10 c 1,47,48
 551 -10 551 -10 525 -10 c 0,49,50
 483 -10 483 -10 467 17 c 1,51,52
 455 48 455 48 433.5 108.5 c 128,-1,53
 412 169 412 169 400 201 c 1,54,55
 302 199 302 199 281 199 c 0,28,29
EndSplineSet
EndChar

StartChar: AE
Encoding: 198 198 133
Width: 793
GlyphClass: 2
Flags: W
LayerCount: 2
Fore
SplineSet
230 274 m 1,0,1
 264 273 264 273 332 273 c 2,2,-1
 372 273 l 1,3,-1
 372 341 l 2,4,5
 372 497 372 497 368 563 c 1,6,7
 274 358 274 358 230 274 c 1,0,1
473 583 m 1,8,9
 477 544 477 544 477 396 c 1,10,-1
 552 396 l 2,11,12
 632 396 632 396 666 400 c 1,13,14
 670 391 670 391 670 368 c 0,15,16
 670 340 670 340 660 329.5 c 128,-1,17
 650 319 650 319 628 318 c 0,18,19
 603 317 603 317 561 317 c 2,20,-1
 477 317 l 1,21,22
 477 118 477 118 484 78 c 1,23,24
 526 76 526 76 553 76 c 0,25,26
 713 76 713 76 760 98 c 1,27,28
 768 75 768 75 768 45 c 0,29,30
 768 22 768 22 759 13 c 1,31,32
 740 -2 740 -2 588 -2 c 0,33,34
 452 -2 452 -2 422 0 c 1,35,36
 391 1 391 1 380.5 13.5 c 128,-1,37
 370 26 370 26 370 57 c 0,38,39
 370 93 370 93 372 199 c 1,40,-1
 304 199 l 2,41,42
 240 199 240 199 190 201 c 1,43,44
 182 186 182 186 155.5 137.5 c 128,-1,45
 129 89 129 89 114 57 c 128,-1,46
 99 25 99 25 86 -8 c 1,47,48
 38 -1 38 -1 19 11.5 c 128,-1,49
 0 24 0 24 0 45 c 0,50,51
 0 51 0 51 9 70 c 128,-1,52
 18 89 18 89 36 121 c 128,-1,53
 54 153 54 153 70.5 182 c 128,-1,54
 87 211 87 211 112.5 254.5 c 128,-1,55
 138 298 138 298 152 322 c 0,56,57
 250 496 250 496 314 646 c 1,58,59
 387 666 387 666 587 666 c 0,60,61
 739 666 739 666 758 651 c 1,62,63
 767 642 767 642 767 619 c 0,64,65
 767 589 767 589 759 565 c 1,66,67
 703 586 703 586 579 586 c 0,68,69
 528 586 528 586 473 583 c 1,8,9
EndSplineSet
EndChar

StartChar: Ccedilla
Encoding: 199 199 134
Width: 609
GlyphClass: 2
Flags: W
LayerCount: 2
Fore
SplineSet
517 155 m 1,0,1
 539 144 539 144 555 126.5 c 128,-1,2
 571 109 571 109 571 90 c 0,3,4
 571 50 571 50 515 20.5 c 128,-1,5
 459 -9 459 -9 372 -10 c 1,6,7
 366 -32 366 -32 366 -39 c 0,8,9
 366 -45 366 -45 389 -58 c 0,10,11
 448 -89 448 -89 448 -139 c 0,12,13
 448 -180 448 -180 410 -212 c 128,-1,14
 372 -244 372 -244 315 -244 c 0,15,16
 264 -244 264 -244 264 -212 c 0,17,18
 264 -193 264 -193 289 -170 c 1,19,20
 305 -184 305 -184 328 -184 c 0,21,22
 365 -184 365 -184 365 -153 c 0,23,24
 365 -132 365 -132 330.5 -108 c 128,-1,25
 296 -84 296 -84 296 -62 c 0,26,27
 296 -43 296 -43 311 -6 c 1,28,29
 187 11 187 11 114.5 102.5 c 128,-1,30
 42 194 42 194 42 332 c 0,31,32
 42 492 42 492 130.5 582.5 c 128,-1,33
 219 673 219 673 370 673 c 0,34,35
 451 673 451 673 506 641.5 c 128,-1,36
 561 610 561 610 561 564 c 0,37,38
 561 540 561 540 541.5 522 c 128,-1,39
 522 504 522 504 482 498 c 1,40,41
 467 545 467 545 428.5 569.5 c 128,-1,42
 390 594 390 594 348 594 c 0,43,44
 263 594 263 594 209.5 525 c 128,-1,45
 156 456 156 456 156 351 c 0,46,47
 156 230 156 230 210.5 149.5 c 128,-1,48
 265 69 265 69 364 69 c 0,49,50
 409 69 409 69 451 90.5 c 128,-1,51
 493 112 493 112 517 155 c 1,0,1
EndSplineSet
EndChar

StartChar: Egrave
Encoding: 200 200 135
Width: 491
GlyphClass: 2
Flags: W
LayerCount: 2
Fore
SplineSet
141 915 m 1,0,1
 181 872 181 872 225 839 c 128,-1,2
 269 806 269 806 288.5 791 c 128,-1,3
 308 776 308 776 308 760 c 0,4,5
 308 737 308 737 276 716 c 1,6,7
 245 739 245 739 193.5 766.5 c 128,-1,8
 142 794 142 794 115.5 813.5 c 128,-1,9
 89 833 89 833 89 854 c 0,10,11
 89 889 89 889 141 915 c 1,0,1
171 583 m 1,12,13
 175 544 175 544 175 396 c 1,14,-1
 250 396 l 2,15,16
 330 396 330 396 364 400 c 1,17,18
 368 391 368 391 368 368 c 0,19,20
 368 340 368 340 358 329.5 c 128,-1,21
 348 319 348 319 326 318 c 0,22,23
 301 317 301 317 259 317 c 2,24,-1
 175 317 l 1,25,26
 175 118 175 118 182 78 c 1,27,28
 224 76 224 76 251 76 c 0,29,30
 411 76 411 76 458 98 c 1,31,32
 466 75 466 75 466 45 c 0,33,34
 466 22 466 22 457 13 c 1,35,36
 438 -2 438 -2 286 -2 c 0,37,38
 150 -2 150 -2 120 0 c 1,39,40
 89 1 89 1 78.5 13.5 c 128,-1,41
 68 26 68 26 68 57 c 0,42,43
 68 76 68 76 69 139 c 128,-1,44
 70 202 70 202 70 236 c 2,45,-1
 70 430 l 2,46,47
 70 570 70 570 56 657 c 1,48,49
 165 666 165 666 279 666 c 0,50,51
 427 666 427 666 446 651 c 1,52,53
 455 642 455 642 455 619 c 0,54,55
 455 589 455 589 447 565 c 1,56,57
 392 586 392 586 273 586 c 0,58,59
 225 586 225 586 171 583 c 1,12,13
EndSplineSet
EndChar

StartChar: Eacute
Encoding: 201 201 136
Width: 491
GlyphClass: 2
Flags: W
LayerCount: 2
Fore
SplineSet
383 819 m 1,0,1
 365 805 365 805 307.5 773 c 128,-1,2
 250 741 250 741 223 716 c 1,3,4
 193 743 193 743 193 765 c 0,5,6
 193 778 193 778 203 787.5 c 128,-1,7
 213 797 213 797 230 807 c 128,-1,8
 247 817 247 817 282 847.5 c 128,-1,9
 317 878 317 878 356 921 c 1,10,11
 410 893 410 893 410 862 c 0,12,13
 410 838 410 838 383 819 c 1,0,1
171 583 m 1,14,15
 175 544 175 544 175 396 c 1,16,-1
 250 396 l 2,17,18
 330 396 330 396 364 400 c 1,19,20
 368 391 368 391 368 368 c 0,21,22
 368 340 368 340 358 329.5 c 128,-1,23
 348 319 348 319 326 318 c 0,24,25
 301 317 301 317 259 317 c 2,26,-1
 175 317 l 1,27,28
 175 118 175 118 182 78 c 1,29,30
 224 76 224 76 251 76 c 0,31,32
 411 76 411 76 458 98 c 1,33,34
 466 75 466 75 466 45 c 0,35,36
 466 22 466 22 457 13 c 1,37,38
 438 -2 438 -2 286 -2 c 0,39,40
 150 -2 150 -2 120 0 c 1,41,42
 89 1 89 1 78.5 13.5 c 128,-1,43
 68 26 68 26 68 57 c 0,44,45
 68 76 68 76 69 139 c 128,-1,46
 70 202 70 202 70 236 c 2,47,-1
 70 430 l 2,48,49
 70 570 70 570 56 657 c 1,50,51
 165 666 165 666 279 666 c 0,52,53
 427 666 427 666 446 651 c 1,54,55
 455 642 455 642 455 619 c 0,56,57
 455 589 455 589 447 565 c 1,58,59
 392 586 392 586 273 586 c 0,60,61
 225 586 225 586 171 583 c 1,14,15
EndSplineSet
EndChar

StartChar: Ecircumflex
Encoding: 202 202 137
Width: 491
GlyphClass: 2
Flags: W
LayerCount: 2
Fore
SplineSet
392 757 m 0,0,1
 392 736 392 736 355 712 c 1,2,3
 338 733 338 733 313 754.5 c 128,-1,4
 288 776 288 776 271 788 c 2,5,-1
 254 799 l 1,6,7
 167 724 167 724 140 724 c 0,8,9
 118 724 118 724 99 750 c 1,10,11
 173 837 173 837 255 895 c 1,12,13
 392 800 392 800 392 757 c 0,0,1
171 583 m 1,14,15
 175 544 175 544 175 396 c 1,16,-1
 250 396 l 2,17,18
 330 396 330 396 364 400 c 1,19,20
 368 391 368 391 368 368 c 0,21,22
 368 340 368 340 358 329.5 c 128,-1,23
 348 319 348 319 326 318 c 0,24,25
 301 317 301 317 259 317 c 2,26,-1
 175 317 l 1,27,28
 175 118 175 118 182 78 c 1,29,30
 224 76 224 76 251 76 c 0,31,32
 411 76 411 76 458 98 c 1,33,34
 466 75 466 75 466 45 c 0,35,36
 466 22 466 22 457 13 c 1,37,38
 438 -2 438 -2 286 -2 c 0,39,40
 150 -2 150 -2 120 0 c 1,41,42
 89 1 89 1 78.5 13.5 c 128,-1,43
 68 26 68 26 68 57 c 0,44,45
 68 76 68 76 69 139 c 128,-1,46
 70 202 70 202 70 236 c 2,47,-1
 70 430 l 2,48,49
 70 570 70 570 56 657 c 1,50,51
 165 666 165 666 279 666 c 0,52,53
 427 666 427 666 446 651 c 1,54,55
 455 642 455 642 455 619 c 0,56,57
 455 589 455 589 447 565 c 1,58,59
 392 586 392 586 273 586 c 0,60,61
 225 586 225 586 171 583 c 1,14,15
EndSplineSet
EndChar

StartChar: Edieresis
Encoding: 203 203 138
Width: 491
GlyphClass: 2
Flags: W
LayerCount: 2
Fore
SplineSet
171 583 m 1,0,1
 175 544 175 544 175 396 c 1,2,-1
 250 396 l 2,3,4
 330 396 330 396 364 400 c 1,5,6
 368 391 368 391 368 368 c 0,7,8
 368 340 368 340 358 329.5 c 128,-1,9
 348 319 348 319 326 318 c 0,10,11
 301 317 301 317 259 317 c 2,12,-1
 175 317 l 1,13,14
 175 118 175 118 182 78 c 1,15,16
 224 76 224 76 251 76 c 0,17,18
 411 76 411 76 458 98 c 1,19,20
 466 75 466 75 466 45 c 0,21,22
 466 22 466 22 457 13 c 1,23,24
 438 -2 438 -2 286 -2 c 0,25,26
 150 -2 150 -2 120 0 c 1,27,28
 89 1 89 1 78.5 13.5 c 128,-1,29
 68 26 68 26 68 57 c 0,30,31
 68 76 68 76 69 139 c 128,-1,32
 70 202 70 202 70 236 c 2,33,-1
 70 430 l 2,34,35
 70 570 70 570 56 657 c 1,36,37
 165 666 165 666 279 666 c 0,38,39
 427 666 427 666 446 651 c 1,40,41
 455 642 455 642 455 619 c 0,42,43
 455 589 455 589 447 565 c 1,44,45
 392 586 392 586 273 586 c 0,46,47
 225 586 225 586 171 583 c 1,0,1
353 712 m 0,48,49
 323 712 323 712 302 732 c 128,-1,50
 281 752 281 752 281 783 c 0,51,52
 281 813 281 813 303 833.5 c 128,-1,53
 325 854 325 854 355 854 c 0,54,55
 384 854 384 854 405 833.5 c 128,-1,56
 426 813 426 813 426 783 c 128,-1,57
 426 753 426 753 404 732.5 c 128,-1,58
 382 712 382 712 353 712 c 0,48,49
163 712 m 0,59,60
 133 712 133 712 112 732 c 128,-1,61
 91 752 91 752 91 783 c 0,62,63
 91 813 91 813 113 833.5 c 128,-1,64
 135 854 135 854 165 854 c 0,65,66
 194 854 194 854 215 833.5 c 128,-1,67
 236 813 236 813 236 783 c 128,-1,68
 236 753 236 753 214 732.5 c 128,-1,69
 192 712 192 712 163 712 c 0,59,60
EndSplineSet
EndChar

StartChar: Igrave
Encoding: 204 204 139
Width: 247
GlyphClass: 2
Flags: W
LayerCount: 2
Fore
SplineSet
67 231 m 2,0,-1
 67 431 l 2,1,2
 67 570 67 570 60 661 c 1,3,4
 90 666 90 666 113 666 c 0,5,6
 180 666 180 666 180 628 c 0,7,8
 180 622 180 622 178 587.5 c 128,-1,9
 176 553 176 553 174 501.5 c 128,-1,10
 172 450 172 450 172 404 c 2,11,-1
 172 203 l 2,12,13
 172 70 172 70 191 7 c 1,14,15
 163 -3 163 -3 129 -3 c 0,16,17
 92 -3 92 -3 78.5 10 c 128,-1,18
 65 23 65 23 65 54 c 0,19,20
 65 70 65 70 66 133 c 128,-1,21
 67 196 67 196 67 231 c 2,0,-1
23 915 m 1,22,23
 63 872 63 872 107 839 c 128,-1,24
 151 806 151 806 170.5 791 c 128,-1,25
 190 776 190 776 190 760 c 0,26,27
 190 737 190 737 158 716 c 1,28,29
 127 739 127 739 75.5 766.5 c 128,-1,30
 24 794 24 794 -2.5 813.5 c 128,-1,31
 -29 833 -29 833 -29 854 c 0,32,33
 -29 889 -29 889 23 915 c 1,22,23
EndSplineSet
EndChar

StartChar: Iacute
Encoding: 205 205 140
Width: 244
GlyphClass: 2
Flags: W
LayerCount: 2
Fore
SplineSet
76 231 m 2,0,-1
 76 431 l 2,1,2
 76 570 76 570 69 661 c 1,3,4
 99 666 99 666 122 666 c 0,5,6
 189 666 189 666 189 628 c 0,7,8
 189 622 189 622 187 587.5 c 128,-1,9
 185 553 185 553 183 501.5 c 128,-1,10
 181 450 181 450 181 404 c 2,11,-1
 181 203 l 2,12,13
 181 70 181 70 200 7 c 1,14,15
 172 -3 172 -3 138 -3 c 0,16,17
 101 -3 101 -3 87.5 10 c 128,-1,18
 74 23 74 23 74 54 c 0,19,20
 74 70 74 70 75 133 c 128,-1,21
 76 196 76 196 76 231 c 2,0,-1
246 819 m 1,22,23
 228 805 228 805 170.5 773 c 128,-1,24
 113 741 113 741 86 716 c 1,25,26
 56 743 56 743 56 765 c 0,27,28
 56 778 56 778 66 787.5 c 128,-1,29
 76 797 76 797 93 807 c 128,-1,30
 110 817 110 817 145 847.5 c 128,-1,31
 180 878 180 878 219 921 c 1,32,33
 273 893 273 893 273 862 c 0,34,35
 273 838 273 838 246 819 c 1,22,23
EndSplineSet
EndChar

StartChar: Icircumflex
Encoding: 206 206 141
Width: 261
GlyphClass: 2
Flags: W
LayerCount: 2
Fore
SplineSet
78 231 m 2,0,-1
 78 431 l 2,1,2
 78 570 78 570 71 661 c 1,3,4
 101 666 101 666 124 666 c 0,5,6
 191 666 191 666 191 628 c 0,7,8
 191 622 191 622 189 587.5 c 128,-1,9
 187 553 187 553 185 501.5 c 128,-1,10
 183 450 183 450 183 404 c 2,11,-1
 183 203 l 2,12,13
 183 70 183 70 202 7 c 1,14,15
 174 -3 174 -3 140 -3 c 0,16,17
 103 -3 103 -3 89.5 10 c 128,-1,18
 76 23 76 23 76 54 c 0,19,20
 76 70 76 70 77 133 c 128,-1,21
 78 196 78 196 78 231 c 2,0,-1
273 757 m 0,22,23
 273 736 273 736 236 712 c 1,24,25
 219 733 219 733 194 754.5 c 128,-1,26
 169 776 169 776 152 788 c 2,27,-1
 135 799 l 1,28,29
 48 724 48 724 21 724 c 0,30,31
 0 724 0 724 -20 750 c 1,32,33
 54 837 54 837 136 895 c 1,34,35
 273 800 273 800 273 757 c 0,22,23
EndSplineSet
EndChar

StartChar: Idieresis
Encoding: 207 207 142
Width: 253
GlyphClass: 2
Flags: W
LayerCount: 2
Fore
SplineSet
69 231 m 2,0,-1
 69 431 l 2,1,2
 69 570 69 570 62 661 c 1,3,4
 92 666 92 666 115 666 c 0,5,6
 182 666 182 666 182 628 c 0,7,8
 182 622 182 622 180 587.5 c 128,-1,9
 178 553 178 553 176 501.5 c 128,-1,10
 174 450 174 450 174 404 c 2,11,-1
 174 203 l 2,12,13
 174 70 174 70 193 7 c 1,14,15
 165 -3 165 -3 131 -3 c 0,16,17
 94 -3 94 -3 80.5 10 c 128,-1,18
 67 23 67 23 67 54 c 0,19,20
 67 70 67 70 68 133 c 128,-1,21
 69 196 69 196 69 231 c 2,0,-1
21 712 m 0,22,23
 -9 712 -9 712 -30 732 c 128,-1,24
 -51 752 -51 752 -51 783 c 0,25,26
 -51 813 -51 813 -29 833.5 c 128,-1,27
 -7 854 -7 854 23 854 c 0,28,29
 52 854 52 854 73 833.5 c 128,-1,30
 94 813 94 813 94 783 c 128,-1,31
 94 753 94 753 72 732.5 c 128,-1,32
 50 712 50 712 21 712 c 0,22,23
211 712 m 0,33,34
 181 712 181 712 160 732 c 128,-1,35
 139 752 139 752 139 783 c 0,36,37
 139 813 139 813 161 833.5 c 128,-1,38
 183 854 183 854 213 854 c 0,39,40
 242 854 242 854 263 833.5 c 128,-1,41
 284 813 284 813 284 783 c 128,-1,42
 284 753 284 753 262 732.5 c 128,-1,43
 240 712 240 712 211 712 c 0,33,34
EndSplineSet
EndChar

StartChar: Eth
Encoding: 208 208 143
Width: 651
GlyphClass: 2
Flags: W
LayerCount: 2
Fore
SplineSet
185 592 m 1,0,1
 189 527 189 527 189 439 c 2,2,-1
 189 395 l 1,3,-1
 234 395 l 2,4,5
 317 395 317 395 348 399 c 1,6,7
 352 383 352 383 352 365 c 0,8,9
 352 318 352 318 308 317 c 0,10,11
 279 316 279 316 187 316 c 1,12,13
 183 181 183 181 175 105 c 1,14,15
 223 70 223 70 294 70 c 0,16,17
 350 70 350 70 391 92.5 c 128,-1,18
 432 115 432 115 453.5 152.5 c 128,-1,19
 475 190 475 190 485 230.5 c 128,-1,20
 495 271 495 271 495 315 c 0,21,22
 495 455 495 455 429.5 525.5 c 128,-1,23
 364 596 364 596 242 596 c 0,24,25
 223 596 223 596 185 592 c 1,0,1
69 53 m 1,26,27
 82 145 82 145 84 316 c 1,28,29
 22 316 22 316 -9 312 c 1,30,31
 -14 325 -14 325 -14 348 c 0,32,33
 -14 392 -14 392 31 394 c 0,34,35
 44 395 44 395 85 395 c 1,36,37
 85 557 85 557 72 661 c 1,38,39
 135 673 135 673 233 673 c 0,40,41
 314 673 314 673 378.5 656 c 128,-1,42
 443 639 443 639 496.5 601.5 c 128,-1,43
 550 564 550 564 579.5 496 c 128,-1,44
 609 428 609 428 609 333 c 0,45,46
 609 183 609 183 526 86.5 c 128,-1,47
 443 -10 443 -10 289 -10 c 0,48,49
 147 -10 147 -10 69 53 c 1,26,27
EndSplineSet
EndChar

StartChar: Ntilde
Encoding: 209 209 144
Width: 618
GlyphClass: 2
Flags: W
LayerCount: 2
Fore
SplineSet
560 1 m 1,0,1
 540 -3 540 -3 516 -3 c 0,2,3
 466 -3 466 -3 449 24 c 0,4,5
 402 101 402 101 305 265 c 128,-1,6
 208 429 208 429 160 507 c 1,7,-1
 165 256 l 1,8,9
 168 54 168 54 185 5 c 1,10,11
 163 -3 163 -3 137 -3 c 0,12,13
 100 -3 100 -3 86.5 10 c 128,-1,14
 73 23 73 23 73 54 c 0,15,16
 73 70 73 70 74 133 c 128,-1,17
 75 196 75 196 75 231 c 2,18,-1
 75 431 l 2,19,20
 75 598 75 598 56 659 c 1,21,22
 81 667 81 667 117 667 c 0,23,24
 163 667 163 667 189 638 c 0,25,26
 236 586 236 586 328.5 438 c 128,-1,27
 421 290 421 290 470 188 c 1,28,29
 462 302 462 302 462 420 c 0,30,31
 462 569 462 569 455 663 c 1,32,33
 478 666 478 666 496 666 c 0,34,35
 562 666 562 666 562 628 c 0,36,37
 562 622 562 622 560 587.5 c 128,-1,38
 558 553 558 553 555.5 501.5 c 128,-1,39
 553 450 553 450 553 404 c 2,40,-1
 553 233 l 2,41,42
 553 92 553 92 560 1 c 1,0,1
462 804 m 0,43,44
 462 774 462 774 428.5 746 c 128,-1,45
 395 718 395 718 355 718 c 0,46,47
 326 718 326 718 288 740 c 128,-1,48
 250 762 250 762 243 762 c 0,49,50
 229 762 229 762 192 716 c 1,51,52
 158 731 158 731 158 754 c 0,53,54
 158 783 158 783 191.5 809 c 128,-1,55
 225 835 225 835 266 835 c 0,56,57
 290 835 290 835 327.5 813 c 128,-1,58
 365 791 365 791 376 791 c 0,59,60
 395 791 395 791 427 836 c 1,61,62
 462 826 462 826 462 804 c 0,43,44
EndSplineSet
EndChar

StartChar: Ograve
Encoding: 210 210 145
Width: 716
GlyphClass: 2
Flags: W
LayerCount: 2
Fore
SplineSet
251 915 m 1,0,1
 291 872 291 872 335 839 c 128,-1,2
 379 806 379 806 398.5 791 c 128,-1,3
 418 776 418 776 418 760 c 0,4,5
 418 737 418 737 386 716 c 1,6,7
 355 739 355 739 303.5 766.5 c 128,-1,8
 252 794 252 794 225.5 813.5 c 128,-1,9
 199 833 199 833 199 854 c 0,10,11
 199 889 199 889 251 915 c 1,0,1
357 -10 m 0,12,13
 213 -10 213 -10 127.5 83 c 128,-1,14
 42 176 42 176 42 331 c 0,15,16
 42 488 42 488 127.5 580.5 c 128,-1,17
 213 673 213 673 357 673 c 0,18,19
 503 673 503 673 589 580.5 c 128,-1,20
 675 488 675 488 675 331 c 0,21,22
 675 176 675 176 588.5 83 c 128,-1,23
 502 -10 502 -10 357 -10 c 0,12,13
561 314 m 0,24,25
 561 386 561 386 542.5 446.5 c 128,-1,26
 524 507 524 507 476.5 550.5 c 128,-1,27
 429 594 429 594 359 594 c 0,28,29
 266 594 266 594 211 528.5 c 128,-1,30
 156 463 156 463 156 360 c 0,31,32
 156 285 156 285 174.5 222 c 128,-1,33
 193 159 193 159 240.5 114 c 128,-1,34
 288 69 288 69 358 69 c 0,35,36
 455 69 455 69 508 137 c 128,-1,37
 561 205 561 205 561 314 c 0,24,25
EndSplineSet
EndChar

StartChar: Oacute
Encoding: 211 211 146
Width: 716
GlyphClass: 2
Flags: W
LayerCount: 2
Fore
SplineSet
490 819 m 1,0,1
 472 805 472 805 414.5 773 c 128,-1,2
 357 741 357 741 330 716 c 1,3,4
 300 743 300 743 300 765 c 0,5,6
 300 778 300 778 310 787.5 c 128,-1,7
 320 797 320 797 337 807 c 128,-1,8
 354 817 354 817 389 847.5 c 128,-1,9
 424 878 424 878 463 921 c 1,10,11
 517 893 517 893 517 862 c 0,12,13
 517 838 517 838 490 819 c 1,0,1
357 -10 m 0,14,15
 213 -10 213 -10 127.5 83 c 128,-1,16
 42 176 42 176 42 331 c 0,17,18
 42 488 42 488 127.5 580.5 c 128,-1,19
 213 673 213 673 357 673 c 0,20,21
 503 673 503 673 589 580.5 c 128,-1,22
 675 488 675 488 675 331 c 0,23,24
 675 176 675 176 588.5 83 c 128,-1,25
 502 -10 502 -10 357 -10 c 0,14,15
561 314 m 0,26,27
 561 386 561 386 542.5 446.5 c 128,-1,28
 524 507 524 507 476.5 550.5 c 128,-1,29
 429 594 429 594 359 594 c 0,30,31
 266 594 266 594 211 528.5 c 128,-1,32
 156 463 156 463 156 360 c 0,33,34
 156 285 156 285 174.5 222 c 128,-1,35
 193 159 193 159 240.5 114 c 128,-1,36
 288 69 288 69 358 69 c 0,37,38
 455 69 455 69 508 137 c 128,-1,39
 561 205 561 205 561 314 c 0,26,27
EndSplineSet
EndChar

StartChar: Ocircumflex
Encoding: 212 212 147
Width: 716
GlyphClass: 2
Flags: W
LayerCount: 2
Fore
SplineSet
500 757 m 0,0,1
 500 736 500 736 463 712 c 1,2,3
 446 733 446 733 421 754.5 c 128,-1,4
 396 776 396 776 379 788 c 2,5,-1
 362 799 l 1,6,7
 275 724 275 724 248 724 c 0,8,9
 226 724 226 724 207 750 c 1,10,11
 281 837 281 837 363 895 c 1,12,13
 500 800 500 800 500 757 c 0,0,1
357 -10 m 0,14,15
 213 -10 213 -10 127.5 83 c 128,-1,16
 42 176 42 176 42 331 c 0,17,18
 42 488 42 488 127.5 580.5 c 128,-1,19
 213 673 213 673 357 673 c 0,20,21
 503 673 503 673 589 580.5 c 128,-1,22
 675 488 675 488 675 331 c 0,23,24
 675 176 675 176 588.5 83 c 128,-1,25
 502 -10 502 -10 357 -10 c 0,14,15
561 314 m 0,26,27
 561 386 561 386 542.5 446.5 c 128,-1,28
 524 507 524 507 476.5 550.5 c 128,-1,29
 429 594 429 594 359 594 c 0,30,31
 266 594 266 594 211 528.5 c 128,-1,32
 156 463 156 463 156 360 c 0,33,34
 156 285 156 285 174.5 222 c 128,-1,35
 193 159 193 159 240.5 114 c 128,-1,36
 288 69 288 69 358 69 c 0,37,38
 455 69 455 69 508 137 c 128,-1,39
 561 205 561 205 561 314 c 0,26,27
EndSplineSet
EndChar

StartChar: Otilde
Encoding: 213 213 148
Width: 716
GlyphClass: 2
Flags: W
LayerCount: 2
Fore
SplineSet
357 -10 m 0,0,1
 213 -10 213 -10 127.5 83 c 128,-1,2
 42 176 42 176 42 331 c 0,3,4
 42 488 42 488 127.5 580.5 c 128,-1,5
 213 673 213 673 357 673 c 0,6,7
 503 673 503 673 589 580.5 c 128,-1,8
 675 488 675 488 675 331 c 0,9,10
 675 176 675 176 588.5 83 c 128,-1,11
 502 -10 502 -10 357 -10 c 0,0,1
561 314 m 0,12,13
 561 386 561 386 542.5 446.5 c 128,-1,14
 524 507 524 507 476.5 550.5 c 128,-1,15
 429 594 429 594 359 594 c 0,16,17
 266 594 266 594 211 528.5 c 128,-1,18
 156 463 156 463 156 360 c 0,19,20
 156 285 156 285 174.5 222 c 128,-1,21
 193 159 193 159 240.5 114 c 128,-1,22
 288 69 288 69 358 69 c 0,23,24
 455 69 455 69 508 137 c 128,-1,25
 561 205 561 205 561 314 c 0,12,13
510 804 m 0,26,27
 510 774 510 774 476.5 746 c 128,-1,28
 443 718 443 718 403 718 c 0,29,30
 374 718 374 718 336 740 c 128,-1,31
 298 762 298 762 291 762 c 0,32,33
 277 762 277 762 240 716 c 1,34,35
 206 731 206 731 206 754 c 0,36,37
 206 783 206 783 239.5 809 c 128,-1,38
 273 835 273 835 314 835 c 0,39,40
 338 835 338 835 375.5 813 c 128,-1,41
 413 791 413 791 424 791 c 0,42,43
 443 791 443 791 475 836 c 1,44,45
 510 826 510 826 510 804 c 0,26,27
EndSplineSet
EndChar

StartChar: Odieresis
Encoding: 214 214 149
Width: 716
GlyphClass: 2
Flags: W
LayerCount: 2
Fore
SplineSet
357 -10 m 0,0,1
 213 -10 213 -10 127.5 83 c 128,-1,2
 42 176 42 176 42 331 c 0,3,4
 42 488 42 488 127.5 580.5 c 128,-1,5
 213 673 213 673 357 673 c 0,6,7
 503 673 503 673 589 580.5 c 128,-1,8
 675 488 675 488 675 331 c 0,9,10
 675 176 675 176 588.5 83 c 128,-1,11
 502 -10 502 -10 357 -10 c 0,0,1
561 314 m 0,12,13
 561 386 561 386 542.5 446.5 c 128,-1,14
 524 507 524 507 476.5 550.5 c 128,-1,15
 429 594 429 594 359 594 c 0,16,17
 266 594 266 594 211 528.5 c 128,-1,18
 156 463 156 463 156 360 c 0,19,20
 156 285 156 285 174.5 222 c 128,-1,21
 193 159 193 159 240.5 114 c 128,-1,22
 288 69 288 69 358 69 c 0,23,24
 455 69 455 69 508 137 c 128,-1,25
 561 205 561 205 561 314 c 0,12,13
452 712 m 0,26,27
 422 712 422 712 401 732 c 128,-1,28
 380 752 380 752 380 783 c 0,29,30
 380 813 380 813 402 833.5 c 128,-1,31
 424 854 424 854 454 854 c 0,32,33
 483 854 483 854 504 833.5 c 128,-1,34
 525 813 525 813 525 783 c 128,-1,35
 525 753 525 753 503 732.5 c 128,-1,36
 481 712 481 712 452 712 c 0,26,27
262 712 m 0,37,38
 232 712 232 712 211 732 c 128,-1,39
 190 752 190 752 190 783 c 0,40,41
 190 813 190 813 212 833.5 c 128,-1,42
 234 854 234 854 264 854 c 0,43,44
 293 854 293 854 314 833.5 c 128,-1,45
 335 813 335 813 335 783 c 128,-1,46
 335 753 335 753 313 732.5 c 128,-1,47
 291 712 291 712 262 712 c 0,37,38
EndSplineSet
EndChar

StartChar: multiply
Encoding: 215 215 150
Width: 535
GlyphClass: 2
Flags: W
LayerCount: 2
Fore
SplineSet
413 470 m 1,0,1
 435 458 435 458 453.5 440 c 128,-1,2
 472 422 472 422 472 407 c 0,3,4
 472 393 472 393 457 378 c 0,5,6
 443 365 443 365 391 316 c 128,-1,7
 339 267 339 267 324 254 c 1,8,9
 426 152 426 152 486 104 c 1,10,11
 462 59 462 59 419 59 c 0,12,13
 396 59 396 59 385 70 c 0,14,15
 375 80 375 80 327.5 131.5 c 128,-1,16
 280 183 280 183 266 197 c 1,17,18
 187 119 187 119 119 37 c 1,19,20
 100 50 100 50 90 57.5 c 128,-1,21
 80 65 80 65 70.5 77.5 c 128,-1,22
 61 90 61 90 61 103 c 128,-1,23
 61 116 61 116 76 131 c 0,24,25
 88 144 88 144 210 255 c 1,26,27
 102 358 102 358 49 406 c 1,28,29
 78 452 78 452 115 452 c 0,30,31
 137 452 137 452 150 439 c 0,32,33
 166 423 166 423 267 312 c 1,34,35
 365 410 365 410 413 470 c 1,0,1
EndSplineSet
EndChar

StartChar: Oslash
Encoding: 216 216 151
Width: 716
GlyphClass: 2
Flags: W
LayerCount: 2
Fore
SplineSet
221 16 m 1,0,-1
 197 -27 l 2,1,2
 175 -67 175 -67 169 -84 c 1,3,4
 123 -79 123 -79 123 -53 c 0,5,6
 123 -43 123 -43 148 2 c 2,7,-1
 171 44 l 1,8,9
 42 135 42 135 42 331 c 0,10,11
 42 488 42 488 127.5 580.5 c 128,-1,12
 213 673 213 673 357 673 c 0,13,14
 435 673 435 673 501 643 c 1,15,-1
 525 687 l 2,16,17
 535 705 535 705 553 744 c 1,18,19
 599 739 599 739 599 713 c 0,20,21
 599 702 599 702 577 663 c 2,22,-1
 550 614 l 1,23,24
 675 522 675 522 675 331 c 0,25,26
 675 176 675 176 588.5 83 c 128,-1,27
 502 -10 502 -10 357 -10 c 0,28,29
 282 -10 282 -10 221 16 c 1,0,-1
156 360 m 0,30,31
 156 213 156 213 220 134 c 1,32,-1
 458 565 l 1,33,34
 414 594 414 594 359 594 c 0,35,36
 266 594 266 594 211 528.5 c 128,-1,37
 156 463 156 463 156 360 c 0,30,31
561 314 m 0,38,39
 561 446 561 446 501 525 c 1,40,-1
 264 95 l 1,41,42
 304 69 304 69 358 69 c 0,43,44
 455 69 455 69 508 137 c 128,-1,45
 561 205 561 205 561 314 c 0,38,39
EndSplineSet
EndChar

StartChar: Ugrave
Encoding: 217 217 152
Width: 643
GlyphClass: 2
Flags: W
LayerCount: 2
Fore
SplineSet
217 915 m 1,0,1
 257 872 257 872 301 839 c 128,-1,2
 345 806 345 806 364.5 791 c 128,-1,3
 384 776 384 776 384 760 c 0,4,5
 384 737 384 737 352 716 c 1,6,7
 321 739 321 739 269.5 766.5 c 128,-1,8
 218 794 218 794 191.5 813.5 c 128,-1,9
 165 833 165 833 165 854 c 0,10,11
 165 889 165 889 217 915 c 1,0,1
61 658 m 1,12,13
 87 666 87 666 120 666 c 0,14,15
 158 666 158 666 175.5 654.5 c 128,-1,16
 193 643 193 643 193 615 c 0,17,18
 193 574 193 574 185.5 431.5 c 128,-1,19
 178 289 178 289 178 210 c 0,20,21
 178 142 178 142 213 109.5 c 128,-1,22
 248 77 248 77 295 77 c 0,23,24
 338 77 338 77 385.5 99 c 128,-1,25
 433 121 433 121 462 152 c 1,26,27
 462 159 462 159 462 183.5 c 128,-1,28
 462 208 462 208 462.5 270.5 c 128,-1,29
 463 333 463 333 463 431 c 0,30,31
 463 571 463 571 456 662 c 1,32,33
 487 666 487 666 511 666 c 0,34,35
 576 666 576 666 576 628 c 0,36,37
 576 626 576 626 574 591 c 128,-1,38
 572 556 572 556 570 481.5 c 128,-1,39
 568 407 568 407 568 309 c 0,40,41
 568 154 568 154 571 101.5 c 128,-1,42
 574 49 574 49 587 5 c 1,43,44
 565 -3 565 -3 525 -3 c 0,45,46
 489 -3 489 -3 475 9.5 c 128,-1,47
 461 22 461 22 461 56 c 2,48,-1
 461 75 l 1,49,50
 422 37 422 37 367.5 13.5 c 128,-1,51
 313 -10 313 -10 267 -10 c 0,52,53
 176 -10 176 -10 122.5 34.5 c 128,-1,54
 69 79 69 79 69 192 c 0,55,56
 69 251 69 251 73.5 352 c 128,-1,57
 78 453 78 453 78 501 c 0,58,59
 78 596 78 596 61 658 c 1,12,13
EndSplineSet
EndChar

StartChar: Uacute
Encoding: 218 218 153
Width: 643
GlyphClass: 2
Flags: W
LayerCount: 2
Fore
SplineSet
463 819 m 1,0,1
 445 805 445 805 387.5 773 c 128,-1,2
 330 741 330 741 303 716 c 1,3,4
 273 743 273 743 273 765 c 0,5,6
 273 778 273 778 283 787.5 c 128,-1,7
 293 797 293 797 310 807 c 128,-1,8
 327 817 327 817 362 847.5 c 128,-1,9
 397 878 397 878 436 921 c 1,10,11
 490 893 490 893 490 862 c 0,12,13
 490 838 490 838 463 819 c 1,0,1
61 658 m 1,14,15
 87 666 87 666 120 666 c 0,16,17
 158 666 158 666 175.5 654.5 c 128,-1,18
 193 643 193 643 193 615 c 0,19,20
 193 574 193 574 185.5 431.5 c 128,-1,21
 178 289 178 289 178 210 c 0,22,23
 178 142 178 142 213 109.5 c 128,-1,24
 248 77 248 77 295 77 c 0,25,26
 338 77 338 77 385.5 99 c 128,-1,27
 433 121 433 121 462 152 c 1,28,29
 462 159 462 159 462 183.5 c 128,-1,30
 462 208 462 208 462.5 270.5 c 128,-1,31
 463 333 463 333 463 431 c 0,32,33
 463 571 463 571 456 662 c 1,34,35
 487 666 487 666 511 666 c 0,36,37
 576 666 576 666 576 628 c 0,38,39
 576 626 576 626 574 591 c 128,-1,40
 572 556 572 556 570 481.5 c 128,-1,41
 568 407 568 407 568 309 c 0,42,43
 568 154 568 154 571 101.5 c 128,-1,44
 574 49 574 49 587 5 c 1,45,46
 565 -3 565 -3 525 -3 c 0,47,48
 489 -3 489 -3 475 9.5 c 128,-1,49
 461 22 461 22 461 56 c 2,50,-1
 461 75 l 1,51,52
 422 37 422 37 367.5 13.5 c 128,-1,53
 313 -10 313 -10 267 -10 c 0,54,55
 176 -10 176 -10 122.5 34.5 c 128,-1,56
 69 79 69 79 69 192 c 0,57,58
 69 251 69 251 73.5 352 c 128,-1,59
 78 453 78 453 78 501 c 0,60,61
 78 596 78 596 61 658 c 1,14,15
EndSplineSet
EndChar

StartChar: Ucircumflex
Encoding: 219 219 154
Width: 643
GlyphClass: 2
Flags: W
LayerCount: 2
Fore
SplineSet
467 757 m 0,0,1
 467 736 467 736 430 712 c 1,2,3
 413 733 413 733 388 754.5 c 128,-1,4
 363 776 363 776 346 788 c 2,5,-1
 329 799 l 1,6,7
 242 724 242 724 215 724 c 0,8,9
 194 724 194 724 174 750 c 1,10,11
 248 837 248 837 330 895 c 1,12,13
 467 800 467 800 467 757 c 0,0,1
61 658 m 1,14,15
 87 666 87 666 120 666 c 0,16,17
 158 666 158 666 175.5 654.5 c 128,-1,18
 193 643 193 643 193 615 c 0,19,20
 193 574 193 574 185.5 431.5 c 128,-1,21
 178 289 178 289 178 210 c 0,22,23
 178 142 178 142 213 109.5 c 128,-1,24
 248 77 248 77 295 77 c 0,25,26
 338 77 338 77 385.5 99 c 128,-1,27
 433 121 433 121 462 152 c 1,28,29
 462 159 462 159 462 183.5 c 128,-1,30
 462 208 462 208 462.5 270.5 c 128,-1,31
 463 333 463 333 463 431 c 0,32,33
 463 571 463 571 456 662 c 1,34,35
 487 666 487 666 511 666 c 0,36,37
 576 666 576 666 576 628 c 0,38,39
 576 626 576 626 574 591 c 128,-1,40
 572 556 572 556 570 481.5 c 128,-1,41
 568 407 568 407 568 309 c 0,42,43
 568 154 568 154 571 101.5 c 128,-1,44
 574 49 574 49 587 5 c 1,45,46
 565 -3 565 -3 525 -3 c 0,47,48
 489 -3 489 -3 475 9.5 c 128,-1,49
 461 22 461 22 461 56 c 2,50,-1
 461 75 l 1,51,52
 422 37 422 37 367.5 13.5 c 128,-1,53
 313 -10 313 -10 267 -10 c 0,54,55
 176 -10 176 -10 122.5 34.5 c 128,-1,56
 69 79 69 79 69 192 c 0,57,58
 69 251 69 251 73.5 352 c 128,-1,59
 78 453 78 453 78 501 c 0,60,61
 78 596 78 596 61 658 c 1,14,15
EndSplineSet
EndChar

StartChar: Udieresis
Encoding: 220 220 155
Width: 643
GlyphClass: 2
Flags: W
LayerCount: 2
Fore
SplineSet
61 658 m 1,0,1
 87 666 87 666 120 666 c 0,2,3
 158 666 158 666 175.5 654.5 c 128,-1,4
 193 643 193 643 193 615 c 0,5,6
 193 574 193 574 185.5 431.5 c 128,-1,7
 178 289 178 289 178 210 c 0,8,9
 178 142 178 142 213 109.5 c 128,-1,10
 248 77 248 77 295 77 c 0,11,12
 338 77 338 77 385.5 99 c 128,-1,13
 433 121 433 121 462 152 c 1,14,15
 462 159 462 159 462 183.5 c 128,-1,16
 462 208 462 208 462.5 270.5 c 128,-1,17
 463 333 463 333 463 431 c 0,18,19
 463 571 463 571 456 662 c 1,20,21
 487 666 487 666 511 666 c 0,22,23
 576 666 576 666 576 628 c 0,24,25
 576 626 576 626 574 591 c 128,-1,26
 572 556 572 556 570 481.5 c 128,-1,27
 568 407 568 407 568 309 c 0,28,29
 568 154 568 154 571 101.5 c 128,-1,30
 574 49 574 49 587 5 c 1,31,32
 565 -3 565 -3 525 -3 c 0,33,34
 489 -3 489 -3 475 9.5 c 128,-1,35
 461 22 461 22 461 56 c 2,36,-1
 461 75 l 1,37,38
 422 37 422 37 367.5 13.5 c 128,-1,39
 313 -10 313 -10 267 -10 c 0,40,41
 176 -10 176 -10 122.5 34.5 c 128,-1,42
 69 79 69 79 69 192 c 0,43,44
 69 251 69 251 73.5 352 c 128,-1,45
 78 453 78 453 78 501 c 0,46,47
 78 596 78 596 61 658 c 1,0,1
430 712 m 0,48,49
 400 712 400 712 379 732 c 128,-1,50
 358 752 358 752 358 783 c 0,51,52
 358 813 358 813 380 833.5 c 128,-1,53
 402 854 402 854 432 854 c 0,54,55
 461 854 461 854 482 833.5 c 128,-1,56
 503 813 503 813 503 783 c 128,-1,57
 503 753 503 753 481 732.5 c 128,-1,58
 459 712 459 712 430 712 c 0,48,49
240 712 m 0,59,60
 210 712 210 712 189 732 c 128,-1,61
 168 752 168 752 168 783 c 0,62,63
 168 813 168 813 190 833.5 c 128,-1,64
 212 854 212 854 242 854 c 0,65,66
 271 854 271 854 292 833.5 c 128,-1,67
 313 813 313 813 313 783 c 128,-1,68
 313 753 313 753 291 732.5 c 128,-1,69
 269 712 269 712 240 712 c 0,59,60
EndSplineSet
EndChar

StartChar: Yacute
Encoding: 221 221 156
Width: 507
GlyphClass: 2
Flags: W
LayerCount: 2
Fore
SplineSet
399 819 m 1,0,1
 381 805 381 805 323.5 773 c 128,-1,2
 266 741 266 741 239 716 c 1,3,4
 209 743 209 743 209 765 c 0,5,6
 209 778 209 778 219 787.5 c 128,-1,7
 229 797 229 797 246 807 c 128,-1,8
 263 817 263 817 298 847.5 c 128,-1,9
 333 878 333 878 372 921 c 1,10,11
 426 893 426 893 426 862 c 0,12,13
 426 838 426 838 399 819 c 1,0,1
503 616 m 0,14,15
 503 581 503 581 438.5 483 c 128,-1,16
 374 385 374 385 310 307 c 1,17,-1
 310 203 l 2,18,19
 310 70 310 70 329 7 c 1,20,21
 301 -3 301 -3 267 -3 c 0,22,23
 230 -3 230 -3 216.5 10 c 128,-1,24
 203 23 203 23 203 54 c 0,25,26
 203 70 203 70 204 133 c 128,-1,27
 205 196 205 196 205 231 c 2,28,-1
 205 303 l 1,29,30
 64 565 64 565 -9 614 c 1,31,32
 7 635 7 635 32 651 c 128,-1,33
 57 667 57 667 80 667 c 0,34,35
 115 667 115 667 139 633 c 0,36,37
 213 524 213 524 277 386 c 1,38,39
 323 457 323 457 363 547 c 128,-1,40
 403 637 403 637 408 672 c 1,41,42
 503 668 503 668 503 616 c 0,14,15
EndSplineSet
EndChar

StartChar: Thorn
Encoding: 222 222 157
Width: 517
GlyphClass: 2
Flags: W
LayerCount: 2
Fore
SplineSet
63 231 m 2,0,-1
 63 431 l 2,1,2
 63 570 63 570 56 661 c 1,3,4
 86 666 86 666 109 666 c 0,5,6
 176 666 176 666 176 628 c 1,7,-1
 172 562 l 1,8,9
 183 563 183 563 206 563 c 0,10,11
 487 563 487 563 487 342 c 0,12,13
 487 235 487 235 426.5 179 c 128,-1,14
 366 123 366 123 284 123 c 0,15,16
 217 123 217 123 168 155 c 1,17,18
 170 61 170 61 187 7 c 1,19,20
 159 -3 159 -3 125 -3 c 0,21,22
 88 -3 88 -3 74.5 10 c 128,-1,23
 61 23 61 23 61 54 c 0,24,25
 61 70 61 70 62 133 c 128,-1,26
 63 196 63 196 63 231 c 2,0,-1
252 202 m 0,27,28
 309 202 309 202 341 238.5 c 128,-1,29
 373 275 373 275 373 337 c 0,30,31
 373 422 373 422 337 454 c 128,-1,32
 301 486 301 486 225 486 c 0,33,34
 207 486 207 486 169 482 c 1,35,36
 168 457 168 457 168 219 c 1,37,38
 201 202 201 202 252 202 c 0,27,28
EndSplineSet
EndChar

StartChar: germandbls
Encoding: 223 223 158
Width: 537
GlyphClass: 2
Flags: W
LayerCount: 2
Fore
SplineSet
172 488 m 2,0,-1
 172 199 l 2,1,2
 172 182 172 182 172.5 138 c 128,-1,3
 173 94 173 94 173 56 c 0,4,5
 173 24 173 24 159 10.5 c 128,-1,6
 145 -3 145 -3 109 -3 c 0,7,8
 85 -3 85 -3 55 11 c 1,9,10
 74 73 74 73 74 205 c 2,11,-1
 74 461 l 2,12,13
 74 566 74 566 129.5 620 c 128,-1,14
 185 674 185 674 261 674 c 0,15,16
 324 674 324 674 368.5 643 c 128,-1,17
 413 612 413 612 413 558 c 0,18,19
 413 510 413 510 395 477.5 c 128,-1,20
 377 445 377 445 356 432 c 128,-1,21
 335 419 335 419 317 402.5 c 128,-1,22
 299 386 299 386 299 368 c 0,23,24
 299 344 299 344 330.5 319 c 128,-1,25
 362 294 362 294 399 274 c 128,-1,26
 436 254 436 254 467.5 216.5 c 128,-1,27
 499 179 499 179 499 132 c 0,28,29
 499 76 499 76 454 33 c 128,-1,30
 409 -10 409 -10 345 -10 c 0,31,32
 293 -10 293 -10 253.5 15 c 128,-1,33
 214 40 214 40 214 76 c 0,34,35
 214 96 214 96 233 108 c 128,-1,36
 252 120 252 120 289 131 c 1,37,38
 296 97 296 97 314 79 c 128,-1,39
 332 61 332 61 352 61 c 0,40,41
 370 61 370 61 383.5 78.5 c 128,-1,42
 397 96 397 96 397 120 c 0,43,44
 397 149 397 149 377.5 174 c 128,-1,45
 358 199 358 199 330 217.5 c 128,-1,46
 302 236 302 236 274 255 c 128,-1,47
 246 274 246 274 226.5 302 c 128,-1,48
 207 330 207 330 207 364 c 0,49,50
 207 389 207 389 223.5 410 c 128,-1,51
 240 431 240 431 259 444 c 128,-1,52
 278 457 278 457 294.5 482 c 128,-1,53
 311 507 311 507 311 539 c 0,54,55
 311 570 311 570 295.5 586.5 c 128,-1,56
 280 603 280 603 255 603 c 0,57,58
 221 603 221 603 196.5 574.5 c 128,-1,59
 172 546 172 546 172 488 c 2,0,-1
EndSplineSet
EndChar

StartChar: agrave
Encoding: 224 224 159
Width: 478
GlyphClass: 2
Flags: W
LayerCount: 2
Fore
SplineSet
128 722 m 1,0,1
 168 679 168 679 212 646 c 128,-1,2
 256 613 256 613 275.5 598 c 128,-1,3
 295 583 295 583 295 567 c 0,4,5
 295 544 295 544 263 523 c 1,6,7
 232 546 232 546 180.5 573.5 c 128,-1,8
 129 601 129 601 102.5 620.5 c 128,-1,9
 76 640 76 640 76 661 c 0,10,11
 76 696 76 696 128 722 c 1,0,1
303 143 m 0,12,13
 303 189 303 189 305 214 c 1,14,15
 275 210 275 210 261.5 208 c 128,-1,16
 248 206 248 206 225 202 c 128,-1,17
 202 198 202 198 191.5 193 c 128,-1,18
 181 188 181 188 169 181 c 128,-1,19
 157 174 157 174 152 163.5 c 128,-1,20
 147 153 147 153 147 139 c 0,21,22
 147 99 147 99 167 80 c 128,-1,23
 187 61 187 61 218 61 c 0,24,25
 269 61 269 61 305 99 c 1,26,27
 303 112 303 112 303 143 c 0,12,13
307 275 m 1,28,29
 307 309 307 309 305.5 327 c 128,-1,30
 304 345 304 345 297.5 368 c 128,-1,31
 291 391 291 391 275.5 401.5 c 128,-1,32
 260 412 260 412 234 412 c 0,33,34
 201 412 201 412 171.5 390.5 c 128,-1,35
 142 369 142 369 129 331 c 1,36,37
 40 332 40 332 40 384 c 0,38,39
 40 427 40 427 100.5 456 c 128,-1,40
 161 485 161 485 238 485 c 0,41,42
 330 485 330 485 372.5 447 c 128,-1,43
 415 409 415 409 415 311 c 0,44,45
 415 308 415 308 414 264 c 128,-1,46
 413 220 413 220 413 178 c 0,47,48
 413 64 413 64 432 7 c 1,49,50
 403 -4 403 -4 375 -4 c 0,51,52
 319 -4 319 -4 308 42 c 1,53,54
 248 -10 248 -10 173 -10 c 0,55,56
 115 -10 115 -10 76.5 26 c 128,-1,57
 38 62 38 62 38 132 c 0,58,59
 38 188 38 188 62 215 c 128,-1,60
 86 242 86 242 126 255 c 0,61,62
 186 274 186 274 307 275 c 1,28,29
EndSplineSet
EndChar

StartChar: aacute
Encoding: 225 225 160
Width: 478
GlyphClass: 2
Flags: W
LayerCount: 2
Fore
SplineSet
367 626 m 1,0,1
 349 612 349 612 291.5 580 c 128,-1,2
 234 548 234 548 207 523 c 1,3,4
 177 550 177 550 177 572 c 0,5,6
 177 585 177 585 187 594.5 c 128,-1,7
 197 604 197 604 214 614 c 128,-1,8
 231 624 231 624 266 654.5 c 128,-1,9
 301 685 301 685 340 728 c 1,10,11
 394 700 394 700 394 669 c 0,12,13
 394 645 394 645 367 626 c 1,0,1
303 143 m 0,14,15
 303 189 303 189 305 214 c 1,16,17
 275 210 275 210 261.5 208 c 128,-1,18
 248 206 248 206 225 202 c 128,-1,19
 202 198 202 198 191.5 193 c 128,-1,20
 181 188 181 188 169 181 c 128,-1,21
 157 174 157 174 152 163.5 c 128,-1,22
 147 153 147 153 147 139 c 0,23,24
 147 99 147 99 167 80 c 128,-1,25
 187 61 187 61 218 61 c 0,26,27
 269 61 269 61 305 99 c 1,28,29
 303 112 303 112 303 143 c 0,14,15
307 275 m 1,30,31
 307 309 307 309 305.5 327 c 128,-1,32
 304 345 304 345 297.5 368 c 128,-1,33
 291 391 291 391 275.5 401.5 c 128,-1,34
 260 412 260 412 234 412 c 0,35,36
 201 412 201 412 171.5 390.5 c 128,-1,37
 142 369 142 369 129 331 c 1,38,39
 40 332 40 332 40 384 c 0,40,41
 40 427 40 427 100.5 456 c 128,-1,42
 161 485 161 485 238 485 c 0,43,44
 330 485 330 485 372.5 447 c 128,-1,45
 415 409 415 409 415 311 c 0,46,47
 415 308 415 308 414 264 c 128,-1,48
 413 220 413 220 413 178 c 0,49,50
 413 64 413 64 432 7 c 1,51,52
 403 -4 403 -4 375 -4 c 0,53,54
 319 -4 319 -4 308 42 c 1,55,56
 248 -10 248 -10 173 -10 c 0,57,58
 115 -10 115 -10 76.5 26 c 128,-1,59
 38 62 38 62 38 132 c 0,60,61
 38 188 38 188 62 215 c 128,-1,62
 86 242 86 242 126 255 c 0,63,64
 186 274 186 274 307 275 c 1,30,31
EndSplineSet
EndChar

StartChar: acircumflex
Encoding: 226 226 161
Width: 478
GlyphClass: 2
Flags: W
LayerCount: 2
Fore
SplineSet
372 564 m 0,0,1
 372 543 372 543 335 519 c 1,2,3
 318 540 318 540 293 561.5 c 128,-1,4
 268 583 268 583 251 594 c 2,5,-1
 234 606 l 1,6,7
 147 531 147 531 120 531 c 0,8,9
 98 531 98 531 79 557 c 1,10,11
 153 644 153 644 235 702 c 1,12,13
 372 607 372 607 372 564 c 0,0,1
303 143 m 0,14,15
 303 189 303 189 305 214 c 1,16,17
 275 210 275 210 261.5 208 c 128,-1,18
 248 206 248 206 225 202 c 128,-1,19
 202 198 202 198 191.5 193 c 128,-1,20
 181 188 181 188 169 181 c 128,-1,21
 157 174 157 174 152 163.5 c 128,-1,22
 147 153 147 153 147 139 c 0,23,24
 147 99 147 99 167 80 c 128,-1,25
 187 61 187 61 218 61 c 0,26,27
 269 61 269 61 305 99 c 1,28,29
 303 112 303 112 303 143 c 0,14,15
307 275 m 1,30,31
 307 309 307 309 305.5 327 c 128,-1,32
 304 345 304 345 297.5 368 c 128,-1,33
 291 391 291 391 275.5 401.5 c 128,-1,34
 260 412 260 412 234 412 c 0,35,36
 201 412 201 412 171.5 390.5 c 128,-1,37
 142 369 142 369 129 331 c 1,38,39
 40 332 40 332 40 384 c 0,40,41
 40 427 40 427 100.5 456 c 128,-1,42
 161 485 161 485 238 485 c 0,43,44
 330 485 330 485 372.5 447 c 128,-1,45
 415 409 415 409 415 311 c 0,46,47
 415 308 415 308 414 264 c 128,-1,48
 413 220 413 220 413 178 c 0,49,50
 413 64 413 64 432 7 c 1,51,52
 403 -4 403 -4 375 -4 c 0,53,54
 319 -4 319 -4 308 42 c 1,55,56
 248 -10 248 -10 173 -10 c 0,57,58
 115 -10 115 -10 76.5 26 c 128,-1,59
 38 62 38 62 38 132 c 0,60,61
 38 188 38 188 62 215 c 128,-1,62
 86 242 86 242 126 255 c 0,63,64
 186 274 186 274 307 275 c 1,30,31
EndSplineSet
EndChar

StartChar: atilde
Encoding: 227 227 162
Width: 478
GlyphClass: 2
Flags: W
LayerCount: 2
Fore
SplineSet
303 143 m 0,0,1
 303 189 303 189 305 214 c 1,2,3
 275 210 275 210 261.5 208 c 128,-1,4
 248 206 248 206 225 202 c 128,-1,5
 202 198 202 198 191.5 193 c 128,-1,6
 181 188 181 188 169 181 c 128,-1,7
 157 174 157 174 152 163.5 c 128,-1,8
 147 153 147 153 147 139 c 0,9,10
 147 99 147 99 167 80 c 128,-1,11
 187 61 187 61 218 61 c 0,12,13
 269 61 269 61 305 99 c 1,14,15
 303 112 303 112 303 143 c 0,0,1
307 275 m 1,16,17
 307 309 307 309 305.5 327 c 128,-1,18
 304 345 304 345 297.5 368 c 128,-1,19
 291 391 291 391 275.5 401.5 c 128,-1,20
 260 412 260 412 234 412 c 0,21,22
 201 412 201 412 171.5 390.5 c 128,-1,23
 142 369 142 369 129 331 c 1,24,25
 40 332 40 332 40 384 c 0,26,27
 40 427 40 427 100.5 456 c 128,-1,28
 161 485 161 485 238 485 c 0,29,30
 330 485 330 485 372.5 447 c 128,-1,31
 415 409 415 409 415 311 c 0,32,33
 415 308 415 308 414 264 c 128,-1,34
 413 220 413 220 413 178 c 0,35,36
 413 64 413 64 432 7 c 1,37,38
 403 -4 403 -4 375 -4 c 0,39,40
 319 -4 319 -4 308 42 c 1,41,42
 248 -10 248 -10 173 -10 c 0,43,44
 115 -10 115 -10 76.5 26 c 128,-1,45
 38 62 38 62 38 132 c 0,46,47
 38 188 38 188 62 215 c 128,-1,48
 86 242 86 242 126 255 c 0,49,50
 186 274 186 274 307 275 c 1,16,17
388 617 m 0,51,52
 388 587 388 587 354.5 559 c 128,-1,53
 321 531 321 531 281 531 c 0,54,55
 252 531 252 531 214 553 c 128,-1,56
 176 575 176 575 169 575 c 0,57,58
 155 575 155 575 118 529 c 1,59,60
 84 544 84 544 84 567 c 0,61,62
 84 596 84 596 117.5 622 c 128,-1,63
 151 648 151 648 192 648 c 0,64,65
 216 648 216 648 253.5 626 c 128,-1,66
 291 604 291 604 302 604 c 0,67,68
 321 604 321 604 353 649 c 1,69,70
 388 639 388 639 388 617 c 0,51,52
EndSplineSet
EndChar

StartChar: adieresis
Encoding: 228 228 163
Width: 478
GlyphClass: 2
Flags: W
LayerCount: 2
Fore
SplineSet
303 143 m 0,0,1
 303 189 303 189 305 214 c 1,2,3
 275 210 275 210 261.5 208 c 128,-1,4
 248 206 248 206 225 202 c 128,-1,5
 202 198 202 198 191.5 193 c 128,-1,6
 181 188 181 188 169 181 c 128,-1,7
 157 174 157 174 152 163.5 c 128,-1,8
 147 153 147 153 147 139 c 0,9,10
 147 99 147 99 167 80 c 128,-1,11
 187 61 187 61 218 61 c 0,12,13
 269 61 269 61 305 99 c 1,14,15
 303 112 303 112 303 143 c 0,0,1
307 275 m 1,16,17
 307 309 307 309 305.5 327 c 128,-1,18
 304 345 304 345 297.5 368 c 128,-1,19
 291 391 291 391 275.5 401.5 c 128,-1,20
 260 412 260 412 234 412 c 0,21,22
 201 412 201 412 171.5 390.5 c 128,-1,23
 142 369 142 369 129 331 c 1,24,25
 40 332 40 332 40 384 c 0,26,27
 40 427 40 427 100.5 456 c 128,-1,28
 161 485 161 485 238 485 c 0,29,30
 330 485 330 485 372.5 447 c 128,-1,31
 415 409 415 409 415 311 c 0,32,33
 415 308 415 308 414 264 c 128,-1,34
 413 220 413 220 413 178 c 0,35,36
 413 64 413 64 432 7 c 1,37,38
 403 -4 403 -4 375 -4 c 0,39,40
 319 -4 319 -4 308 42 c 1,41,42
 248 -10 248 -10 173 -10 c 0,43,44
 115 -10 115 -10 76.5 26 c 128,-1,45
 38 62 38 62 38 132 c 0,46,47
 38 188 38 188 62 215 c 128,-1,48
 86 242 86 242 126 255 c 0,49,50
 186 274 186 274 307 275 c 1,16,17
335 520 m 0,51,52
 305 520 305 520 284 540 c 128,-1,53
 263 560 263 560 263 591 c 0,54,55
 263 621 263 621 285 641.5 c 128,-1,56
 307 662 307 662 337 662 c 0,57,58
 366 662 366 662 387 641.5 c 128,-1,59
 408 621 408 621 408 591 c 128,-1,60
 408 561 408 561 386 540.5 c 128,-1,61
 364 520 364 520 335 520 c 0,51,52
145 520 m 0,62,63
 115 520 115 520 94 540 c 128,-1,64
 73 560 73 560 73 591 c 0,65,66
 73 621 73 621 95 641.5 c 128,-1,67
 117 662 117 662 147 662 c 0,68,69
 176 662 176 662 197 641.5 c 128,-1,70
 218 621 218 621 218 591 c 128,-1,71
 218 561 218 561 196 540.5 c 128,-1,72
 174 520 174 520 145 520 c 0,62,63
EndSplineSet
EndChar

StartChar: aring
Encoding: 229 229 164
Width: 478
GlyphClass: 2
Flags: W
LayerCount: 2
Fore
SplineSet
262 610 m 0,0,1
 262 633 262 633 252.5 647.5 c 128,-1,2
 243 662 243 662 226 662 c 0,3,4
 188 662 188 662 188 619 c 0,5,6
 188 597 188 597 198.5 582.5 c 128,-1,7
 209 568 209 568 226 568 c 0,8,9
 262 568 262 568 262 610 c 0,0,1
226 520 m 128,-1,11
 184 520 184 520 157.5 546 c 128,-1,12
 131 572 131 572 131 615 c 128,-1,13
 131 658 131 658 157.5 684 c 128,-1,14
 184 710 184 710 226 710 c 128,-1,15
 268 710 268 710 293.5 684 c 128,-1,16
 319 658 319 658 319 615 c 128,-1,17
 319 572 319 572 293.5 546 c 128,-1,10
 268 520 268 520 226 520 c 128,-1,11
303 143 m 0,18,19
 303 189 303 189 305 214 c 1,20,21
 275 210 275 210 261.5 208 c 128,-1,22
 248 206 248 206 225 202 c 128,-1,23
 202 198 202 198 191.5 193 c 128,-1,24
 181 188 181 188 169 181 c 128,-1,25
 157 174 157 174 152 163.5 c 128,-1,26
 147 153 147 153 147 139 c 0,27,28
 147 99 147 99 167 80 c 128,-1,29
 187 61 187 61 218 61 c 0,30,31
 269 61 269 61 305 99 c 1,32,33
 303 112 303 112 303 143 c 0,18,19
307 275 m 1,34,35
 307 309 307 309 305.5 327 c 128,-1,36
 304 345 304 345 297.5 368 c 128,-1,37
 291 391 291 391 275.5 401.5 c 128,-1,38
 260 412 260 412 234 412 c 0,39,40
 201 412 201 412 171.5 390.5 c 128,-1,41
 142 369 142 369 129 331 c 1,42,43
 40 332 40 332 40 384 c 0,44,45
 40 427 40 427 100.5 456 c 128,-1,46
 161 485 161 485 238 485 c 0,47,48
 330 485 330 485 372.5 447 c 128,-1,49
 415 409 415 409 415 311 c 0,50,51
 415 308 415 308 414 264 c 128,-1,52
 413 220 413 220 413 178 c 0,53,54
 413 64 413 64 432 7 c 1,55,56
 403 -4 403 -4 375 -4 c 0,57,58
 319 -4 319 -4 308 42 c 1,59,60
 248 -10 248 -10 173 -10 c 0,61,62
 115 -10 115 -10 76.5 26 c 128,-1,63
 38 62 38 62 38 132 c 0,64,65
 38 188 38 188 62 215 c 128,-1,66
 86 242 86 242 126 255 c 0,67,68
 186 274 186 274 307 275 c 1,34,35
EndSplineSet
EndChar

StartChar: ae
Encoding: 230 230 165
Width: 753
GlyphClass: 2
Flags: W
LayerCount: 2
Fore
SplineSet
218 61 m 0,0,1
 275 61 275 61 328 120 c 1,2,3
 311 155 311 155 305 215 c 1,4,5
 265 210 265 210 243 206 c 128,-1,6
 221 202 221 202 195.5 193.5 c 128,-1,7
 170 185 170 185 158.5 171.5 c 128,-1,8
 147 158 147 158 147 139 c 0,9,10
 147 99 147 99 167 80 c 128,-1,11
 187 61 187 61 218 61 c 0,0,1
533 412 m 0,12,13
 486 412 486 412 453 376 c 128,-1,14
 420 340 420 340 414 262 c 1,15,16
 478 262 478 262 508 265 c 0,17,18
 605 277 605 277 605 341 c 0,19,20
 605 370 605 370 584.5 391 c 128,-1,21
 564 412 564 412 533 412 c 0,12,13
490 197 m 0,22,23
 463 197 463 197 417 199 c 1,24,25
 427 128 427 128 462.5 95 c 128,-1,26
 498 62 498 62 550 62 c 0,27,28
 577 62 577 62 606 76 c 128,-1,29
 635 90 635 90 649 116 c 1,30,31
 698 90 698 90 698 60 c 0,32,33
 698 26 698 26 651 8 c 128,-1,34
 604 -10 604 -10 546 -10 c 0,35,36
 491 -10 491 -10 439.5 12 c 128,-1,37
 388 34 388 34 354 78 c 1,38,39
 268 -10 268 -10 173 -10 c 0,40,41
 115 -10 115 -10 76.5 26 c 128,-1,42
 38 62 38 62 38 132 c 0,43,44
 38 188 38 188 62 215 c 128,-1,45
 86 242 86 242 126 255 c 0,46,47
 186 274 186 274 307 275 c 1,48,49
 307 309 307 309 305.5 327 c 128,-1,50
 304 345 304 345 297.5 368 c 128,-1,51
 291 391 291 391 275.5 401.5 c 128,-1,52
 260 412 260 412 234 412 c 0,53,54
 201 412 201 412 171.5 390.5 c 128,-1,55
 142 369 142 369 129 331 c 1,56,57
 40 332 40 332 40 384 c 0,58,59
 40 427 40 427 100.5 456 c 128,-1,60
 161 485 161 485 238 485 c 0,61,62
 294 485 294 485 330 470.5 c 128,-1,63
 366 456 366 456 387 420 c 1,64,65
 448 485 448 485 542 485 c 0,66,67
 619 485 619 485 666.5 443 c 128,-1,68
 714 401 714 401 714 343 c 0,69,70
 714 296 714 296 696.5 265.5 c 128,-1,71
 679 235 679 235 645 221 c 128,-1,72
 611 207 611 207 576 202 c 128,-1,73
 541 197 541 197 490 197 c 0,22,23
EndSplineSet
EndChar

StartChar: ccedilla
Encoding: 231 231 166
Width: 464
GlyphClass: 2
Flags: W
LayerCount: 2
Fore
SplineSet
283 62 m 0,0,1
 310 62 310 62 339 76 c 128,-1,2
 368 90 368 90 382 116 c 1,3,4
 431 90 431 90 431 60 c 0,5,6
 431 26 431 26 384 8 c 128,-1,7
 337 -10 337 -10 279 -10 c 0,8,9
 269 -10 269 -10 251 -8 c 1,10,11
 244 -29 244 -29 244 -39 c 0,12,13
 244 -45 244 -45 267 -58 c 0,14,15
 326 -89 326 -89 326 -139 c 0,16,17
 326 -180 326 -180 288 -212 c 128,-1,18
 250 -244 250 -244 193 -244 c 0,19,20
 142 -244 142 -244 142 -212 c 0,21,22
 142 -193 142 -193 167 -170 c 1,23,24
 183 -184 183 -184 206 -184 c 0,25,26
 243 -184 243 -184 243 -153 c 0,27,28
 243 -132 243 -132 208.5 -108 c 128,-1,29
 174 -84 174 -84 174 -62 c 128,-1,30
 174 -40 174 -40 193 4 c 1,31,32
 125 27 125 27 81.5 84.5 c 128,-1,33
 38 142 38 142 38 233 c 0,34,35
 38 357 38 357 110 421 c 128,-1,36
 182 485 182 485 274 485 c 0,37,38
 330 485 330 485 380.5 458.5 c 128,-1,39
 431 432 431 432 431 385 c 0,40,41
 431 364 431 364 410 351 c 128,-1,42
 389 338 389 338 353 334 c 1,43,44
 345 370 345 370 317 390 c 128,-1,45
 289 410 289 410 260 410 c 0,46,47
 212 410 212 410 180 364 c 128,-1,48
 148 318 148 318 148 244 c 0,49,50
 148 149 148 149 185.5 105.5 c 128,-1,51
 223 62 223 62 283 62 c 0,0,1
EndSplineSet
EndChar

StartChar: egrave
Encoding: 232 232 167
Width: 485
GlyphClass: 2
Flags: W
LayerCount: 2
Fore
SplineSet
165 722 m 1,0,1
 205 679 205 679 249 646 c 128,-1,2
 293 613 293 613 312.5 598 c 128,-1,3
 332 583 332 583 332 567 c 0,4,5
 332 544 332 544 300 523 c 1,6,7
 269 546 269 546 217.5 573.5 c 128,-1,8
 166 601 166 601 139.5 620.5 c 128,-1,9
 113 640 113 640 113 661 c 0,10,11
 113 696 113 696 165 722 c 1,0,1
223 197 m 0,12,13
 196 197 196 197 150 199 c 1,14,15
 160 128 160 128 195.5 95 c 128,-1,16
 231 62 231 62 283 62 c 0,17,18
 310 62 310 62 339 76 c 128,-1,19
 368 90 368 90 382 116 c 1,20,21
 431 90 431 90 431 60 c 0,22,23
 431 26 431 26 384 8 c 128,-1,24
 337 -10 337 -10 279 -10 c 0,25,26
 185 -10 185 -10 111.5 52 c 128,-1,27
 38 114 38 114 38 231 c 0,28,29
 38 354 38 354 108.5 419.5 c 128,-1,30
 179 485 179 485 275 485 c 0,31,32
 352 485 352 485 399.5 443 c 128,-1,33
 447 401 447 401 447 343 c 0,34,35
 447 296 447 296 429.5 265.5 c 128,-1,36
 412 235 412 235 378 221 c 128,-1,37
 344 207 344 207 309 202 c 128,-1,38
 274 197 274 197 223 197 c 0,12,13
266 412 m 0,39,40
 219 412 219 412 186 376 c 128,-1,41
 153 340 153 340 147 262 c 1,42,43
 211 262 211 262 241 265 c 0,44,45
 338 277 338 277 338 341 c 0,46,47
 338 370 338 370 317.5 391 c 128,-1,48
 297 412 297 412 266 412 c 0,39,40
EndSplineSet
EndChar

StartChar: eacute
Encoding: 233 233 168
Width: 485
GlyphClass: 2
Flags: W
LayerCount: 2
Fore
SplineSet
384 626 m 1,0,1
 366 612 366 612 308.5 580 c 128,-1,2
 251 548 251 548 224 523 c 1,3,4
 194 550 194 550 194 572 c 0,5,6
 194 585 194 585 204 594.5 c 128,-1,7
 214 604 214 604 231 614 c 128,-1,8
 248 624 248 624 283 654.5 c 128,-1,9
 318 685 318 685 357 728 c 1,10,11
 411 700 411 700 411 669 c 0,12,13
 411 645 411 645 384 626 c 1,0,1
223 197 m 0,14,15
 196 197 196 197 150 199 c 1,16,17
 160 128 160 128 195.5 95 c 128,-1,18
 231 62 231 62 283 62 c 0,19,20
 310 62 310 62 339 76 c 128,-1,21
 368 90 368 90 382 116 c 1,22,23
 431 90 431 90 431 60 c 0,24,25
 431 26 431 26 384 8 c 128,-1,26
 337 -10 337 -10 279 -10 c 0,27,28
 185 -10 185 -10 111.5 52 c 128,-1,29
 38 114 38 114 38 231 c 0,30,31
 38 354 38 354 108.5 419.5 c 128,-1,32
 179 485 179 485 275 485 c 0,33,34
 352 485 352 485 399.5 443 c 128,-1,35
 447 401 447 401 447 343 c 0,36,37
 447 296 447 296 429.5 265.5 c 128,-1,38
 412 235 412 235 378 221 c 128,-1,39
 344 207 344 207 309 202 c 128,-1,40
 274 197 274 197 223 197 c 0,14,15
266 412 m 0,41,42
 219 412 219 412 186 376 c 128,-1,43
 153 340 153 340 147 262 c 1,44,45
 211 262 211 262 241 265 c 0,46,47
 338 277 338 277 338 341 c 0,48,49
 338 370 338 370 317.5 391 c 128,-1,50
 297 412 297 412 266 412 c 0,41,42
EndSplineSet
EndChar

StartChar: ecircumflex
Encoding: 234 234 169
Width: 485
GlyphClass: 2
Flags: W
LayerCount: 2
Fore
SplineSet
408 564 m 0,0,1
 408 543 408 543 371 519 c 1,2,3
 354 540 354 540 329 561.5 c 128,-1,4
 304 583 304 583 287 594 c 2,5,-1
 270 606 l 1,6,7
 183 531 183 531 156 531 c 0,8,9
 134 531 134 531 115 557 c 1,10,11
 189 644 189 644 271 702 c 1,12,13
 408 607 408 607 408 564 c 0,0,1
223 197 m 0,14,15
 196 197 196 197 150 199 c 1,16,17
 160 128 160 128 195.5 95 c 128,-1,18
 231 62 231 62 283 62 c 0,19,20
 310 62 310 62 339 76 c 128,-1,21
 368 90 368 90 382 116 c 1,22,23
 431 90 431 90 431 60 c 0,24,25
 431 26 431 26 384 8 c 128,-1,26
 337 -10 337 -10 279 -10 c 0,27,28
 185 -10 185 -10 111.5 52 c 128,-1,29
 38 114 38 114 38 231 c 0,30,31
 38 354 38 354 108.5 419.5 c 128,-1,32
 179 485 179 485 275 485 c 0,33,34
 352 485 352 485 399.5 443 c 128,-1,35
 447 401 447 401 447 343 c 0,36,37
 447 296 447 296 429.5 265.5 c 128,-1,38
 412 235 412 235 378 221 c 128,-1,39
 344 207 344 207 309 202 c 128,-1,40
 274 197 274 197 223 197 c 0,14,15
266 412 m 0,41,42
 219 412 219 412 186 376 c 128,-1,43
 153 340 153 340 147 262 c 1,44,45
 211 262 211 262 241 265 c 0,46,47
 338 277 338 277 338 341 c 0,48,49
 338 370 338 370 317.5 391 c 128,-1,50
 297 412 297 412 266 412 c 0,41,42
EndSplineSet
EndChar

StartChar: edieresis
Encoding: 235 235 170
Width: 485
GlyphClass: 2
Flags: W
LayerCount: 2
Fore
SplineSet
223 197 m 0,0,1
 196 197 196 197 150 199 c 1,2,3
 160 128 160 128 195.5 95 c 128,-1,4
 231 62 231 62 283 62 c 0,5,6
 310 62 310 62 339 76 c 128,-1,7
 368 90 368 90 382 116 c 1,8,9
 431 90 431 90 431 60 c 0,10,11
 431 26 431 26 384 8 c 128,-1,12
 337 -10 337 -10 279 -10 c 0,13,14
 185 -10 185 -10 111.5 52 c 128,-1,15
 38 114 38 114 38 231 c 0,16,17
 38 354 38 354 108.5 419.5 c 128,-1,18
 179 485 179 485 275 485 c 0,19,20
 352 485 352 485 399.5 443 c 128,-1,21
 447 401 447 401 447 343 c 0,22,23
 447 296 447 296 429.5 265.5 c 128,-1,24
 412 235 412 235 378 221 c 128,-1,25
 344 207 344 207 309 202 c 128,-1,26
 274 197 274 197 223 197 c 0,0,1
266 412 m 0,27,28
 219 412 219 412 186 376 c 128,-1,29
 153 340 153 340 147 262 c 1,30,31
 211 262 211 262 241 265 c 0,32,33
 338 277 338 277 338 341 c 0,34,35
 338 370 338 370 317.5 391 c 128,-1,36
 297 412 297 412 266 412 c 0,27,28
372 520 m 0,37,38
 342 520 342 520 321 540 c 128,-1,39
 300 560 300 560 300 591 c 0,40,41
 300 621 300 621 322 641.5 c 128,-1,42
 344 662 344 662 374 662 c 0,43,44
 403 662 403 662 424 641.5 c 128,-1,45
 445 621 445 621 445 591 c 128,-1,46
 445 561 445 561 423 540.5 c 128,-1,47
 401 520 401 520 372 520 c 0,37,38
182 520 m 0,48,49
 152 520 152 520 131 540 c 128,-1,50
 110 560 110 560 110 591 c 0,51,52
 110 621 110 621 132 641.5 c 128,-1,53
 154 662 154 662 184 662 c 0,54,55
 213 662 213 662 234 641.5 c 128,-1,56
 255 621 255 621 255 591 c 128,-1,57
 255 561 255 561 233 540.5 c 128,-1,58
 211 520 211 520 182 520 c 0,48,49
EndSplineSet
EndChar

StartChar: igrave
Encoding: 236 236 171
Width: 249
GlyphClass: 2
Flags: W
LayerCount: 2
Fore
SplineSet
46 722 m 1,0,1
 86 679 86 679 130 646 c 128,-1,2
 174 613 174 613 193.5 598 c 128,-1,3
 213 583 213 583 213 567 c 0,4,5
 213 544 213 544 181 523 c 1,6,7
 150 546 150 546 98.5 573.5 c 128,-1,8
 47 601 47 601 20.5 620.5 c 128,-1,9
 -6 640 -6 640 -6 661 c 0,10,11
 -6 696 -6 696 46 722 c 1,0,1
116 478 m 0,12,13
 188 478 188 478 188 425 c 0,14,15
 188 419 188 419 185 384.5 c 128,-1,16
 182 350 182 350 179.5 299 c 128,-1,17
 177 248 177 248 177 202 c 0,18,19
 177 68 177 68 203 7 c 1,20,21
 178 -4 178 -4 146 -4 c 0,22,23
 102 -4 102 -4 86.5 14 c 128,-1,24
 71 32 71 32 71 75 c 0,25,26
 71 91 71 91 72 152.5 c 128,-1,27
 73 214 73 214 73 247 c 0,28,29
 73 392 73 392 64 474 c 1,30,31
 88 478 88 478 116 478 c 0,12,13
EndSplineSet
EndChar

StartChar: iacute
Encoding: 237 237 172
Width: 249
GlyphClass: 2
Flags: W
LayerCount: 2
Fore
SplineSet
235 626 m 1,0,1
 217 612 217 612 159.5 580 c 128,-1,2
 102 548 102 548 75 523 c 1,3,4
 45 550 45 550 45 572 c 0,5,6
 45 585 45 585 55 594.5 c 128,-1,7
 65 604 65 604 82 614 c 128,-1,8
 99 624 99 624 134 654.5 c 128,-1,9
 169 685 169 685 208 728 c 1,10,11
 262 700 262 700 262 669 c 0,12,13
 262 645 262 645 235 626 c 1,0,1
116 478 m 0,14,15
 188 478 188 478 188 425 c 0,16,17
 188 419 188 419 185 384.5 c 128,-1,18
 182 350 182 350 179.5 299 c 128,-1,19
 177 248 177 248 177 202 c 0,20,21
 177 68 177 68 203 7 c 1,22,23
 178 -4 178 -4 146 -4 c 0,24,25
 102 -4 102 -4 86.5 14 c 128,-1,26
 71 32 71 32 71 75 c 0,27,28
 71 91 71 91 72 152.5 c 128,-1,29
 73 214 73 214 73 247 c 0,30,31
 73 392 73 392 64 474 c 1,32,33
 88 478 88 478 116 478 c 0,14,15
EndSplineSet
EndChar

StartChar: icircumflex
Encoding: 238 238 173
Width: 249
GlyphClass: 2
Flags: W
LayerCount: 2
Fore
SplineSet
268 564 m 0,0,1
 268 543 268 543 231 519 c 1,2,3
 214 540 214 540 189 561.5 c 128,-1,4
 164 583 164 583 147 594 c 2,5,-1
 130 606 l 1,6,7
 43 531 43 531 16 531 c 0,8,9
 -5 531 -5 531 -25 557 c 1,10,11
 49 644 49 644 131 702 c 1,12,13
 268 607 268 607 268 564 c 0,0,1
116 478 m 0,14,15
 188 478 188 478 188 425 c 0,16,17
 188 419 188 419 185 384.5 c 128,-1,18
 182 350 182 350 179.5 299 c 128,-1,19
 177 248 177 248 177 202 c 0,20,21
 177 68 177 68 203 7 c 1,22,23
 178 -4 178 -4 146 -4 c 0,24,25
 102 -4 102 -4 86.5 14 c 128,-1,26
 71 32 71 32 71 75 c 0,27,28
 71 91 71 91 72 152.5 c 128,-1,29
 73 214 73 214 73 247 c 0,30,31
 73 392 73 392 64 474 c 1,32,33
 88 478 88 478 116 478 c 0,14,15
EndSplineSet
EndChar

StartChar: idieresis
Encoding: 239 239 174
Width: 249
GlyphClass: 2
Flags: W
LayerCount: 2
Fore
SplineSet
116 478 m 0,0,1
 188 478 188 478 188 425 c 0,2,3
 188 419 188 419 185 384.5 c 128,-1,4
 182 350 182 350 179.5 299 c 128,-1,5
 177 248 177 248 177 202 c 0,6,7
 177 68 177 68 203 7 c 1,8,9
 178 -4 178 -4 146 -4 c 0,10,11
 102 -4 102 -4 86.5 14 c 128,-1,12
 71 32 71 32 71 75 c 0,13,14
 71 91 71 91 72 152.5 c 128,-1,15
 73 214 73 214 73 247 c 0,16,17
 73 392 73 392 64 474 c 1,18,19
 88 478 88 478 116 478 c 0,0,1
223 520 m 0,20,21
 193 520 193 520 172 540 c 128,-1,22
 151 560 151 560 151 591 c 0,23,24
 151 621 151 621 173 641.5 c 128,-1,25
 195 662 195 662 225 662 c 0,26,27
 254 662 254 662 275 641.5 c 128,-1,28
 296 621 296 621 296 591 c 128,-1,29
 296 561 296 561 274 540.5 c 128,-1,30
 252 520 252 520 223 520 c 0,20,21
33 520 m 0,31,32
 3 520 3 520 -18 540 c 128,-1,33
 -39 560 -39 560 -39 591 c 0,34,35
 -39 621 -39 621 -17 641.5 c 128,-1,36
 5 662 5 662 35 662 c 0,37,38
 64 662 64 662 85 641.5 c 128,-1,39
 106 621 106 621 106 591 c 128,-1,40
 106 561 106 561 84 540.5 c 128,-1,41
 62 520 62 520 33 520 c 0,31,32
EndSplineSet
EndChar

StartChar: eth
Encoding: 240 240 175
Width: 535
GlyphClass: 2
Flags: W
LayerCount: 2
Fore
SplineSet
395 219 m 0,0,1
 395 302 395 302 360 358.5 c 128,-1,2
 325 415 325 415 265 415 c 0,3,4
 203 415 203 415 169 368.5 c 128,-1,5
 135 322 135 322 135 245 c 0,6,7
 135 161 135 161 169.5 105.5 c 128,-1,8
 204 50 204 50 265 50 c 0,9,10
 327 50 327 50 361 96.5 c 128,-1,11
 395 143 395 143 395 219 c 0,0,1
156 571 m 1,12,13
 181 587 181 587 215 610 c 1,14,15
 158 635 158 635 93 644 c 1,16,17
 91 656 91 656 91 663 c 0,18,19
 91 698 91 698 117 698 c 0,20,21
 142 698 142 698 190 685.5 c 128,-1,22
 238 673 238 673 277 654 c 1,23,24
 349 705 349 705 381 732 c 1,25,26
 410 713 410 713 410 686 c 0,27,28
 410 668 410 668 393 657 c 1,29,30
 381 648 381 648 361 635 c 128,-1,31
 341 622 341 622 337 619 c 1,32,33
 423 553 423 553 458 461.5 c 128,-1,34
 493 370 493 370 493 236 c 0,35,36
 493 124 493 124 430.5 57 c 128,-1,37
 368 -10 368 -10 265 -10 c 0,38,39
 163 -10 163 -10 100.5 57 c 128,-1,40
 38 124 38 124 38 237 c 128,-1,41
 38 350 38 350 98 417.5 c 128,-1,42
 158 485 158 485 255 485 c 0,43,44
 333 485 333 485 378 436 c 1,45,46
 347 525 347 525 275 576 c 1,47,48
 249 558 249 558 215.5 533 c 128,-1,49
 182 508 182 508 174 502 c 1,50,51
 140 518 140 518 140 544 c 0,52,53
 140 558 140 558 156 571 c 1,12,13
EndSplineSet
EndChar

StartChar: ntilde
Encoding: 241 241 176
Width: 539
GlyphClass: 2
Flags: W
LayerCount: 2
Fore
SplineSet
168 429 m 1,0,1
 239 485 239 485 328 485 c 0,2,3
 389 485 389 485 427 449 c 128,-1,4
 465 413 465 413 465 333 c 0,5,6
 465 322 465 322 463.5 255 c 128,-1,7
 462 188 462 188 462 157 c 0,8,9
 462 75 462 75 488 9 c 1,10,11
 457 -4 457 -4 432 -4 c 0,12,13
 391 -4 391 -4 374 13 c 128,-1,14
 357 30 357 30 357 77 c 0,15,16
 357 129 357 129 359 202.5 c 128,-1,17
 361 276 361 276 361 304 c 0,18,19
 361 359 361 359 339 386 c 128,-1,20
 317 413 317 413 282 413 c 0,21,22
 229 413 229 413 172 361 c 1,23,24
 174 227 174 227 174 166 c 0,25,26
 174 70 174 70 180 2 c 1,27,28
 153 -2 153 -2 130 -2 c 0,29,30
 65 -2 65 -2 65 38 c 0,31,32
 65 67 65 67 67.5 132 c 128,-1,33
 70 197 70 197 70 249 c 0,34,35
 70 415 70 415 51 467 c 1,36,37
 75 478 75 478 103 478 c 0,38,39
 132 478 132 478 148 469 c 128,-1,40
 164 460 164 460 168 429 c 1,0,1
421 617 m 0,41,42
 421 587 421 587 387.5 559 c 128,-1,43
 354 531 354 531 314 531 c 0,44,45
 285 531 285 531 247 553 c 128,-1,46
 209 575 209 575 202 575 c 0,47,48
 188 575 188 575 151 529 c 1,49,50
 117 544 117 544 117 567 c 0,51,52
 117 596 117 596 150.5 622 c 128,-1,53
 184 648 184 648 225 648 c 0,54,55
 249 648 249 648 286.5 626 c 128,-1,56
 324 604 324 604 335 604 c 0,57,58
 354 604 354 604 386 649 c 1,59,60
 421 639 421 639 421 617 c 0,41,42
EndSplineSet
EndChar

StartChar: ograve
Encoding: 242 242 177
Width: 540
GlyphClass: 2
Flags: W
LayerCount: 2
Fore
SplineSet
163 722 m 1,0,1
 203 679 203 679 247 646 c 128,-1,2
 291 613 291 613 310.5 598 c 128,-1,3
 330 583 330 583 330 567 c 0,4,5
 330 544 330 544 298 523 c 1,6,7
 267 546 267 546 215.5 573.5 c 128,-1,8
 164 601 164 601 137.5 620.5 c 128,-1,9
 111 640 111 640 111 661 c 0,10,11
 111 696 111 696 163 722 c 1,0,1
393 225 m 0,12,13
 393 305 393 305 359.5 358.5 c 128,-1,14
 326 412 326 412 269 412 c 0,15,16
 211 412 211 412 179 368 c 128,-1,17
 147 324 147 324 147 251 c 0,18,19
 147 170 147 170 179.5 117 c 128,-1,20
 212 64 212 64 269 64 c 0,21,22
 328 64 328 64 360.5 108 c 128,-1,23
 393 152 393 152 393 225 c 0,12,13
269 -10 m 0,24,25
 165 -10 165 -10 101.5 57.5 c 128,-1,26
 38 125 38 125 38 238 c 128,-1,27
 38 351 38 351 101.5 418 c 128,-1,28
 165 485 165 485 269 485 c 0,29,30
 374 485 374 485 438 418 c 128,-1,31
 502 351 502 351 502 238 c 128,-1,32
 502 125 502 125 438 57.5 c 128,-1,33
 374 -10 374 -10 269 -10 c 0,24,25
EndSplineSet
EndChar

StartChar: oacute
Encoding: 243 243 178
Width: 540
GlyphClass: 2
Flags: W
LayerCount: 2
Fore
SplineSet
402 626 m 1,0,1
 384 612 384 612 326.5 580 c 128,-1,2
 269 548 269 548 242 523 c 1,3,4
 212 550 212 550 212 572 c 0,5,6
 212 585 212 585 222 594.5 c 128,-1,7
 232 604 232 604 249 614 c 128,-1,8
 266 624 266 624 301 654.5 c 128,-1,9
 336 685 336 685 375 728 c 1,10,11
 429 700 429 700 429 669 c 0,12,13
 429 645 429 645 402 626 c 1,0,1
393 225 m 0,14,15
 393 305 393 305 359.5 358.5 c 128,-1,16
 326 412 326 412 269 412 c 0,17,18
 211 412 211 412 179 368 c 128,-1,19
 147 324 147 324 147 251 c 0,20,21
 147 170 147 170 179.5 117 c 128,-1,22
 212 64 212 64 269 64 c 0,23,24
 328 64 328 64 360.5 108 c 128,-1,25
 393 152 393 152 393 225 c 0,14,15
269 -10 m 0,26,27
 165 -10 165 -10 101.5 57.5 c 128,-1,28
 38 125 38 125 38 238 c 128,-1,29
 38 351 38 351 101.5 418 c 128,-1,30
 165 485 165 485 269 485 c 0,31,32
 374 485 374 485 438 418 c 128,-1,33
 502 351 502 351 502 238 c 128,-1,34
 502 125 502 125 438 57.5 c 128,-1,35
 374 -10 374 -10 269 -10 c 0,26,27
EndSplineSet
EndChar

StartChar: ocircumflex
Encoding: 244 244 179
Width: 540
GlyphClass: 2
Flags: W
LayerCount: 2
Fore
SplineSet
415 564 m 0,0,1
 415 543 415 543 378 519 c 1,2,3
 361 540 361 540 336 561.5 c 128,-1,4
 311 583 311 583 294 594 c 2,5,-1
 277 606 l 1,6,7
 190 531 190 531 163 531 c 0,8,9
 142 531 142 531 122 557 c 1,10,11
 196 644 196 644 278 702 c 1,12,13
 415 607 415 607 415 564 c 0,0,1
393 225 m 0,14,15
 393 305 393 305 359.5 358.5 c 128,-1,16
 326 412 326 412 269 412 c 0,17,18
 211 412 211 412 179 368 c 128,-1,19
 147 324 147 324 147 251 c 0,20,21
 147 170 147 170 179.5 117 c 128,-1,22
 212 64 212 64 269 64 c 0,23,24
 328 64 328 64 360.5 108 c 128,-1,25
 393 152 393 152 393 225 c 0,14,15
269 -10 m 0,26,27
 165 -10 165 -10 101.5 57.5 c 128,-1,28
 38 125 38 125 38 238 c 128,-1,29
 38 351 38 351 101.5 418 c 128,-1,30
 165 485 165 485 269 485 c 0,31,32
 374 485 374 485 438 418 c 128,-1,33
 502 351 502 351 502 238 c 128,-1,34
 502 125 502 125 438 57.5 c 128,-1,35
 374 -10 374 -10 269 -10 c 0,26,27
EndSplineSet
EndChar

StartChar: otilde
Encoding: 245 245 180
Width: 540
GlyphClass: 2
Flags: W
LayerCount: 2
Fore
SplineSet
393 225 m 0,0,1
 393 305 393 305 359.5 358.5 c 128,-1,2
 326 412 326 412 269 412 c 0,3,4
 211 412 211 412 179 368 c 128,-1,5
 147 324 147 324 147 251 c 0,6,7
 147 170 147 170 179.5 117 c 128,-1,8
 212 64 212 64 269 64 c 0,9,10
 328 64 328 64 360.5 108 c 128,-1,11
 393 152 393 152 393 225 c 0,0,1
269 -10 m 0,12,13
 165 -10 165 -10 101.5 57.5 c 128,-1,14
 38 125 38 125 38 238 c 128,-1,15
 38 351 38 351 101.5 418 c 128,-1,16
 165 485 165 485 269 485 c 0,17,18
 374 485 374 485 438 418 c 128,-1,19
 502 351 502 351 502 238 c 128,-1,20
 502 125 502 125 438 57.5 c 128,-1,21
 374 -10 374 -10 269 -10 c 0,12,13
421 617 m 0,22,23
 421 587 421 587 387.5 559 c 128,-1,24
 354 531 354 531 314 531 c 0,25,26
 285 531 285 531 247 553 c 128,-1,27
 209 575 209 575 202 575 c 0,28,29
 188 575 188 575 151 529 c 1,30,31
 117 544 117 544 117 567 c 0,32,33
 117 596 117 596 150.5 622 c 128,-1,34
 184 648 184 648 225 648 c 0,35,36
 249 648 249 648 286.5 626 c 128,-1,37
 324 604 324 604 335 604 c 0,38,39
 354 604 354 604 386 649 c 1,40,41
 421 639 421 639 421 617 c 0,22,23
EndSplineSet
EndChar

StartChar: odieresis
Encoding: 246 246 181
Width: 540
GlyphClass: 2
Flags: W
LayerCount: 2
Fore
SplineSet
393 225 m 0,0,1
 393 305 393 305 359.5 358.5 c 128,-1,2
 326 412 326 412 269 412 c 0,3,4
 211 412 211 412 179 368 c 128,-1,5
 147 324 147 324 147 251 c 0,6,7
 147 170 147 170 179.5 117 c 128,-1,8
 212 64 212 64 269 64 c 0,9,10
 328 64 328 64 360.5 108 c 128,-1,11
 393 152 393 152 393 225 c 0,0,1
269 -10 m 0,12,13
 165 -10 165 -10 101.5 57.5 c 128,-1,14
 38 125 38 125 38 238 c 128,-1,15
 38 351 38 351 101.5 418 c 128,-1,16
 165 485 165 485 269 485 c 0,17,18
 374 485 374 485 438 418 c 128,-1,19
 502 351 502 351 502 238 c 128,-1,20
 502 125 502 125 438 57.5 c 128,-1,21
 374 -10 374 -10 269 -10 c 0,12,13
370 520 m 0,22,23
 340 520 340 520 319 540 c 128,-1,24
 298 560 298 560 298 591 c 0,25,26
 298 621 298 621 320 641.5 c 128,-1,27
 342 662 342 662 372 662 c 0,28,29
 401 662 401 662 422 641.5 c 128,-1,30
 443 621 443 621 443 591 c 128,-1,31
 443 561 443 561 421 540.5 c 128,-1,32
 399 520 399 520 370 520 c 0,22,23
180 520 m 0,33,34
 150 520 150 520 129 540 c 128,-1,35
 108 560 108 560 108 591 c 0,36,37
 108 621 108 621 130 641.5 c 128,-1,38
 152 662 152 662 182 662 c 0,39,40
 211 662 211 662 232 641.5 c 128,-1,41
 253 621 253 621 253 591 c 128,-1,42
 253 561 253 561 231 540.5 c 128,-1,43
 209 520 209 520 180 520 c 0,33,34
EndSplineSet
EndChar

StartChar: divide
Encoding: 247 247 182
Width: 535
GlyphClass: 2
Flags: W
LayerCount: 2
Fore
SplineSet
456 260 m 0,0,1
 456 240 456 240 441.5 225.5 c 128,-1,2
 427 211 427 211 404 211 c 0,3,4
 388 211 388 211 332 215 c 128,-1,5
 276 219 276 219 252 219 c 0,6,7
 147 219 147 219 39 209 c 1,8,9
 34 234 34 234 34 248 c 0,10,11
 34 267 34 267 46.5 282 c 128,-1,12
 59 297 59 297 86 297 c 0,13,14
 89 297 89 297 146 293.5 c 128,-1,15
 203 290 203 290 250 290 c 0,16,17
 377 290 377 290 450 299 c 1,18,19
 456 282 456 282 456 260 c 0,0,1
255 359 m 0,20,21
 229 359 229 359 211 376.5 c 128,-1,22
 193 394 193 394 193 422 c 0,23,24
 193 449 193 449 211 467.5 c 128,-1,25
 229 486 229 486 255 486 c 0,26,27
 280 486 280 486 297.5 467.5 c 128,-1,28
 315 449 315 449 315 422 c 0,29,30
 315 394 315 394 297.5 376.5 c 128,-1,31
 280 359 280 359 255 359 c 0,20,21
255 22 m 0,32,33
 229 22 229 22 211 40 c 128,-1,34
 193 58 193 58 193 86 c 0,35,36
 193 112 193 112 211.5 131 c 128,-1,37
 230 150 230 150 255 150 c 128,-1,38
 280 150 280 150 297.5 131 c 128,-1,39
 315 112 315 112 315 86 c 0,40,41
 315 58 315 58 297.5 40 c 128,-1,42
 280 22 280 22 255 22 c 0,32,33
EndSplineSet
EndChar

StartChar: oslash
Encoding: 248 248 183
Width: 540
GlyphClass: 2
Flags: W
LayerCount: 2
Fore
SplineSet
178 6 m 1,0,-1
 159 -30 l 2,1,2
 137 -70 137 -70 131 -87 c 1,3,4
 85 -82 85 -82 85 -56 c 0,5,6
 85 -46 85 -46 110 -1 c 2,7,-1
 129 33 l 1,8,9
 38 102 38 102 38 238 c 0,10,11
 38 351 38 351 101.5 418 c 128,-1,12
 165 485 165 485 269 485 c 0,13,14
 321 485 321 485 367 466 c 1,15,-1
 389 506 l 2,16,17
 399 524 399 524 417 563 c 1,18,19
 463 558 463 558 463 532 c 0,20,21
 463 521 463 521 441 482 c 2,22,-1
 416 437 l 1,23,24
 502 370 502 370 502 238 c 0,25,26
 502 125 502 125 438 57.5 c 128,-1,27
 374 -10 374 -10 269 -10 c 0,28,29
 221 -10 221 -10 178 6 c 1,0,-1
147 251 m 0,30,31
 147 170 147 170 177 121 c 1,32,-1
 327 393 l 1,33,34
 300 412 300 412 269 412 c 0,35,36
 211 412 211 412 179 368 c 128,-1,37
 147 324 147 324 147 251 c 0,30,31
393 225 m 128,-1,39
 393 298 393 298 366 347 c 1,40,-1
 218 78 l 1,41,42
 241 64 241 64 269 64 c 0,43,44
 328 64 328 64 360.5 108 c 128,-1,38
 393 152 393 152 393 225 c 128,-1,39
EndSplineSet
EndChar

StartChar: ugrave
Encoding: 249 249 184
Width: 529
GlyphClass: 2
Flags: W
LayerCount: 2
Fore
SplineSet
157 722 m 1,0,1
 197 679 197 679 241 646 c 128,-1,2
 285 613 285 613 304.5 598 c 128,-1,3
 324 583 324 583 324 567 c 0,4,5
 324 544 324 544 292 523 c 1,6,7
 261 546 261 546 209.5 573.5 c 128,-1,8
 158 601 158 601 131.5 620.5 c 128,-1,9
 105 640 105 640 105 661 c 0,10,11
 105 696 105 696 157 722 c 1,0,1
364 47 m 1,12,13
 298 -10 298 -10 212 -10 c 0,14,15
 65 -10 65 -10 65 132 c 0,16,17
 65 139 65 139 66.5 208.5 c 128,-1,18
 68 278 68 278 68 309 c 0,19,20
 68 412 68 412 51 470 c 1,21,22
 78 479 78 479 106 479 c 0,23,24
 143 479 143 479 159 467 c 128,-1,25
 175 455 175 455 175 427 c 0,26,27
 175 375 175 375 172 285 c 128,-1,28
 169 195 169 195 169 169 c 0,29,30
 169 118 169 118 190.5 91 c 128,-1,31
 212 64 212 64 246 64 c 0,32,33
 304 64 304 64 357 115 c 1,34,35
 356 156 356 156 356 242 c 0,36,37
 356 392 356 392 349 475 c 1,38,39
 377 479 377 479 399 479 c 0,40,41
 463 479 463 479 463 440 c 0,42,43
 463 422 463 422 461 340 c 128,-1,44
 459 258 459 258 459 204 c 0,45,46
 459 79 459 79 478 8 c 1,47,48
 457 -3 457 -3 428 -3 c 0,49,50
 409 -3 409 -3 398 -0.5 c 128,-1,51
 387 2 387 2 377 13.5 c 128,-1,52
 367 25 367 25 364 47 c 1,12,13
EndSplineSet
EndChar

StartChar: uacute
Encoding: 250 250 185
Width: 529
GlyphClass: 2
Flags: W
LayerCount: 2
Fore
SplineSet
396 626 m 1,0,1
 378 612 378 612 320.5 580 c 128,-1,2
 263 548 263 548 236 523 c 1,3,4
 206 550 206 550 206 572 c 0,5,6
 206 585 206 585 216 594.5 c 128,-1,7
 226 604 226 604 243 614 c 128,-1,8
 260 624 260 624 295 654.5 c 128,-1,9
 330 685 330 685 369 728 c 1,10,11
 423 700 423 700 423 669 c 0,12,13
 423 645 423 645 396 626 c 1,0,1
364 47 m 1,14,15
 298 -10 298 -10 212 -10 c 0,16,17
 65 -10 65 -10 65 132 c 0,18,19
 65 139 65 139 66.5 208.5 c 128,-1,20
 68 278 68 278 68 309 c 0,21,22
 68 412 68 412 51 470 c 1,23,24
 78 479 78 479 106 479 c 0,25,26
 143 479 143 479 159 467 c 128,-1,27
 175 455 175 455 175 427 c 0,28,29
 175 375 175 375 172 285 c 128,-1,30
 169 195 169 195 169 169 c 0,31,32
 169 118 169 118 190.5 91 c 128,-1,33
 212 64 212 64 246 64 c 0,34,35
 304 64 304 64 357 115 c 1,36,37
 356 156 356 156 356 242 c 0,38,39
 356 392 356 392 349 475 c 1,40,41
 377 479 377 479 399 479 c 0,42,43
 463 479 463 479 463 440 c 0,44,45
 463 422 463 422 461 340 c 128,-1,46
 459 258 459 258 459 204 c 0,47,48
 459 79 459 79 478 8 c 1,49,50
 457 -3 457 -3 428 -3 c 0,51,52
 409 -3 409 -3 398 -0.5 c 128,-1,53
 387 2 387 2 377 13.5 c 128,-1,54
 367 25 367 25 364 47 c 1,14,15
EndSplineSet
EndChar

StartChar: ucircumflex
Encoding: 251 251 186
Width: 529
GlyphClass: 2
Flags: W
LayerCount: 2
Fore
SplineSet
402 564 m 0,0,1
 402 543 402 543 365 519 c 1,2,3
 348 540 348 540 323 561.5 c 128,-1,4
 298 583 298 583 281 594 c 2,5,-1
 264 606 l 1,6,7
 177 531 177 531 150 531 c 0,8,9
 128 531 128 531 109 557 c 1,10,11
 183 644 183 644 265 702 c 1,12,13
 402 607 402 607 402 564 c 0,0,1
364 47 m 1,14,15
 298 -10 298 -10 212 -10 c 0,16,17
 65 -10 65 -10 65 132 c 0,18,19
 65 139 65 139 66.5 208.5 c 128,-1,20
 68 278 68 278 68 309 c 0,21,22
 68 412 68 412 51 470 c 1,23,24
 78 479 78 479 106 479 c 0,25,26
 143 479 143 479 159 467 c 128,-1,27
 175 455 175 455 175 427 c 0,28,29
 175 375 175 375 172 285 c 128,-1,30
 169 195 169 195 169 169 c 0,31,32
 169 118 169 118 190.5 91 c 128,-1,33
 212 64 212 64 246 64 c 0,34,35
 304 64 304 64 357 115 c 1,36,37
 356 156 356 156 356 242 c 0,38,39
 356 392 356 392 349 475 c 1,40,41
 377 479 377 479 399 479 c 0,42,43
 463 479 463 479 463 440 c 0,44,45
 463 422 463 422 461 340 c 128,-1,46
 459 258 459 258 459 204 c 0,47,48
 459 79 459 79 478 8 c 1,49,50
 457 -3 457 -3 428 -3 c 0,51,52
 409 -3 409 -3 398 -0.5 c 128,-1,53
 387 2 387 2 377 13.5 c 128,-1,54
 367 25 367 25 364 47 c 1,14,15
EndSplineSet
EndChar

StartChar: udieresis
Encoding: 252 252 187
Width: 529
GlyphClass: 2
Flags: W
LayerCount: 2
Fore
SplineSet
364 47 m 1,0,1
 298 -10 298 -10 212 -10 c 0,2,3
 65 -10 65 -10 65 132 c 0,4,5
 65 139 65 139 66.5 208.5 c 128,-1,6
 68 278 68 278 68 309 c 0,7,8
 68 412 68 412 51 470 c 1,9,10
 78 479 78 479 106 479 c 0,11,12
 143 479 143 479 159 467 c 128,-1,13
 175 455 175 455 175 427 c 0,14,15
 175 375 175 375 172 285 c 128,-1,16
 169 195 169 195 169 169 c 0,17,18
 169 118 169 118 190.5 91 c 128,-1,19
 212 64 212 64 246 64 c 0,20,21
 304 64 304 64 357 115 c 1,22,23
 356 156 356 156 356 242 c 0,24,25
 356 392 356 392 349 475 c 1,26,27
 377 479 377 479 399 479 c 0,28,29
 463 479 463 479 463 440 c 0,30,31
 463 422 463 422 461 340 c 128,-1,32
 459 258 459 258 459 204 c 0,33,34
 459 79 459 79 478 8 c 1,35,36
 457 -3 457 -3 428 -3 c 0,37,38
 409 -3 409 -3 398 -0.5 c 128,-1,39
 387 2 387 2 377 13.5 c 128,-1,40
 367 25 367 25 364 47 c 1,0,1
364 520 m 0,41,42
 334 520 334 520 313 540 c 128,-1,43
 292 560 292 560 292 591 c 0,44,45
 292 621 292 621 314 641.5 c 128,-1,46
 336 662 336 662 366 662 c 0,47,48
 395 662 395 662 416 641.5 c 128,-1,49
 437 621 437 621 437 591 c 128,-1,50
 437 561 437 561 415 540.5 c 128,-1,51
 393 520 393 520 364 520 c 0,41,42
174 520 m 0,52,53
 144 520 144 520 123 540 c 128,-1,54
 102 560 102 560 102 591 c 0,55,56
 102 621 102 621 124 641.5 c 128,-1,57
 146 662 146 662 176 662 c 0,58,59
 205 662 205 662 226 641.5 c 128,-1,60
 247 621 247 621 247 591 c 128,-1,61
 247 561 247 561 225 540.5 c 128,-1,62
 203 520 203 520 174 520 c 0,52,53
EndSplineSet
EndChar

